<svg xmlns="http://www.w3.org/2000/svg" xmlns:xlink="http://www.w3.org/1999/xlink" width="2000" zoomAndPan="magnify" viewBox="0 0 1500 1499.999933" height="2000" preserveAspectRatio="xMidYMid meet" version="1.0"><defs><clipPath id="52c3314c7f"><path d="M 598 504.597656 L 913 504.597656 L 913 769 L 598 769 Z M 598 504.597656 " clip-rule="nonzero"/></clipPath><clipPath id="f04b77f01a"><path d="M 222 504.597656 L 591 504.597656 L 591 942 L 222 942 Z M 222 504.597656 " clip-rule="nonzero"/></clipPath><clipPath id="7137afcc72"><path d="M 358.433594 1181 L 391.65625 1181 L 391.65625 1205.609375 L 358.433594 1205.609375 Z M 358.433594 1181 " clip-rule="nonzero"/></clipPath><clipPath id="50f8b87d5a"><path d="M 372.269531 1182.359375 C 381.644531 1187.683594 382.917969 1187.007812 384.417969 1187.457031 C 386.070312 1187.984375 388.242188 1189.035156 389.445312 1190.457031 C 390.644531 1191.882812 391.542969 1194.058594 391.617188 1195.933594 C 391.769531 1197.734375 391.09375 1200.058594 390.117188 1201.558594 C 389.070312 1203.132812 387.195312 1204.558594 385.46875 1205.160156 C 383.667969 1205.757812 381.34375 1205.757812 379.542969 1205.160156 C 377.820312 1204.558594 375.867188 1202.832031 374.894531 1201.632812 C 374.144531 1200.734375 373.84375 1200.058594 373.617188 1198.933594 C 373.320312 1197.433594 373.46875 1194.582031 373.917969 1193.082031 C 374.21875 1192.035156 374.820312 1191.285156 375.417969 1190.535156 C 376.09375 1189.785156 376.695312 1189.109375 377.667969 1188.582031 C 379.09375 1187.910156 381.570312 1187.160156 383.445312 1187.308594 C 385.242188 1187.535156 387.417969 1188.507812 388.769531 1189.785156 C 390.117188 1190.984375 391.167969 1193.082031 391.542969 1194.882812 C 391.84375 1196.757812 391.46875 1199.082031 390.570312 1200.734375 C 389.742188 1202.382812 388.019531 1203.957031 386.367188 1204.785156 C 384.644531 1205.535156 382.695312 1205.609375 380.519531 1205.457031 C 377.742188 1205.234375 373.917969 1204.035156 370.917969 1202.757812 C 367.992188 1201.484375 364.769531 1199.382812 362.742188 1197.808594 C 361.46875 1196.683594 360.417969 1195.859375 359.742188 1194.660156 C 358.992188 1193.457031 358.46875 1192.035156 358.46875 1190.535156 C 358.46875 1188.660156 359.21875 1185.957031 360.417969 1184.382812 C 361.695312 1182.808594 364.019531 1181.457031 365.96875 1181.082031 C 367.917969 1180.785156 372.269531 1182.359375 372.269531 1182.359375 " clip-rule="nonzero"/></clipPath><clipPath id="70f7337ecc"><path d="M 576.4375 173.726562 L 1026.4375 173.726562 L 1026.4375 623.726562 L 576.4375 623.726562 Z M 576.4375 173.726562 " clip-rule="nonzero"/></clipPath><clipPath id="fd37a5ac40"><path d="M 646.9375 173.726562 L 955.9375 173.726562 C 994.875 173.726562 1026.4375 205.289062 1026.4375 244.226562 L 1026.4375 553.226562 C 1026.4375 592.160156 994.875 623.726562 955.9375 623.726562 L 646.9375 623.726562 C 608 623.726562 576.4375 592.160156 576.4375 553.226562 L 576.4375 244.226562 C 576.4375 205.289062 608 173.726562 646.9375 173.726562 Z M 646.9375 173.726562 " clip-rule="nonzero"/></clipPath><clipPath id="d69b95b681"><path d="M 0 331.667969 L 274.386719 331.667969 L 274.386719 781.667969 L 0 781.667969 Z M 0 331.667969 " clip-rule="nonzero"/></clipPath><clipPath id="a0694ad1ef"><path d="M 49.386719 331.667969 C -74.878906 331.667969 -175.613281 432.402344 -175.613281 556.667969 C -175.613281 680.929688 -74.878906 781.667969 49.386719 781.667969 C 173.652344 781.667969 274.386719 680.929688 274.386719 556.667969 C 274.386719 432.402344 173.652344 331.667969 49.386719 331.667969 Z M 49.386719 331.667969 " clip-rule="nonzero"/></clipPath><clipPath id="15f5a5f8b6"><path d="M 0 398.726562 L 246.226562 398.726562 L 246.226562 848.726562 L 0 848.726562 Z M 0 398.726562 " clip-rule="nonzero"/></clipPath><clipPath id="ecc11466f2"><path d="M 21.226562 398.726562 C -103.039062 398.726562 -203.773438 499.460938 -203.773438 623.726562 C -203.773438 747.988281 -103.039062 848.726562 21.226562 848.726562 C 145.488281 848.726562 246.226562 747.988281 246.226562 623.726562 C 246.226562 499.460938 145.488281 398.726562 21.226562 398.726562 Z M 21.226562 398.726562 " clip-rule="nonzero"/></clipPath><clipPath id="ff100a2297"><path d="M 591.402344 590.027344 L 688.980469 590.027344 L 688.980469 687.601562 L 591.402344 687.601562 Z M 591.402344 590.027344 " clip-rule="nonzero"/></clipPath><clipPath id="448e663920"><path d="M 640.191406 590.027344 C 613.246094 590.027344 591.402344 611.871094 591.402344 638.816406 C 591.402344 665.757812 613.246094 687.601562 640.191406 687.601562 C 667.136719 687.601562 688.980469 665.757812 688.980469 638.816406 C 688.980469 611.871094 667.136719 590.027344 640.191406 590.027344 Z M 640.191406 590.027344 " clip-rule="nonzero"/></clipPath><clipPath id="5fdc1db3f9"><path d="M 591.402344 655.726562 L 655.15625 655.726562 L 655.15625 719.480469 L 591.402344 719.480469 Z M 591.402344 655.726562 " clip-rule="nonzero"/></clipPath><clipPath id="c6357ba345"><path d="M 623.28125 655.726562 C 605.675781 655.726562 591.402344 669.996094 591.402344 687.601562 C 591.402344 705.207031 605.675781 719.480469 623.28125 719.480469 C 640.886719 719.480469 655.15625 705.207031 655.15625 687.601562 C 655.15625 669.996094 640.886719 655.726562 623.28125 655.726562 Z M 623.28125 655.726562 " clip-rule="nonzero"/></clipPath><clipPath id="90d731b40a"><path d="M 591.402344 702.84375 L 655.15625 702.84375 L 655.15625 766.597656 L 591.402344 766.597656 Z M 591.402344 702.84375 " clip-rule="nonzero"/></clipPath><clipPath id="54c73551b4"><path d="M 623.28125 702.84375 C 605.675781 702.84375 591.402344 717.113281 591.402344 734.71875 C 591.402344 752.324219 605.675781 766.597656 623.28125 766.597656 C 640.886719 766.597656 655.15625 752.324219 655.15625 734.71875 C 655.15625 717.113281 640.886719 702.84375 623.28125 702.84375 Z M 623.28125 702.84375 " clip-rule="nonzero"/></clipPath><clipPath id="52dee1ff9a"><path d="M 591.402344 749.789062 L 623.28125 749.789062 L 623.28125 781.667969 L 591.402344 781.667969 Z M 591.402344 749.789062 " clip-rule="nonzero"/></clipPath><clipPath id="e34054fa97"><path d="M 607.339844 749.789062 C 598.539062 749.789062 591.402344 756.925781 591.402344 765.726562 C 591.402344 774.53125 598.539062 781.667969 607.339844 781.667969 C 616.144531 781.667969 623.28125 774.53125 623.28125 765.726562 C 623.28125 756.925781 616.144531 749.789062 607.339844 749.789062 Z M 607.339844 749.789062 " clip-rule="nonzero"/></clipPath></defs><g clip-path="url(#52c3314c7f)"><path fill="#6a2186" d="M 850.195312 104.152344 C 849.257812 104.230469 846.144531 104.453125 843.257812 104.679688 C 831.40625 105.578125 795.519531 110.640625 793.007812 111.765625 C 789.257812 113.453125 788.804688 115.402344 787.757812 135.054688 C 787.417969 140.941406 786.445312 157.890625 785.507812 172.742188 C 784.605469 187.589844 783.632812 202.929688 783.40625 206.867188 C 783.179688 210.765625 782.957031 219.316406 782.917969 225.804688 C 782.84375 234.429688 782.695312 237.839844 782.355469 238.480469 C 781.457031 240.128906 780.742188 247.027344 780.070312 260.304688 C 779.46875 272.003906 778.980469 277.554688 778.382812 278.714844 C 777.667969 280.066406 777.667969 281.339844 778.34375 282.992188 C 778.71875 283.855469 779.167969 284.304688 779.65625 284.304688 C 780.894531 284.304688 780.894531 284.980469 779.730469 285.839844 C 779.09375 286.292969 778.492188 286.929688 778.382812 287.230469 C 778.269531 287.527344 778.792969 289.105469 779.542969 290.714844 C 781.195312 294.429688 781.195312 296.042969 779.507812 296.230469 C 777.96875 296.417969 777.445312 296.941406 777.445312 298.253906 C 777.445312 299.527344 777.03125 300.390625 775.304688 302.679688 C 774.21875 304.105469 774.03125 304.589844 774.21875 305.679688 C 774.40625 306.839844 774.292969 307.140625 773.167969 308.003906 C 771.03125 309.730469 766.945312 319.027344 766.945312 322.214844 C 766.945312 324.203125 766.605469 324.804688 765.59375 324.804688 C 764.957031 324.804688 764.429688 325.179688 763.945312 326.003906 C 762.96875 327.617188 763.007812 327.917969 764.132812 327.652344 C 765.40625 327.316406 765.292969 327.804688 763.792969 329.265625 C 762.292969 330.691406 761.46875 332.527344 761.132812 335.042969 C 760.867188 336.992188 760.304688 337.480469 759.105469 336.804688 C 758.320312 336.390625 758.320312 336.464844 758.542969 338.492188 C 758.769531 340.402344 758.730469 340.628906 758.019531 340.816406 C 757.382812 340.964844 757.230469 341.265625 757.304688 342.390625 C 757.382812 343.515625 757.269531 343.742188 756.554688 343.855469 C 755.84375 343.964844 755.695312 344.230469 755.695312 345.429688 C 755.695312 346.515625 755.394531 347.230469 754.382812 348.429688 C 752.769531 350.378906 752.46875 351.429688 752.957031 353.753906 C 753.144531 354.730469 753.21875 355.554688 753.105469 355.554688 C 752.992188 355.554688 752.429688 355.027344 751.867188 354.355469 C 751.34375 353.679688 750.78125 353.230469 750.632812 353.378906 C 750.519531 353.492188 750.179688 355.253906 749.917969 357.316406 C 749.394531 361.179688 748.980469 362.417969 747.667969 363.464844 C 747.070312 363.953125 746.917969 364.515625 746.882812 366.089844 C 746.882812 367.929688 746.804688 368.152344 745.570312 368.941406 C 743.957031 370.027344 742.945312 371.792969 742.945312 373.554688 C 742.945312 374.265625 742.832031 375.277344 742.679688 375.765625 C 742.492188 376.515625 742.304688 376.589844 741.179688 376.441406 C 740.054688 376.253906 739.90625 376.292969 740.132812 376.855469 C 740.28125 377.191406 740.46875 378.054688 740.582031 378.730469 C 740.769531 379.703125 740.617188 380.078125 739.792969 380.714844 C 737.769531 382.292969 731.542969 396.128906 730.382812 401.492188 C 729.96875 403.589844 729.855469 403.742188 728.917969 403.667969 C 727.945312 403.589844 727.90625 403.667969 728.167969 404.792969 C 728.582031 406.742188 728.542969 407.003906 727.757812 407.152344 C 726.78125 407.304688 726.257812 408.054688 724.570312 411.617188 C 722.769531 415.441406 722.019531 418.554688 722.617188 419.867188 C 723.21875 421.214844 723.179688 421.292969 722.167969 421.027344 C 721.417969 420.839844 721.042969 421.066406 720.105469 422.265625 C 718.007812 424.929688 716.507812 428.605469 716.507812 431.117188 C 716.507812 433.292969 716.46875 433.367188 715.457031 433.480469 C 714.707031 433.554688 714.445312 433.777344 714.59375 434.152344 C 714.894531 434.941406 714.21875 436.480469 712.90625 437.980469 C 711.894531 439.105469 711.78125 439.515625 711.929688 440.753906 C 712.117188 442.027344 712.007812 442.253906 711.257812 442.554688 C 709.417969 443.265625 707.882812 446.492188 709.605469 446.042969 C 710.355469 445.816406 710.355469 445.890625 709.90625 446.714844 C 709.644531 447.203125 708.632812 448.703125 707.617188 450.015625 C 704.84375 453.617188 703.867188 455.714844 704.167969 457.554688 C 704.394531 458.902344 704.320312 459.054688 703.457031 459.390625 C 701.617188 460.105469 699.257812 466.667969 700.082031 468.839844 C 700.53125 469.964844 700.492188 469.964844 699.480469 469.742188 C 697.605469 469.328125 695.804688 472.140625 694.230469 478.027344 C 693.742188 479.792969 692.957031 481.554688 692.320312 482.339844 C 690.820312 484.214844 687.179688 491.640625 684.519531 498.242188 C 681.257812 506.417969 680.132812 509.941406 680.207031 512.042969 C 680.242188 513.804688 680.207031 513.839844 679.53125 513.203125 C 678.707031 512.492188 677.957031 512.679688 677.167969 513.878906 C 676.867188 514.367188 672.554688 523.589844 667.644531 534.429688 C 658.007812 555.542969 648.632812 575.980469 629.132812 618.242188 C 609.144531 661.554688 601.117188 680.078125 601.117188 682.777344 C 601.117188 684.203125 601.082031 684.203125 600.070312 683.679688 C 599.46875 683.378906 599.242188 683.453125 598.71875 684.242188 C 598.042969 685.292969 597.929688 684.542969 599.882812 693.804688 C 603.554688 711.242188 605.429688 736.855469 604.195312 752.117188 C 603.894531 755.828125 603.03125 762.765625 602.132812 768.617188 C 601.90625 770.230469 605.132812 763.777344 609.554688 753.804688 C 614.84375 741.804688 621.40625 727.367188 626.507812 716.492188 C 640.980469 685.589844 671.09375 620.117188 678.820312 602.679688 C 680.429688 599.078125 683.882812 591.542969 686.507812 585.992188 C 691.15625 576.128906 696.070312 565.367188 696.070312 565.027344 C 696.070312 564.953125 699.480469 557.640625 703.605469 548.792969 C 707.769531 539.980469 712.304688 530.117188 713.695312 526.929688 C 716.769531 519.839844 729.667969 491.679688 739.945312 469.554688 C 744.105469 460.589844 751.570312 444.390625 756.519531 433.554688 C 761.46875 422.714844 767.695312 409.292969 770.394531 403.742188 C 776.730469 390.578125 778.304688 386.679688 778.34375 384.128906 C 778.34375 382.515625 778.457031 382.179688 779.019531 382.179688 C 780.179688 382.179688 782.132812 378.652344 787.53125 366.804688 C 790.382812 360.503906 795.820312 348.691406 799.570312 340.554688 C 814.082031 309.167969 817.417969 300.617188 821.320312 284.867188 C 823.457031 276.277344 831.929688 234.015625 831.742188 232.816406 C 831.632812 232.066406 831.40625 231.992188 829.195312 231.992188 C 826.195312 232.027344 824.695312 232.402344 824.695312 233.117188 C 824.695312 233.714844 824.917969 233.753906 827.882812 233.828125 L 829.757812 233.867188 L 829.867188 235.441406 C 830.019531 237.203125 829.117188 239.679688 828.332031 239.679688 C 828.03125 239.679688 827.582031 239.417969 827.28125 239.078125 C 827.019531 238.777344 826.34375 238.253906 825.78125 237.953125 C 824.804688 237.464844 824.695312 237.464844 824.28125 238.214844 C 824.019531 238.742188 823.945312 239.828125 824.09375 241.179688 C 824.394531 243.804688 824.132812 244.554688 822.929688 244.554688 C 820.34375 244.554688 816.554688 248.640625 818.582031 249.316406 C 818.804688 249.390625 819.367188 248.792969 819.855469 247.929688 C 820.570312 246.691406 820.90625 246.429688 821.695312 246.503906 C 822.820312 246.652344 823.117188 248.078125 822.445312 250.292969 C 822.21875 251.117188 822.105469 251.828125 822.21875 251.941406 C 822.59375 252.355469 824.617188 250.515625 825.257812 249.203125 C 825.632812 248.453125 826.117188 246.542969 826.382812 244.964844 C 826.71875 242.753906 826.90625 242.265625 827.167969 242.867188 C 827.355469 243.277344 827.507812 244.441406 827.46875 245.492188 C 827.429688 250.105469 821.28125 258.203125 817.195312 259.027344 C 815.46875 259.367188 813.632812 260.492188 813.519531 261.277344 C 813.367188 262.214844 814.304688 263.078125 816.144531 263.640625 C 817.757812 264.167969 819.144531 265.703125 818.804688 266.566406 C 818.617188 267.015625 818.207031 267.089844 816.554688 266.902344 C 815.28125 266.753906 814.570312 266.828125 814.570312 267.054688 C 814.570312 267.652344 815.542969 269.453125 817.417969 272.230469 C 819.144531 274.816406 819.667969 276.128906 819.292969 276.730469 C 818.84375 277.441406 817.53125 276.691406 817.007812 275.417969 C 816.632812 274.589844 816.03125 273.953125 815.167969 273.617188 C 813.367188 272.867188 813.367188 272.867188 814.230469 274.328125 C 815.28125 276.128906 816.070312 280.214844 816.070312 284.152344 C 816.070312 288.390625 815.617188 289.929688 814.304688 289.929688 C 813.554688 289.929688 813.40625 290.078125 813.632812 290.566406 C 813.742188 290.941406 813.96875 291.691406 814.082031 292.253906 C 814.304688 293.492188 813.78125 293.566406 810.96875 292.890625 C 809.695312 292.554688 809.167969 292.554688 808.757812 292.929688 C 807.929688 293.605469 808.679688 294.652344 810.179688 294.953125 C 812.84375 295.441406 816.257812 298.589844 814.757812 299.152344 C 814.304688 299.339844 810.554688 298.703125 807.445312 297.953125 C 806.695312 297.765625 806.882812 298.066406 808.492188 299.566406 C 810.59375 301.554688 810.742188 302.003906 809.917969 303.953125 C 809.132812 305.828125 807.632812 306.839844 805.679688 306.765625 C 803.84375 306.652344 803.355469 306.953125 803.957031 307.855469 C 804.554688 308.792969 806.730469 308.527344 809.617188 307.179688 C 810.96875 306.542969 812.132812 306.128906 812.242188 306.203125 C 812.320312 306.316406 811.042969 307.703125 809.355469 309.316406 C 807.179688 311.417969 806.242188 312.578125 806.09375 313.480469 C 805.792969 314.902344 804.367188 316.179688 803.09375 316.179688 C 801.929688 316.179688 801.96875 315.765625 803.132812 314.679688 C 804.179688 313.703125 804.742188 311.453125 804.105469 310.816406 C 803.46875 310.179688 802.417969 311.417969 801.480469 313.816406 L 800.65625 315.917969 L 802.007812 317.304688 C 803.617188 318.953125 803.65625 319.890625 802.15625 321.617188 C 800.320312 323.714844 799.570312 323.980469 798.742188 322.816406 C 796.71875 320.042969 788.320312 321.953125 788.320312 325.179688 C 788.320312 326.605469 790.082031 328.066406 792.257812 328.402344 C 793.269531 328.554688 793.945312 328.855469 793.945312 329.117188 C 793.945312 329.378906 793.082031 330.242188 792.03125 331.027344 C 790.34375 332.230469 790.195312 332.492188 790.792969 332.714844 C 791.167969 332.867188 792.21875 333.015625 793.042969 333.015625 C 794.84375 333.054688 796.457031 334.105469 796.082031 335.042969 C 795.820312 335.753906 794.617188 335.980469 792.742188 335.640625 L 791.394531 335.417969 L 792.179688 336.503906 C 793.007812 337.589844 793.34375 340.890625 792.742188 341.492188 C 792.21875 342.015625 790.570312 341.265625 789.03125 339.804688 C 787.492188 338.339844 787.492188 338.339844 787.605469 335.980469 C 787.71875 334.066406 787.644531 333.617188 787.15625 333.503906 C 785.730469 333.242188 784.34375 339.503906 785.695312 340.179688 C 785.992188 340.328125 786.78125 340.667969 787.382812 340.964844 C 788.054688 341.265625 788.804688 342.128906 789.257812 343.027344 C 790.382812 345.355469 790.90625 345.839844 791.917969 345.578125 C 793.007812 345.316406 793.082031 345.804688 792.105469 346.964844 C 791.46875 347.753906 791.054688 347.867188 788.917969 347.867188 C 787.570312 347.867188 786.445312 347.941406 786.445312 348.089844 C 786.445312 348.503906 788.28125 350.304688 788.769531 350.339844 C 789.03125 350.378906 789.59375 350.417969 790.007812 350.453125 C 791.132812 350.527344 791.28125 353.078125 790.195312 353.679688 C 788.882812 354.390625 787.457031 353.980469 786.894531 352.777344 C 786.40625 351.839844 786.292969 351.804688 785.804688 352.292969 C 785.167969 352.929688 784.605469 356.980469 784.570312 361.253906 C 784.570312 362.828125 784.382812 364.589844 784.117188 365.117188 C 783.742188 365.941406 783.480469 366.089844 782.355469 365.980469 C 781.195312 365.867188 781.007812 365.714844 780.894531 364.855469 C 780.78125 364.066406 781.007812 363.730469 781.945312 363.242188 C 783.332031 362.527344 783.105469 361.855469 780.96875 360.242188 C 779.804688 359.339844 779.617188 359.304688 779.84375 359.902344 C 780.59375 361.816406 780.519531 362.902344 779.542969 364.066406 C 779.019531 364.703125 778.570312 365.378906 778.570312 365.566406 C 778.570312 365.792969 779.09375 366.652344 779.730469 367.515625 C 780.96875 369.277344 780.929688 369.765625 779.542969 369.128906 C 778.457031 368.640625 777.820312 369.167969 777.820312 370.515625 C 777.820312 371.078125 777.292969 371.902344 776.28125 372.839844 C 773.582031 375.316406 776.355469 375.316406 780.445312 372.804688 C 781.792969 371.980469 782.992188 371.304688 783.179688 371.304688 C 783.667969 371.304688 783.445312 372.617188 782.695312 373.816406 C 782.09375 374.828125 781.71875 375.054688 780.707031 375.054688 C 779.84375 375.054688 779.167969 375.355469 778.53125 376.027344 C 777.21875 377.453125 775.679688 378.128906 774.445312 377.867188 L 773.394531 377.640625 L 773.769531 379.179688 C 774.292969 381.277344 773.957031 381.542969 770.28125 381.839844 C 766.980469 382.140625 765.820312 382.777344 765.820312 384.316406 C 765.820312 385.402344 765.929688 385.402344 767.09375 384.242188 C 768.40625 382.929688 770.730469 382.929688 772.007812 384.242188 C 773.054688 385.253906 773.167969 386.492188 772.457031 388.292969 C 771.855469 389.714844 770.992188 390.464844 769.417969 390.992188 C 768.292969 391.367188 768.257812 391.441406 768.367188 393.390625 L 768.519531 395.417969 L 766.644531 395.152344 C 764.84375 394.929688 764.769531 394.964844 764.957031 395.679688 C 765.070312 396.167969 764.882812 396.878906 764.429688 397.480469 C 763.042969 399.390625 763.117188 399.464844 764.882812 398.152344 C 767.09375 396.464844 767.507812 396.429688 767.132812 398.003906 C 766.605469 400.105469 766.792969 401.640625 767.617188 402.804688 C 768.855469 404.453125 768.632812 404.828125 767.054688 403.742188 C 764.542969 402.054688 762.480469 402.730469 763.007812 405.089844 C 763.382812 406.703125 762.894531 406.929688 759.070312 406.890625 C 755.242188 406.890625 754.042969 406.441406 753.144531 404.679688 C 752.429688 403.214844 750.894531 402.730469 750.105469 403.703125 C 748.867188 405.203125 751.792969 409.066406 755.582031 411.015625 C 757.945312 412.214844 759.929688 413.902344 759.742188 414.503906 C 759.667969 414.730469 759.03125 415.105469 758.320312 415.328125 C 757.195312 415.667969 756.96875 415.964844 756.667969 417.242188 C 756.519531 418.066406 756.292969 418.964844 756.21875 419.191406 C 756.144531 419.492188 755.429688 419.679688 754.382812 419.679688 C 752.46875 419.679688 752.320312 420.015625 753.445312 421.742188 C 754.570312 423.464844 754.382812 424.667969 752.695312 426.617188 C 750.929688 428.640625 750.820312 429.464844 752.242188 430.515625 C 753.070312 431.117188 753.179688 431.378906 752.84375 431.941406 C 752.167969 433.027344 750.667969 432.992188 750.144531 431.867188 C 749.769531 431.042969 749.582031 430.964844 748.90625 431.304688 C 748.230469 431.679688 748.15625 431.941406 748.382812 433.667969 C 748.757812 436.667969 747.257812 439.554688 745.304688 439.554688 C 744.144531 439.554688 744.21875 439.105469 745.757812 437.078125 C 747.40625 434.902344 747.519531 433.855469 745.980469 434.152344 C 745.304688 434.304688 744.40625 434.117188 743.394531 433.589844 C 741.03125 432.390625 741.070312 432.015625 743.46875 432.277344 C 745.269531 432.503906 745.570312 432.429688 745.570312 431.902344 C 745.570312 431.230469 743.507812 429.804688 742.492188 429.804688 C 741.332031 429.804688 740.730469 431.152344 741.144531 432.917969 C 741.707031 435.429688 743.730469 439.589844 745.53125 441.765625 L 747.179688 443.792969 L 746.320312 444.503906 C 745.15625 445.441406 744.519531 445.367188 744.21875 444.203125 C 744.03125 443.492188 743.804688 443.304688 743.242188 443.453125 C 742.042969 443.753906 740.84375 443.078125 739.945312 441.652344 C 739.492188 440.902344 738.855469 440.304688 738.519531 440.304688 C 738.179688 440.304688 736.71875 441.316406 735.332031 442.515625 C 732.820312 444.691406 731.804688 445.253906 729.667969 445.742188 C 729.070312 445.855469 728.167969 446.453125 727.605469 447.089844 C 726.367188 448.480469 726.070312 448.480469 726.070312 446.902344 C 726.070312 445.480469 727.15625 443.902344 728.730469 443.117188 C 729.292969 442.777344 730.007812 442.179688 730.230469 441.730469 C 730.867188 440.527344 729.820312 439.929688 726.96875 439.929688 C 724.117188 439.929688 723.742188 439.554688 723.894531 436.855469 C 724.007812 434.902344 724.042969 434.867188 725.132812 434.902344 C 725.769531 434.902344 728.28125 435.542969 730.757812 436.328125 C 735.632812 437.867188 740.917969 438.578125 740.617188 437.679688 C 740.320312 436.703125 738.59375 435.804688 735.667969 435.054688 C 729.894531 433.589844 725.992188 429.730469 727.945312 427.402344 C 728.46875 426.765625 730.90625 425.828125 732.894531 425.492188 C 734.28125 425.265625 738.144531 422.265625 737.65625 421.742188 C 737.507812 421.628906 735.929688 422.117188 734.09375 422.828125 C 732.292969 423.578125 730.492188 424.179688 730.117188 424.179688 C 729.144531 424.179688 729.292969 423.089844 730.53125 421.140625 C 731.917969 418.929688 733.945312 418.027344 736.792969 418.367188 C 739.53125 418.742188 740.320312 417.917969 740.320312 414.839844 C 740.320312 410.792969 739.230469 409.667969 737.957031 412.402344 C 737.242188 413.828125 736.570312 413.792969 736.570312 412.328125 C 736.570312 411.464844 736.457031 411.390625 735.179688 411.503906 C 733.980469 411.617188 733.757812 411.503906 733.644531 410.792969 C 733.570312 410.304688 733.980469 409.480469 734.695312 408.652344 C 735.480469 407.753906 735.855469 406.964844 735.820312 406.292969 C 735.707031 404.492188 735.78125 404.304688 737.132812 403.515625 C 738.78125 402.542969 740.019531 400.480469 741.070312 396.917969 C 742.15625 393.277344 743.242188 391.703125 744.59375 391.816406 C 745.570312 391.890625 745.644531 391.816406 745.417969 390.691406 C 745.304688 390.015625 745.082031 388.554688 744.96875 387.429688 C 744.742188 385.441406 744.78125 385.328125 745.90625 384.503906 C 746.695312 383.941406 747.070312 383.339844 747.070312 382.628906 C 747.105469 380.941406 748.34375 378.691406 750.179688 377.078125 C 752.617188 374.941406 753.480469 373.253906 753.707031 370.253906 C 754.042969 366.054688 754.644531 365.605469 757.195312 367.742188 C 758.917969 369.167969 760.570312 369.503906 760.570312 368.378906 C 760.570312 367.367188 759.707031 366.355469 757.007812 364.140625 C 755.65625 363.054688 754.570312 362.042969 754.570312 361.929688 C 754.570312 361.777344 755.582031 361.367188 756.78125 361.027344 C 759.59375 360.242188 760.117188 359.679688 759.480469 358.066406 C 758.054688 354.542969 758.320312 353.117188 760.34375 352.703125 C 761.582031 352.480469 761.695312 352.367188 761.695312 351.242188 C 761.695312 349.742188 761.917969 349.554688 765.78125 347.679688 C 768.59375 346.292969 772.195312 343.554688 772.195312 342.730469 C 772.195312 342.578125 771.742188 342.242188 771.21875 342.054688 C 769.90625 341.527344 768.96875 342.128906 768.445312 343.742188 C 767.882812 345.429688 766.007812 347.003906 764.730469 346.855469 C 763.832031 346.742188 763.757812 346.589844 763.792969 345.054688 C 763.792969 342.804688 765.480469 339.203125 766.757812 338.605469 C 767.46875 338.265625 768.257812 338.265625 770.019531 338.605469 C 771.367188 338.867188 772.492188 338.902344 772.679688 338.714844 C 772.867188 338.527344 772.679688 337.328125 772.195312 335.980469 C 771.445312 333.730469 771.332031 333.542969 770.429688 333.730469 C 769.492188 333.917969 769.457031 333.878906 769.71875 332.304688 C 770.019531 330.316406 771.21875 326.867188 772.007812 325.667969 C 772.34375 325.140625 773.167969 324.429688 773.84375 324.015625 C 775.042969 323.304688 775.117188 323.152344 775.269531 320.566406 C 775.382812 318.804688 775.792969 317.042969 776.46875 315.429688 C 778.082031 311.605469 779.320312 307.929688 779.320312 306.953125 C 779.320312 305.566406 779.957031 305.902344 780.742188 307.703125 C 781.679688 309.804688 782.019531 309.992188 783.03125 308.828125 C 783.742188 308.003906 784.117188 307.890625 785.132812 308.042969 C 786.144531 308.191406 786.367188 308.152344 786.179688 307.703125 C 785.882812 306.917969 784.644531 306.355469 783.820312 306.617188 C 782.730469 306.953125 782.320312 305.527344 782.320312 301.628906 C 782.320312 297.992188 782.917969 296.453125 784.195312 296.867188 C 785.355469 297.242188 785.84375 295.742188 785.992188 290.867188 C 786.144531 286.441406 786.144531 286.367188 785.167969 285.316406 C 784.417969 284.492188 784.195312 283.890625 784.195312 282.503906 C 784.195312 280.253906 784.570312 279.691406 785.804688 279.992188 C 787.042969 280.328125 789.292969 279.578125 789.59375 278.792969 C 789.96875 277.855469 789.21875 277.367188 787.457031 277.367188 L 785.882812 277.367188 L 785.769531 275.492188 C 785.617188 273.089844 786.257812 270.953125 787.304688 270.277344 C 787.757812 269.980469 789.21875 269.566406 790.53125 269.339844 C 791.882812 269.117188 793.117188 268.777344 793.269531 268.628906 C 793.71875 268.179688 791.917969 266.078125 790.53125 265.367188 C 789.96875 265.066406 789.070312 264.804688 788.582031 264.804688 C 787.492188 264.804688 786.820312 264.167969 786.820312 263.078125 C 786.820312 261.691406 787.71875 261.277344 789.21875 261.992188 C 789.929688 262.328125 790.792969 262.929688 791.167969 263.339844 C 791.882812 264.128906 793.757812 264.316406 794.167969 263.605469 C 794.320312 263.378906 793.980469 262.816406 793.34375 262.292969 C 792.40625 261.542969 792.257812 261.203125 792.257812 259.480469 C 792.257812 257.714844 792.179688 257.492188 791.320312 257.304688 C 790.457031 257.078125 790.382812 256.890625 790.382812 255.167969 C 790.382812 252.804688 789.667969 251.941406 787.042969 251.078125 C 785.992188 250.742188 784.980469 250.328125 784.832031 250.179688 C 784.644531 250.027344 785.65625 249.503906 787.042969 249.054688 C 790.007812 248.042969 791.65625 246.691406 790.945312 245.828125 C 790.570312 245.417969 789.929688 245.339844 788.09375 245.527344 C 786.070312 245.753906 785.65625 245.679688 785.46875 245.152344 C 785.167969 244.328125 785.957031 243.429688 787.007812 243.429688 C 788.054688 243.429688 789.59375 241.703125 790.230469 239.792969 C 790.757812 238.140625 790.867188 234.464844 790.457031 232.328125 C 790.195312 231.089844 790.269531 230.640625 790.757812 230.152344 C 791.617188 229.292969 791.992188 229.402344 793.457031 230.867188 C 794.695312 232.105469 794.84375 232.140625 795.445312 231.617188 C 795.78125 231.277344 796.382812 230.339844 796.757812 229.515625 C 797.429688 228.054688 797.429688 228.015625 796.679688 227.230469 C 796.230469 226.816406 794.84375 225.917969 793.53125 225.277344 C 790.679688 223.855469 789.855469 222.839844 790.792969 221.867188 C 791.320312 221.339844 791.804688 221.265625 793.304688 221.453125 L 795.144531 221.714844 L 794.882812 219.839844 L 794.617188 217.964844 L 796.007812 217.402344 C 796.980469 216.992188 797.320312 216.617188 797.242188 216.167969 C 797.132812 215.605469 796.71875 215.492188 794.695312 215.492188 C 792.40625 215.492188 792.257812 215.453125 791.917969 214.441406 C 791.429688 213.128906 791.957031 212.152344 793.230469 212.003906 C 795.179688 211.777344 795.855469 211.515625 797.132812 210.355469 C 798.96875 208.777344 799.570312 207.464844 799.570312 205.066406 C 799.570312 202.777344 799.980469 202.214844 802.304688 201.390625 C 803.09375 201.128906 803.957031 200.640625 804.179688 200.339844 C 804.554688 199.890625 804.445312 199.855469 803.320312 200.042969 C 802.605469 200.191406 800.882812 200.679688 799.457031 201.128906 C 797.46875 201.765625 796.832031 201.839844 796.457031 201.464844 C 796.230469 201.242188 795.929688 199.589844 795.78125 197.828125 C 795.59375 194.792969 795.554688 194.640625 794.207031 193.402344 C 793.195312 192.503906 792.820312 191.828125 792.820312 191.042969 C 792.820312 189.917969 793.792969 188.679688 794.617188 188.679688 C 795.070312 188.679688 795.179688 188.265625 795.105469 186.992188 C 795.070312 186.464844 795.667969 186.917969 797.320312 188.605469 C 798.632812 190.027344 799.832031 190.929688 800.167969 190.855469 C 800.507812 190.777344 801.367188 190.027344 802.117188 189.128906 L 803.429688 187.554688 L 801.367188 187.554688 C 799.53125 187.554688 799.269531 187.441406 798.894531 186.617188 C 798.632812 186.089844 797.019531 184.292969 795.257812 182.605469 C 793.492188 180.917969 792.070312 179.304688 792.070312 179.042969 C 792.070312 178.703125 792.632812 178.554688 793.792969 178.554688 C 795.632812 178.554688 796.644531 178.929688 797.992188 180.167969 L 798.820312 180.917969 L 798.820312 179.941406 C 798.820312 179.265625 798.292969 178.402344 797.132812 177.242188 C 795.367188 175.441406 793.71875 172.890625 793.492188 171.617188 C 793.417969 170.980469 793.570312 170.902344 794.542969 170.980469 C 795.707031 171.089844 796.867188 170.152344 798.070312 168.128906 C 798.667969 167.117188 799.195312 168.277344 799.195312 170.605469 C 799.195312 174.089844 799.90625 174.652344 805.757812 175.742188 C 814.605469 177.355469 816.929688 178.890625 819.707031 184.890625 L 821.394531 188.492188 L 822.480469 185.867188 C 824.84375 180.390625 826.117188 173.714844 827.46875 160.179688 C 828.070312 154.214844 828.21875 151.214844 827.957031 150.878906 C 827.769531 150.617188 826.644531 150.167969 825.480469 149.828125 C 824.320312 149.492188 822.929688 148.929688 822.367188 148.515625 L 821.320312 147.765625 L 821.320312 153.203125 L 820.570312 152.378906 C 819.632812 151.367188 818.992188 151.328125 818.207031 152.230469 C 817.117188 153.429688 817.417969 154.703125 819.292969 156.765625 C 821.957031 159.730469 821.695312 159.953125 815.84375 160.179688 C 810.820312 160.367188 809.507812 160.742188 809.957031 161.902344 C 810.105469 162.316406 810.554688 162.390625 811.71875 162.242188 C 813.78125 161.941406 814.757812 162.839844 815.320312 165.652344 C 815.84375 168.167969 815.542969 170.078125 814.492188 171.128906 C 813.855469 171.765625 813.480469 171.839844 812.054688 171.617188 C 810.40625 171.390625 810.332031 171.429688 808.71875 173.078125 C 807.820312 174.015625 807.03125 174.652344 806.917969 174.464844 C 806.617188 174.015625 807.40625 169.667969 808.230469 167.230469 C 808.605469 166.066406 808.945312 164.980469 808.945312 164.867188 C 808.945312 164.753906 808.417969 164.679688 807.820312 164.679688 C 806.355469 164.679688 804.667969 165.542969 802.832031 167.152344 C 802.082031 167.867188 801.292969 168.429688 801.105469 168.429688 C 800.507812 168.429688 799.90625 167.378906 799.679688 166.027344 C 799.492188 164.828125 799.570312 164.679688 800.28125 164.679688 C 801.59375 164.679688 801.179688 163.027344 799.832031 162.878906 C 798.257812 162.691406 797.695312 161.152344 797.28125 155.867188 C 796.945312 151.816406 795.96875 146.792969 795.855469 148.628906 C 795.820312 149.527344 795.257812 149.492188 794.320312 148.554688 C 792.855469 147.089844 793.832031 145.179688 796.042969 145.179688 C 796.945312 145.179688 800.09375 143.453125 801.367188 142.253906 C 802.117188 141.542969 802.570312 140.753906 802.570312 140.152344 C 802.570312 139.066406 803.507812 138.429688 805.082031 138.429688 C 806.730469 138.429688 807.820312 137.453125 807.820312 136.027344 C 807.820312 133.964844 806.992188 134.042969 802.382812 136.367188 C 800.132812 137.492188 797.882812 138.429688 797.429688 138.429688 C 795.257812 138.429688 797.542969 134.152344 800.28125 133.027344 C 801.144531 132.691406 802.867188 132.429688 804.179688 132.390625 C 807.632812 132.390625 809.019531 131.792969 809.429688 130.179688 C 809.84375 128.605469 810.292969 128.265625 811.457031 128.714844 C 812.28125 129.015625 812.242188 128.980469 811.195312 127.480469 C 809.957031 125.753906 809.769531 124.402344 810.667969 123.128906 C 811.644531 121.703125 812.695312 121.367188 816.257812 121.367188 C 819.519531 121.367188 819.632812 121.328125 820.082031 120.355469 C 820.71875 119.117188 822.03125 118.777344 825.21875 119.117188 C 828.03125 119.417969 829.832031 120.390625 830.132812 121.742188 C 830.242188 122.265625 830.394531 123.089844 830.507812 123.542969 C 830.992188 125.980469 833.917969 127.589844 836.28125 126.765625 C 837.59375 126.316406 838.195312 125.453125 838.195312 124.066406 C 838.195312 122.941406 837.480469 122.605469 835.980469 123.054688 C 835.195312 123.277344 834.667969 123.203125 834.179688 122.867188 C 833.542969 122.378906 833.542969 122.304688 834.40625 121.402344 C 834.96875 120.804688 836.355469 120.089844 837.78125 119.679688 C 841.492188 118.554688 841.945312 118.253906 841.945312 116.867188 L 841.945312 115.667969 L 844.792969 115.214844 C 848.132812 114.652344 849.519531 115.027344 850.417969 116.714844 C 850.71875 117.316406 851.09375 117.804688 851.242188 117.804688 C 851.84375 117.804688 853.90625 115.328125 854.46875 113.980469 C 854.804688 113.191406 855.070312 112.066406 855.070312 111.429688 C 855.070312 110.714844 855.257812 110.304688 855.59375 110.304688 C 856.644531 110.304688 860.320312 115.890625 860.320312 117.464844 C 860.320312 118.328125 860.804688 118.367188 861.59375 117.578125 C 862.382812 116.828125 862.34375 116.679688 861.257812 115.179688 C 860.132812 113.679688 860.09375 112.890625 860.992188 112.066406 C 862.007812 111.167969 863.28125 111.277344 864.332031 112.402344 C 865.117188 113.265625 865.417969 113.339844 866.882812 113.152344 C 868.832031 112.855469 870.480469 113.453125 872.394531 115.140625 C 873.96875 116.492188 874.492188 116.566406 875.804688 115.554688 C 877.195312 114.464844 877.792969 114.617188 879.070312 116.378906 C 881.054688 119.191406 881.65625 119.679688 882.742188 119.453125 C 884.730469 119.042969 887.242188 122.265625 886.757812 124.554688 C 886.457031 125.941406 886.832031 127.179688 887.507812 127.179688 C 887.804688 127.179688 888.144531 126.730469 888.257812 126.128906 C 889.042969 122.304688 889.867188 121.179688 891.820312 121.179688 C 893.167969 121.179688 895.382812 122.792969 895.945312 124.179688 C 896.355469 125.191406 896.355469 125.453125 895.792969 125.980469 C 895.230469 126.542969 895.117188 126.542969 894.820312 126.054688 C 894.632812 125.753906 894.445312 125.230469 894.445312 124.890625 C 894.445312 124.554688 893.957031 124.066406 893.320312 123.804688 C 892.382812 123.429688 892.042969 123.429688 891.257812 123.953125 C 889.867188 124.855469 890.132812 125.714844 891.96875 126.429688 C 892.757812 126.691406 892.980469 126.992188 892.832031 127.515625 C 892.570312 128.527344 893.617188 129.953125 896.167969 131.980469 C 898.679688 134.003906 899.019531 134.980469 897.855469 136.589844 C 897.40625 137.152344 897.070312 137.714844 897.070312 137.828125 C 897.070312 137.902344 897.667969 138.203125 898.417969 138.429688 C 900.40625 139.105469 905.429688 144.089844 905.242188 145.253906 C 905.132812 146.152344 904.980469 146.191406 902.394531 145.667969 C 901.230469 145.480469 901.117188 145.515625 901.269531 146.339844 C 901.34375 147.054688 901.679688 147.277344 902.84375 147.464844 C 904.757812 147.765625 905.355469 148.589844 904.90625 150.167969 C 904.605469 151.214844 904.679688 151.441406 905.394531 152.003906 C 905.882812 152.378906 906.554688 152.980469 906.929688 153.316406 C 907.53125 153.917969 907.570312 153.917969 907.382812 153.355469 C 907.230469 153.015625 907.34375 152.339844 907.605469 151.890625 L 908.054688 151.027344 L 908.917969 152.042969 C 910.792969 154.253906 910.382812 159.242188 908.320312 159.242188 C 907.492188 159.242188 907.382812 159.390625 907.382812 160.554688 C 907.382812 161.714844 907.492188 161.867188 908.394531 161.867188 C 908.957031 161.867188 909.59375 162.054688 909.820312 162.277344 C 910.457031 162.917969 909.667969 164.230469 908.507812 164.527344 C 907.34375 164.828125 907.34375 164.828125 908.507812 166.328125 C 909.632812 167.828125 909.707031 169.441406 908.695312 171.429688 C 907.195312 174.390625 906.855469 173.566406 907.792969 169.214844 C 908.132812 167.527344 907.492188 167.902344 906.03125 170.230469 C 904.792969 172.179688 904.679688 173.152344 905.542969 174.089844 C 906.179688 174.804688 907.15625 177.242188 907.15625 178.179688 C 907.195312 178.480469 907.007812 179.003906 906.820312 179.304688 C 906.480469 179.753906 906.257812 179.640625 905.320312 178.554688 L 904.230469 177.242188 L 904.757812 179.304688 C 905.542969 182.265625 905.507812 182.453125 904.195312 182.152344 C 903.144531 181.964844 903.070312 182.003906 903.292969 182.867188 C 903.742188 184.742188 903.179688 185.679688 900.96875 186.652344 C 899.617188 187.253906 898.679688 187.964844 898.269531 188.679688 C 897.929688 189.277344 897.40625 189.804688 897.144531 189.804688 C 896.882812 189.804688 895.644531 188.714844 894.367188 187.367188 C 893.09375 186.015625 891.855469 184.929688 891.632812 184.929688 C 890.84375 184.929688 889.867188 186.355469 890.019531 187.253906 C 890.09375 187.777344 890.582031 188.339844 891.332031 188.679688 C 893.582031 189.765625 894.445312 190.777344 894.445312 192.429688 C 894.445312 194.902344 892.570312 196.179688 888.929688 196.179688 C 887.582031 196.179688 885.820312 197.527344 885.820312 198.617188 C 885.820312 199.027344 886.195312 198.917969 887.394531 198.054688 C 890.167969 196.027344 891.40625 196.964844 889.007812 199.292969 C 887.355469 200.902344 885.332031 201.992188 884.542969 201.691406 C 884.09375 201.503906 883.945312 200.980469 883.945312 199.628906 C 883.945312 198.652344 883.71875 197.492188 883.417969 197.117188 C 882.929688 196.441406 882.894531 196.441406 882.480469 197.230469 C 882.21875 197.714844 881.882812 199.515625 881.65625 201.316406 C 881.054688 206.753906 879.707031 208.703125 877.042969 208.027344 C 875.804688 207.730469 875.429688 208.328125 875.019531 211.515625 C 874.71875 213.503906 874.382812 214.515625 873.742188 215.191406 C 872.617188 216.390625 873.03125 217.027344 876.105469 218.605469 C 878.542969 219.878906 880.34375 220.066406 882.257812 219.242188 C 883.007812 218.902344 883.007812 218.902344 882.292969 219.992188 C 880.832031 222.203125 880.570312 223.027344 880.570312 225.355469 C 880.570312 228.277344 881.28125 230.078125 882.78125 230.828125 C 885.105469 232.027344 884.542969 233.828125 881.507812 234.953125 L 880.007812 235.515625 L 881.355469 235.515625 C 882.144531 235.554688 883.117188 235.855469 883.605469 236.304688 C 884.507812 237.054688 884.507812 237.054688 883.757812 237.652344 C 883.15625 238.105469 882.480469 238.179688 880.230469 237.992188 L 877.457031 237.730469 L 879.070312 239.265625 C 880.417969 240.542969 880.605469 240.917969 880.417969 241.777344 C 880.15625 242.792969 880.980469 244.179688 881.804688 244.179688 C 882.742188 244.179688 885.519531 245.828125 885.78125 246.578125 C 885.96875 247.066406 886.417969 247.367188 886.980469 247.367188 C 887.769531 247.367188 887.882812 247.515625 887.730469 248.679688 C 887.65625 249.390625 887.582031 250.480469 887.542969 251.117188 L 887.507812 252.242188 L 890.132812 252.128906 C 892.382812 252.015625 892.90625 252.089844 893.804688 252.804688 C 894.367188 253.253906 894.820312 253.890625 894.820312 254.191406 C 894.820312 254.714844 894.179688 254.753906 889.195312 254.527344 C 886.117188 254.378906 883.570312 254.378906 883.570312 254.566406 C 883.570312 254.714844 883.980469 255.316406 884.507812 255.878906 C 885.59375 257.078125 887.167969 257.605469 887.804688 256.964844 C 888.667969 256.105469 889.945312 256.589844 892.230469 258.617188 C 894.257812 260.417969 896.019531 261.277344 897.257812 261.054688 C 898.792969 260.753906 900.070312 261.730469 900.070312 263.191406 C 900.070312 264.089844 899.992188 264.128906 898.679688 263.941406 C 896.882812 263.640625 894.59375 264.617188 893.207031 266.265625 C 891.78125 267.992188 891.894531 268.554688 893.617188 268.554688 C 895.15625 268.554688 895.570312 268.328125 896.167969 267.242188 C 896.507812 266.605469 896.992188 266.492188 898.867188 266.492188 C 900.707031 266.492188 901.34375 266.339844 901.980469 265.667969 C 903.179688 264.503906 903.070312 262.214844 901.757812 260.492188 C 900.59375 258.953125 900.667969 258.652344 902.09375 259.027344 C 903.632812 259.402344 904.945312 261.242188 904.945312 262.964844 C 904.945312 265.816406 902.992188 268.554688 900.96875 268.554688 C 899.804688 268.554688 898.945312 269.527344 898.945312 270.804688 C 898.945312 272.605469 897.59375 273.203125 893.242188 273.355469 C 891.144531 273.464844 889.570312 273.355469 889.570312 273.167969 C 889.570312 272.980469 890.28125 272.453125 891.179688 272.042969 L 892.757812 271.214844 L 890.882812 271.214844 C 888.742188 271.179688 887.320312 271.929688 887.320312 273.089844 C 887.320312 274.367188 886.605469 275.304688 885.632812 275.304688 C 884.65625 275.304688 883.945312 274.367188 883.945312 273.128906 C 883.945312 272.230469 882.929688 271.292969 881.617188 271.027344 C 881.019531 270.917969 880.15625 270.730469 879.667969 270.617188 C 878.582031 270.390625 878.054688 269.152344 877.792969 266.152344 C 877.570312 263.265625 876.96875 262.515625 872.917969 259.742188 C 869.09375 257.152344 867.820312 255.542969 867.820312 253.402344 C 867.820312 252.089844 868.042969 251.679688 869.695312 250.140625 L 871.570312 248.378906 L 868.117188 249.464844 C 864.894531 250.441406 863.429688 250.589844 864.929688 249.765625 C 865.304688 249.542969 865.570312 248.941406 865.570312 248.304688 C 865.570312 247.328125 865.382812 247.179688 863.507812 246.617188 C 861.894531 246.167969 861.40625 245.828125 861.21875 245.117188 C 860.992188 244.214844 859.492188 243.429688 858.03125 243.429688 C 857.28125 243.429688 857.207031 243.167969 857.320312 241.515625 C 857.355469 240.765625 857.019531 240.242188 856.042969 239.492188 C 854.429688 238.292969 851.320312 237.054688 849.820312 237.054688 C 848.804688 237.054688 848.695312 237.128906 848.917969 237.992188 C 849.21875 239.152344 849.03125 239.152344 847.195312 237.953125 C 845.992188 237.167969 845.394531 237.015625 844.34375 237.167969 C 843.179688 237.355469 843.03125 237.316406 843.257812 236.753906 C 843.40625 236.417969 843.632812 235.328125 843.707031 234.355469 C 843.894531 232.855469 843.78125 232.480469 842.917969 231.652344 C 842.167969 230.867188 841.757812 230.714844 840.96875 230.902344 C 839.84375 231.203125 839.882812 231.015625 841.417969 228.917969 C 841.90625 228.277344 842.320312 227.640625 842.320312 227.527344 C 842.320312 227.417969 841.269531 227.417969 840.03125 227.566406 L 837.707031 227.792969 L 837.96875 225.878906 C 838.304688 223.328125 837.78125 223.328125 835.007812 225.839844 C 832.417969 228.203125 832.382812 229.066406 834.78125 229.855469 C 837.03125 230.605469 840.445312 234.203125 844.570312 240.242188 C 848.054688 245.339844 850.417969 248.304688 850.980469 248.304688 C 851.695312 248.304688 851.242188 246.765625 849.820312 244.027344 C 848.242188 241.027344 848.355469 240.617188 850.304688 242.078125 C 852.78125 243.878906 853.679688 243.429688 851.992188 241.179688 C 851.019531 239.828125 851.429688 239.191406 853.042969 239.378906 C 853.945312 239.453125 854.132812 239.640625 854.132812 240.542969 C 854.09375 241.253906 854.242188 241.515625 854.582031 241.367188 C 854.84375 241.253906 855.332031 241.066406 855.632812 240.953125 C 856.605469 240.578125 856.269531 241.328125 854.507812 243.578125 C 852.820312 245.792969 852.519531 246.429688 853.195312 246.429688 C 853.792969 246.429688 853.644531 246.992188 852.445312 248.714844 C 851.019531 250.855469 851.019531 251.980469 852.632812 255.015625 C 854.429688 258.429688 856.042969 260.304688 857.167969 260.304688 C 857.917969 260.304688 858.070312 260.492188 858.070312 261.429688 C 858.070312 263.714844 863.320312 276.015625 868.269531 285.429688 C 871.34375 291.242188 872.730469 293.304688 873.554688 293.304688 C 875.582031 293.304688 887.992188 285.617188 897.257812 278.679688 C 903.03125 274.328125 906.21875 271.367188 905.917969 270.617188 C 905.617188 269.828125 906.179688 269.640625 907.570312 270.054688 C 908.992188 270.464844 909.820312 270.015625 909.820312 268.890625 C 909.820312 267.464844 900.367188 249.578125 893.65625 238.367188 C 889.980469 232.179688 888.59375 230.304688 887.769531 230.304688 C 887.394531 230.304688 886.679688 229.855469 886.15625 229.328125 C 885.179688 228.242188 885.070312 228.242188 887.65625 229.027344 C 888.445312 229.253906 888.519531 229.214844 888.257812 228.390625 C 888.105469 227.902344 887.054688 225.804688 885.894531 223.742188 C 882.96875 218.527344 880.90625 214.480469 881.019531 214.179688 C 881.09375 214.027344 883.195312 212.378906 885.707031 210.503906 C 891.03125 206.492188 892.71875 204.503906 892.382812 202.628906 L 892.15625 201.390625 L 893.507812 201.652344 C 894.820312 201.878906 894.96875 201.804688 896.992188 199.703125 C 904.644531 191.753906 912.445312 168.691406 912.480469 154.179688 C 912.480469 145.179688 909.59375 133.628906 905.207031 125.152344 C 903.257812 121.367188 901.53125 119.492188 900.519531 120.015625 C 899.617188 120.503906 899.28125 120.167969 899.542969 119.078125 C 900.03125 117.203125 894.21875 112.441406 887.09375 108.878906 C 879.78125 105.203125 874.867188 104.304688 861.257812 104.117188 C 856.117188 104.078125 851.132812 104.078125 850.195312 104.152344 Z M 883.792969 108.878906 C 883.304688 110.492188 883.382812 110.828125 884.320312 111.054688 C 885.59375 111.355469 885.519531 112.328125 884.207031 112.480469 C 882.105469 112.742188 880.90625 110.304688 882.332031 108.730469 C 883.230469 107.753906 884.09375 107.828125 883.792969 108.878906 Z M 808.195312 125.152344 C 808.195312 126.015625 807.480469 127.554688 807.070312 127.554688 C 806.65625 127.554688 806.542969 124.066406 806.957031 123.652344 C 807.292969 123.355469 808.195312 124.480469 808.195312 125.152344 Z M 801.632812 127.179688 C 801.632812 127.480469 801.21875 127.777344 800.730469 127.855469 C 799.417969 128.042969 798.070312 127.589844 798.070312 126.953125 C 798.070312 126.503906 798.445312 126.429688 799.867188 126.503906 C 801.144531 126.578125 801.632812 126.765625 801.632812 127.179688 Z M 906.59375 130.027344 C 907.304688 130.703125 907.304688 130.628906 906.820312 131.828125 C 906.59375 132.464844 906.257812 132.730469 905.917969 132.578125 C 905.132812 132.277344 904.117188 130.589844 904.34375 129.953125 C 904.605469 129.242188 905.882812 129.277344 906.59375 130.027344 Z M 902.917969 133.328125 C 903.632812 134.453125 903.480469 135.765625 902.582031 136.328125 C 901.71875 136.855469 901.195312 136.105469 901.195312 134.265625 C 901.195312 132.203125 901.90625 131.828125 902.917969 133.328125 Z M 909.367188 141.503906 C 909.929688 142.214844 910.269531 145.214844 909.894531 146.492188 C 909.480469 147.953125 908.429688 148.179688 907.945312 146.867188 C 907.53125 145.777344 907.457031 142.589844 907.792969 141.652344 C 908.054688 140.941406 908.84375 140.867188 909.367188 141.503906 Z M 795.707031 162.128906 C 795.367188 165.839844 793.195312 168.277344 792.179688 166.066406 C 791.730469 165.089844 791.917969 164.566406 792.929688 164.191406 C 793.71875 163.890625 794.207031 162.765625 794.507812 160.367188 C 794.769531 158.605469 794.804688 158.566406 795.332031 159.242188 C 795.742188 159.804688 795.820312 160.589844 795.707031 162.128906 Z M 788.355469 232.066406 C 788.730469 233.117188 787.757812 234.503906 786.707031 234.355469 C 785.582031 234.203125 785.507812 233.265625 786.480469 232.027344 C 787.382812 230.902344 787.90625 230.902344 788.355469 232.066406 Z M 859.34375 245.527344 C 859.71875 246.503906 859.605469 247.742188 859.042969 248.492188 C 858.59375 249.089844 858.445312 249.128906 857.917969 248.714844 C 857.132812 248.078125 857.132812 246.503906 857.957031 245.605469 C 858.707031 244.777344 859.042969 244.742188 859.34375 245.527344 Z M 821.355469 261.015625 C 822.105469 261.617188 822.179688 261.878906 821.84375 262.441406 C 821.242188 263.453125 820.269531 263.417969 817.417969 262.214844 C 813.78125 260.753906 813.820312 260.304688 817.492188 260.304688 C 819.894531 260.304688 820.644531 260.453125 821.355469 261.015625 Z M 889.792969 276.503906 C 889.570312 277.589844 889.71875 277.855469 890.769531 278.753906 C 891.820312 279.578125 891.929688 279.878906 891.59375 280.441406 C 890.917969 281.566406 889.53125 281.265625 888.554688 279.839844 C 887.542969 278.339844 887.46875 276.953125 888.332031 275.980469 C 889.34375 274.855469 890.09375 275.117188 889.792969 276.503906 Z M 882.445312 278.714844 C 882.445312 279.542969 881.617188 280.554688 880.570312 281.117188 C 877.867188 282.503906 877.457031 281.078125 880.082031 279.429688 C 881.957031 278.230469 882.445312 278.078125 882.445312 278.714844 Z M 885.894531 279.316406 C 887.46875 280.742188 886.230469 282.804688 883.792969 282.804688 C 882.367188 282.765625 882.292969 282.730469 883.007812 282.242188 C 884.617188 281.078125 884.769531 280.816406 884.542969 279.765625 C 884.320312 278.527344 884.84375 278.339844 885.894531 279.316406 Z M 796.082031 324.617188 C 797.582031 325.253906 798.820312 326.230469 798.820312 326.753906 C 798.820312 327.203125 794.992188 327.128906 793.605469 326.640625 C 792.367188 326.230469 791.507812 325.066406 791.882812 324.429688 C 792.21875 323.867188 794.542969 323.980469 796.082031 324.617188 Z M 789.820312 357.429688 C 789.820312 358.179688 788.09375 360.429688 787.53125 360.429688 C 787.007812 360.429688 787.117188 359.378906 787.792969 358.066406 C 788.769531 356.191406 789.820312 355.855469 789.820312 357.429688 Z M 757.230469 407.679688 C 757.679688 407.941406 757.945312 408.464844 757.945312 409.179688 C 757.945312 410.042969 757.757812 410.339844 757.007812 410.527344 C 756.445312 410.679688 755.804688 410.566406 755.507812 410.304688 C 754.757812 409.667969 754.792969 408.167969 755.617188 407.714844 C 756.40625 407.230469 756.367188 407.230469 757.230469 407.679688 Z M 743.09375 446.492188 C 744.21875 447.542969 744.445312 448.777344 743.429688 448.367188 C 741.707031 447.652344 741.554688 447.730469 741.292969 449.042969 C 740.992188 450.617188 738.105469 453.503906 735.707031 454.554688 C 732.632812 455.980469 729.480469 455.152344 729.445312 452.980469 C 729.445312 451.890625 731.167969 451.105469 734.355469 450.765625 C 736.007812 450.617188 737.617188 450.277344 737.917969 450.015625 C 738.21875 449.792969 738.445312 448.929688 738.445312 448.140625 C 738.445312 447.355469 738.707031 446.453125 739.042969 446.152344 C 739.945312 445.253906 741.929688 445.402344 743.09375 446.492188 Z M 725.355469 450.429688 C 725.917969 450.730469 726.070312 451.253906 726.070312 452.714844 C 726.070312 454.214844 726.257812 454.742188 727.007812 455.453125 C 728.28125 456.652344 730.980469 457.402344 731.992188 456.839844 C 733.042969 456.277344 733.417969 456.316406 734.09375 457.027344 C 734.882812 457.777344 734.882812 460.628906 734.09375 462.277344 C 733.492188 463.554688 731.804688 465.054688 730.980469 465.054688 C 730.34375 465.054688 730.492188 463.328125 731.167969 462.652344 C 731.46875 462.316406 732.070312 462.054688 732.445312 462.054688 C 734.695312 462.054688 732.894531 459.730469 729.929688 458.792969 C 727.417969 458.003906 725.542969 456.464844 724.417969 454.214844 C 723.929688 453.277344 723.070312 452.078125 722.542969 451.589844 C 722.019531 451.105469 721.679688 450.542969 721.792969 450.390625 C 722.054688 449.941406 724.457031 449.980469 725.355469 450.429688 Z M 742.570312 453.617188 C 742.570312 454.589844 739.945312 457.179688 738.96875 457.179688 C 737.242188 457.179688 738.070312 455.492188 740.507812 453.992188 C 742.269531 452.902344 742.570312 452.867188 742.570312 453.617188 Z M 729.367188 464.867188 C 730.269531 466.816406 729.707031 468.054688 727.945312 468.054688 C 726.03125 468.054688 725.542969 466.589844 726.855469 464.902344 C 727.832031 463.667969 728.804688 463.667969 729.367188 464.867188 Z M 734.320312 467.792969 C 734.28125 469.140625 732.667969 471.464844 730.945312 472.667969 C 730.082031 473.265625 730.007812 473.566406 730.007812 476.117188 C 730.007812 478.667969 729.929688 478.964844 728.917969 480.015625 C 728.28125 480.652344 727.605469 481.179688 727.34375 481.179688 C 726.632812 481.179688 726.292969 478.816406 726.554688 475.441406 C 726.820312 472.292969 727.53125 470.605469 728.617188 470.714844 C 730.117188 470.867188 730.605469 470.605469 731.320312 469.214844 C 732.070312 467.679688 733.457031 466.441406 734.019531 466.777344 C 734.167969 466.890625 734.320312 467.339844 734.320312 467.792969 Z M 734.320312 467.792969 " fill-opacity="1" fill-rule="nonzero"/></g><g clip-path="url(#f04b77f01a)"><path fill="#6a2186" d="M 222.257812 269.941406 C 222.105469 276.917969 222.070312 396.277344 222.179688 535.179688 L 222.367188 787.742188 L 224.84375 796.742188 C 230.394531 816.839844 236.429688 831.953125 245.054688 847.367188 C 251.507812 858.839844 261.03125 872.230469 269.394531 881.453125 C 286.792969 900.691406 300.929688 911.265625 324.894531 922.929688 C 344.917969 932.640625 363.929688 938.230469 386.769531 941.003906 C 395.957031 942.089844 417.03125 942.203125 425.882812 941.191406 C 449.429688 938.453125 469.117188 932.714844 488.882812 922.855469 C 506.695312 913.929688 522.40625 902.152344 538.382812 885.765625 C 568.082031 855.242188 585.332031 817.816406 589.644531 774.617188 C 590.355469 767.230469 590.242188 748.328125 589.417969 740.679688 C 584.167969 691.890625 561.667969 649.066406 524.730469 617.527344 C 512.242188 606.839844 499.832031 598.628906 485.695312 591.652344 C 469.570312 583.703125 449.84375 577.480469 434.617188 575.492188 C 426.855469 574.515625 412.945312 574.066406 397.382812 574.328125 C 378.179688 574.628906 375.21875 575.003906 361.34375 578.714844 C 347.207031 582.464844 335.507812 586.855469 323.132812 592.929688 C 304.53125 602.078125 292.945312 610.816406 274.382812 629.714844 C 262.867188 641.453125 257.054688 648.503906 250.945312 658.214844 C 245.882812 666.277344 242.429688 673.441406 230.730469 700.105469 L 229.382812 703.253906 L 229.269531 695.980469 C 229.15625 687.691406 229.605469 683.714844 231.632812 675.503906 C 236.242188 656.679688 245.617188 635.527344 257.542969 616.890625 L 261.070312 611.417969 L 261.070312 265.328125 L 253.117188 264.277344 C 238.71875 262.367188 232.117188 260.980469 226.082031 258.617188 C 224.28125 257.902344 222.742188 257.304688 222.667969 257.304688 C 222.59375 257.304688 222.40625 263.003906 222.257812 269.941406 Z M 409.417969 613.179688 C 422.882812 613.929688 435.40625 615.429688 441.144531 616.929688 C 442.644531 617.304688 446.320312 618.429688 449.320312 619.402344 C 481.007812 629.566406 505.90625 647.566406 524.28125 673.480469 C 537.929688 692.792969 548.46875 721.855469 550.980469 747.203125 C 551.542969 752.902344 551.207031 768.503906 550.417969 774.429688 C 547.53125 795.542969 540.632812 815.078125 529.71875 833.117188 C 523.269531 843.730469 516.179688 852.804688 506.207031 863.117188 L 500.429688 869.117188 L 500.167969 850.179688 C 500.054688 839.753906 499.757812 807.953125 499.570312 779.492188 C 498.894531 691.253906 498.40625 675.953125 495.820312 668.453125 C 494.695312 665.265625 493.570312 663.578125 490.230469 660.167969 C 485.730469 655.515625 481.15625 652.855469 475.007812 651.277344 C 470.957031 650.265625 463.605469 649.480469 459.445312 649.628906 C 454.570312 649.855469 452.132812 650.867188 449.507812 653.753906 C 445.382812 658.328125 442.605469 664.402344 423.929688 709.554688 C 404.695312 756.054688 405.179688 755.003906 403.679688 755.230469 C 403.007812 755.339844 402.742188 754.929688 401.769531 752.417969 C 400.417969 748.929688 398.84375 743.304688 395.542969 730.742188 C 388.679688 704.378906 379.757812 675.390625 375.519531 665.679688 L 373.644531 661.367188 L 371.242188 661.441406 C 345.40625 662.492188 345.070312 662.492188 324.929688 661.480469 C 319.90625 661.253906 315.820312 660.953125 315.820312 660.839844 C 315.855469 660.355469 321.820312 657.054688 324.070312 656.304688 C 326.167969 655.589844 327.667969 655.441406 334.945312 655.214844 C 340.757812 655.027344 343.644531 654.804688 344.28125 654.464844 C 345.40625 653.828125 347.542969 654.390625 349.117188 655.742188 C 350.804688 657.167969 351.820312 657.429688 353.132812 656.753906 C 354.292969 656.191406 358.007812 656.265625 364.195312 657.015625 C 365.730469 657.203125 367.042969 657.316406 367.117188 657.242188 C 367.382812 657.015625 362.394531 654.355469 360.480469 653.679688 C 357.40625 652.667969 351.742188 652.179688 342.667969 652.179688 C 332.320312 652.179688 319.304688 652.816406 318.105469 653.417969 C 315.257812 654.804688 314.769531 657.542969 314.320312 675.054688 C 313.945312 689.902344 313.304688 704.640625 312.070312 726.242188 C 308.65625 786.804688 306.820312 827.941406 306.820312 843.765625 C 306.820312 852.652344 306.332031 858.128906 305.46875 859.441406 C 304.117188 861.578125 301.417969 859.816406 295.792969 853.179688 C 281.730469 836.605469 269.394531 812.417969 264.070312 790.929688 C 257.804688 765.839844 258.96875 739.066406 267.445312 713.304688 C 281.132812 671.527344 311.507812 639.128906 352.007812 623.117188 C 363.070312 618.730469 381.332031 613.742188 388.757812 613.066406 C 392.09375 612.765625 403.117188 612.839844 409.417969 613.179688 Z M 460.34375 651.878906 C 460.679688 652.328125 460.945312 653.304688 460.945312 654.054688 C 460.945312 656.042969 461.804688 657.054688 463.492188 657.054688 C 464.804688 657.054688 465.707031 657.390625 467.617188 658.589844 C 468.367188 659.042969 468.519531 659.042969 468.820312 658.554688 C 469.007812 658.253906 469.195312 657.167969 469.195312 656.191406 C 469.195312 651.542969 471.96875 650.867188 475.570312 654.578125 C 476.695312 655.777344 476.804688 656.042969 476.394531 656.679688 C 476.019531 657.316406 476.132812 657.542969 477.257812 658.402344 C 479.28125 659.941406 479.019531 660.652344 476.207031 661.140625 C 472.417969 661.816406 460.417969 662.417969 455.507812 662.191406 C 451.34375 662.003906 446.167969 660.992188 446.394531 660.429688 C 446.65625 659.867188 452.84375 654.429688 453.257812 654.429688 C 453.554688 654.429688 453.632812 654.765625 453.519531 655.367188 C 453.40625 656.003906 453.554688 656.378906 453.96875 656.527344 C 454.945312 656.902344 456.445312 655.628906 457.269531 653.753906 C 458.542969 650.792969 459.292969 650.339844 460.34375 651.878906 Z M 472.195312 703.179688 C 472.757812 704.265625 472.304688 705.578125 471.519531 705.203125 C 470.394531 704.753906 469.457031 704.980469 466.71875 706.367188 C 463.492188 708.015625 461.507812 708.355469 459.894531 707.527344 C 459.03125 707.078125 458.695312 706.628906 458.695312 705.953125 C 458.695312 704.566406 461.054688 703.667969 466.269531 703.027344 C 472.007812 702.355469 471.742188 702.316406 472.195312 703.179688 Z M 406.945312 764.527344 C 406.945312 767.640625 405.742188 769.480469 404.429688 768.355469 C 403.570312 767.640625 403.90625 762.542969 404.882812 761.828125 C 406.042969 760.964844 406.945312 762.089844 406.945312 764.527344 Z M 426.480469 773.265625 C 427.304688 774.128906 427.570312 774.730469 427.570312 775.890625 C 427.570312 777.652344 427.007812 778.105469 424.230469 778.441406 C 422.582031 778.628906 422.28125 778.554688 421.417969 777.691406 C 420.367188 776.640625 420.179688 775.589844 420.855469 774.316406 C 422.054688 771.953125 424.679688 771.503906 426.480469 773.265625 Z M 406.832031 774.242188 C 407.132812 775.027344 405.894531 776.304688 404.804688 776.304688 C 404.167969 776.304688 403.945312 776.078125 403.945312 775.441406 C 403.945312 774.953125 404.132812 774.390625 404.394531 774.128906 C 405.03125 773.492188 406.570312 773.566406 406.832031 774.242188 Z M 409.382812 778.703125 C 410.882812 779.792969 409.832031 783.542969 407.882812 784.027344 C 405.40625 784.667969 403.867188 782.980469 404.84375 780.652344 C 405.742188 778.480469 407.84375 777.578125 409.382812 778.703125 Z M 407.617188 795.277344 C 410.695312 799.929688 412.269531 806.152344 410.617188 807.203125 C 409.605469 807.839844 408.820312 806.753906 408.445312 804.167969 C 408.070312 801.355469 407.617188 800.527344 405.554688 798.578125 C 404.054688 797.191406 403.945312 796.929688 403.945312 795.203125 C 403.945312 791.792969 405.292969 791.828125 407.617188 795.277344 Z M 418.605469 794.378906 C 419.320312 797.042969 418.90625 802.777344 417.855469 804.878906 C 416.28125 807.992188 417.707031 808.816406 420.480469 806.378906 C 423.105469 804.054688 424.945312 803.453125 425.992188 804.503906 C 426.742188 805.253906 426.519531 807.578125 425.582031 808.964844 C 423.78125 811.667969 420.519531 812.191406 416.957031 810.429688 C 414.332031 809.117188 413.917969 808.253906 414.179688 804.839844 C 414.445312 801.730469 415.605469 796.179688 416.46875 794.117188 C 417.21875 792.316406 418.082031 792.429688 418.605469 794.378906 Z M 442.605469 802.816406 C 443.992188 804.464844 443.207031 820.292969 439.90625 857.867188 C 438.21875 876.992188 439.34375 878.304688 457.457031 878.304688 C 461.542969 878.304688 468.257812 878.492188 472.382812 878.679688 C 483.480469 879.203125 484.269531 879.464844 481.980469 881.828125 C 478.457031 885.464844 461.769531 892.703125 446.054688 897.390625 C 434.28125 900.953125 427.492188 901.890625 411.445312 902.191406 C 391.007812 902.566406 379.007812 901.253906 364.867188 897.054688 C 349.90625 892.589844 336.332031 886.703125 330.332031 882.015625 C 327.554688 879.839844 326.917969 879.054688 327.929688 879.054688 C 328.15625 879.054688 330.332031 878.714844 332.695312 878.304688 C 335.542969 877.777344 340.082031 877.402344 346.117188 877.179688 C 358.492188 876.691406 361.71875 876.089844 363.445312 873.917969 C 364.117188 873.054688 364.230469 872.492188 364.117188 870.917969 C 363.96875 869.230469 363.667969 868.515625 362.132812 866.453125 C 361.90625 866.117188 361.980469 865.367188 362.429688 864.167969 C 363.554688 861.015625 363.820312 856.964844 364.195312 836.117188 C 364.492188 817.777344 364.945312 808.480469 365.542969 806.867188 C 365.917969 805.929688 367.042969 806.230469 368.167969 807.503906 C 370.007812 809.753906 371.355469 813.429688 375.292969 827.117188 C 379.304688 841.105469 381.855469 847.179688 386.054688 852.917969 C 390.40625 858.839844 396.292969 861.242188 402.894531 859.777344 C 412.679688 857.605469 419.46875 848.527344 431.132812 822.054688 C 436.007812 810.992188 438.742188 805.515625 440.394531 803.527344 C 441.632812 801.992188 441.894531 801.917969 442.605469 802.816406 Z M 317.019531 803.191406 C 318.367188 804.839844 318.96875 809.117188 318.070312 810.804688 C 317.429688 812.003906 316.605469 820.105469 315.59375 835.367188 C 314.429688 853.027344 314.46875 857.679688 315.742188 859.402344 C 316.867188 860.902344 317.28125 862.816406 317.320312 866.378906 C 317.320312 871.066406 316.417969 872.152344 314.132812 870.355469 C 311.917969 868.628906 311.429688 865.964844 310.945312 853.964844 C 310.757812 848.941406 310.230469 841.027344 309.78125 836.378906 C 309.332031 831.464844 309.070312 826.140625 309.144531 823.589844 C 309.257812 819.429688 309.332031 819.128906 310.679688 816.429688 C 311.46875 814.777344 312.554688 811.667969 313.195312 809.003906 C 314.695312 802.929688 315.59375 801.542969 317.019531 803.191406 Z M 465.367188 827.527344 C 466.042969 827.980469 466.195312 828.429688 466.117188 829.441406 C 465.96875 831.089844 465.21875 831.617188 463.417969 831.277344 C 461.09375 830.828125 459.742188 828.652344 461.019531 827.378906 C 461.65625 826.742188 464.394531 826.816406 465.367188 827.527344 Z M 406.679688 839.339844 C 408.367188 839.792969 408.742188 840.464844 407.917969 841.703125 C 406.230469 844.292969 400.230469 843.652344 398.65625 840.730469 C 398.320312 840.054688 398.355469 839.828125 398.917969 839.417969 C 399.742188 838.816406 404.617188 838.742188 406.679688 839.339844 Z M 362.617188 845.265625 C 362.542969 846.316406 362.355469 847.214844 362.132812 847.292969 C 361.71875 847.367188 361.417969 844.027344 361.757812 843.128906 C 362.167969 841.964844 362.730469 843.316406 362.617188 845.265625 Z M 362.617188 845.265625 " fill-opacity="1" fill-rule="nonzero"/></g><path fill="#6a2186" d="M 955.007812 646.179688 C 953.695312 646.703125 919.195312 682.027344 901.382812 701.117188 C 891.820312 711.355469 886.605469 716.304688 885.445312 716.304688 C 884.992188 716.304688 884.394531 714.390625 884.207031 712.367188 C 883.90625 709.589844 884.542969 698.453125 885.894531 682.554688 C 886.644531 673.480469 887.054688 665.828125 887.09375 660.992188 C 887.132812 654.054688 887.054688 653.378906 886.34375 652.179688 C 885.820312 651.277344 885.144531 650.714844 884.132812 650.378906 C 881.582031 649.554688 862.867188 649.105469 849.632812 649.554688 C 835.605469 650.042969 835.15625 650.117188 834.742188 651.617188 C 832.605469 659.605469 826.007812 784.589844 824.28125 850.554688 C 823.832031 868.105469 823.980469 873.878906 824.917969 875.867188 C 826.492188 879.167969 832.15625 879.503906 870.742188 878.417969 L 879.445312 878.191406 L 879.445312 841.964844 C 879.480469 799.292969 879.742188 792.804688 881.429688 792.804688 C 882.480469 792.804688 887.65625 798.691406 893.507812 806.492188 C 900.742188 816.167969 907.15625 825.429688 922.605469 848.492188 C 939.554688 873.839844 942.554688 878.042969 943.792969 878.230469 C 946.269531 878.566406 967.570312 861.429688 979.867188 849.242188 C 984.59375 844.515625 985.570312 843.355469 985.570312 842.453125 C 985.570312 840.765625 982.757812 836.152344 975.894531 826.515625 C 972.40625 821.679688 967.605469 814.855469 965.132812 811.367188 C 952.382812 793.140625 933.445312 767.679688 930.40625 764.679688 C 929.207031 763.480469 928.117188 762.089844 928.007812 761.566406 C 927.292969 758.714844 930.820312 753.878906 947.507812 734.867188 C 952.230469 729.503906 960.667969 719.867188 966.257812 713.492188 C 971.84375 707.078125 979.417969 698.492188 983.09375 694.367188 C 987.78125 689.117188 990.070312 686.191406 990.894531 684.503906 L 992.054688 682.140625 L 991.304688 680.527344 C 989.769531 677.417969 986.242188 673.480469 974.132812 661.554688 C 959.542969 647.152344 957.21875 645.277344 955.007812 646.179688 Z M 963.332031 688.890625 C 962.207031 690.578125 959.167969 692.640625 957.332031 692.941406 C 956.242188 693.089844 955.945312 692.980469 955.605469 692.339844 C 955.382812 691.929688 955.269531 691.140625 955.417969 690.617188 C 955.757812 689.265625 958.269531 687.167969 960.144531 686.679688 C 961.042969 686.453125 962.28125 686.152344 962.882812 686.003906 C 963.894531 685.742188 964.007812 685.816406 964.117188 686.605469 C 964.195312 687.089844 963.855469 688.105469 963.332031 688.890625 Z M 965.054688 700.105469 C 966.59375 701.453125 965.320312 703.367188 962.542969 703.816406 C 960.179688 704.191406 959.355469 702.691406 960.855469 700.777344 C 962.207031 699.054688 963.554688 698.828125 965.054688 700.105469 Z M 865.644531 779.339844 C 866.207031 779.753906 866.84375 780.652344 867.070312 781.367188 C 868.082031 784.441406 865.117188 789.054688 862.117188 789.054688 C 860.769531 789.054688 859.90625 787.402344 859.679688 784.367188 C 859.269531 779.078125 862.007812 776.792969 865.644531 779.339844 Z M 928.117188 791.640625 C 928.417969 793.515625 926.054688 794.304688 925.269531 792.617188 C 924.894531 791.828125 924.929688 791.566406 925.570312 790.929688 C 926.46875 790.027344 927.929688 790.441406 928.117188 791.640625 Z M 943.082031 797.679688 C 944.429688 800.339844 942.667969 805.554688 940.382812 805.554688 C 938.542969 805.554688 938.28125 804.015625 939.40625 800.304688 C 940.570312 796.667969 942.03125 795.617188 943.082031 797.679688 Z M 955.53125 818.640625 C 956.207031 819.054688 955.644531 820.105469 953.917969 821.605469 C 952.007812 823.253906 948.445312 824.191406 948.445312 822.992188 C 948.445312 822.355469 951.855469 819.542969 953.507812 818.828125 C 954.855469 818.230469 954.855469 818.230469 955.53125 818.640625 Z M 944.242188 826.480469 C 944.320312 826.964844 944.09375 827.753906 943.757812 828.277344 C 942.929688 829.515625 941.355469 829.367188 940.605469 827.980469 C 940.082031 827.078125 940.082031 826.929688 940.757812 826.179688 C 941.769531 825.054688 944.09375 825.242188 944.242188 826.480469 Z M 944.242188 826.480469 " fill-opacity="1" fill-rule="nonzero"/><path fill="#6a2186" d="M 1138.757812 648.617188 C 1122.929688 649.703125 1090.382812 651.542969 1065.070312 652.742188 C 1058.355469 653.042969 1045.382812 653.492188 1036.195312 653.679688 C 1015.082031 654.167969 1012.007812 654.542969 1010.46875 656.867188 C 1009.007812 659.117188 1008.40625 663.242188 1006.757812 682.929688 C 1006.230469 689.230469 1005.554688 696.542969 1005.257812 699.242188 C 1004.429688 706.515625 1003.304688 724.667969 1001.882812 752.679688 C 1001.542969 758.980469 1000.71875 774.804688 1000.007812 787.855469 C 998.84375 808.667969 998.65625 814.964844 998.394531 839.042969 C 998.09375 865.253906 998.207031 876.839844 998.769531 877.367188 C 999.480469 878.078125 1003.007812 878.304688 1014.632812 878.304688 C 1027.644531 878.304688 1035.929688 878.003906 1048.945312 876.992188 C 1059.070312 876.203125 1078.90625 875.117188 1102.195312 873.992188 C 1136.394531 872.378906 1144.644531 871.777344 1148.394531 870.765625 L 1149.820312 870.390625 L 1149.820312 850.441406 C 1149.78125 824.867188 1149.445312 820.441406 1147.304688 819.464844 C 1144.269531 818.078125 1125.070312 818.117188 1090.382812 819.652344 C 1061.84375 820.890625 1054.382812 821.191406 1054.195312 821.078125 C 1054.082031 821.042969 1054.195312 814.855469 1054.457031 807.355469 C 1054.679688 799.890625 1054.90625 793.140625 1054.90625 792.429688 L 1054.945312 791.078125 L 1064.617188 790.027344 C 1088.957031 787.402344 1131.519531 781.628906 1132.269531 780.878906 C 1132.90625 780.242188 1133.429688 764.191406 1133.019531 757.589844 C 1132.644531 750.691406 1132.382812 750.054688 1129.90625 750.054688 C 1127.84375 750.054688 1127.582031 750.765625 1127.320312 757.441406 C 1127.09375 763.554688 1126.71875 764.867188 1125.554688 763.367188 C 1125.105469 762.730469 1125.03125 761.714844 1125.21875 757.179688 C 1125.519531 749.230469 1126.53125 745.816406 1128.742188 745.367188 C 1131.144531 744.839844 1132.117188 744.128906 1132.757812 742.402344 C 1133.617188 740.152344 1133.28125 738.390625 1131.707031 737.078125 L 1130.507812 736.066406 L 1119.632812 736.328125 C 1113.667969 736.480469 1105.382812 736.742188 1101.257812 736.929688 C 1074.894531 738.203125 1069.492188 738.429688 1063.867188 738.429688 L 1057.570312 738.429688 L 1057.570312 734.566406 C 1057.570312 732.464844 1057.90625 726.429688 1058.320312 721.179688 C 1058.730469 715.929688 1059.070312 711.277344 1059.070312 710.828125 C 1059.070312 710.117188 1059.332031 710.003906 1062.554688 709.777344 C 1068.707031 709.328125 1098.820312 706.214844 1119.59375 703.929688 C 1141.644531 701.453125 1153.117188 699.992188 1154.917969 699.390625 C 1157.132812 698.679688 1157.132812 698.828125 1157.132812 674.867188 C 1157.132812 649.890625 1157.242188 650.714844 1154.207031 649.214844 C 1151.882812 648.089844 1148.355469 647.941406 1138.757812 648.617188 Z M 1082.355469 659.191406 C 1085.582031 660.839844 1085.167969 662.714844 1081.757812 661.929688 C 1079.84375 661.480469 1078.570312 660.542969 1078.570312 659.527344 C 1078.570312 657.839844 1079.46875 657.765625 1082.355469 659.191406 Z M 1045.117188 662.378906 C 1045.230469 663.167969 1044.820312 663.839844 1043.429688 665.339844 C 1041.632812 667.292969 1039.644531 668.867188 1039.382812 668.605469 C 1038.96875 668.191406 1041.21875 663.128906 1042.230469 662.191406 C 1043.695312 660.839844 1044.96875 660.953125 1045.117188 662.378906 Z M 1066.757812 662.078125 C 1068.21875 662.679688 1068.445312 663.542969 1067.429688 664.628906 C 1066.679688 665.492188 1065.144531 665.492188 1064.207031 664.628906 C 1063.679688 664.179688 1062.855469 663.992188 1061.167969 663.992188 C 1059.144531 663.992188 1058.882812 663.917969 1058.882812 663.242188 C 1058.882812 662.828125 1059.292969 662.304688 1059.820312 662.042969 C 1061.09375 661.402344 1065.179688 661.441406 1066.757812 662.078125 Z M 1076.242188 673.253906 C 1076.957031 673.964844 1076.769531 675.617188 1075.757812 676.964844 C 1074.292969 678.992188 1073.582031 680.566406 1073.804688 681.242188 C 1074.367188 682.628906 1076.582031 683.078125 1082.507812 683.003906 C 1088.617188 682.929688 1091.054688 683.339844 1090.867188 684.355469 C 1090.679688 685.292969 1088.582031 685.816406 1082.84375 686.265625 C 1076.917969 686.753906 1076.132812 686.605469 1074.144531 684.691406 C 1072.34375 682.964844 1069.945312 679.105469 1069.679688 677.527344 C 1069.53125 676.628906 1069.679688 675.878906 1070.09375 675.242188 C 1071.332031 673.367188 1075.117188 672.128906 1076.242188 673.253906 Z M 1081.570312 749.453125 C 1081.570312 751.253906 1078.417969 753.542969 1077.632812 752.304688 C 1077.332031 751.816406 1078.757812 749.453125 1079.617188 748.929688 C 1080.78125 748.292969 1081.570312 748.480469 1081.570312 749.453125 Z M 1061.992188 752.867188 C 1062.40625 753.242188 1061.46875 754.367188 1060.417969 754.742188 C 1059.742188 754.964844 1059.179688 754.964844 1058.769531 754.703125 C 1057.945312 754.179688 1057.71875 753.054688 1058.394531 752.605469 C 1058.917969 752.265625 1061.582031 752.453125 1061.992188 752.867188 Z M 1077.855469 754.179688 C 1078.832031 754.742188 1078.757812 755.792969 1077.59375 757.140625 C 1075.980469 759.054688 1074.070312 758.527344 1074.070312 756.203125 C 1074.070312 754.292969 1076.054688 753.242188 1077.855469 754.179688 Z M 1047.96875 765.429688 C 1050.105469 766.742188 1054.15625 772.066406 1055.132812 774.839844 C 1056.21875 777.839844 1055.695312 779.828125 1053.105469 782.828125 C 1051.117188 785.117188 1050.21875 786.917969 1049.882812 789.167969 C 1049.507812 791.492188 1048.792969 792.277344 1047.667969 791.566406 C 1047.257812 791.265625 1046.804688 790.628906 1046.769531 790.140625 C 1046.695312 789.617188 1045.53125 788.191406 1044.070312 786.804688 C 1041.292969 784.140625 1040.429688 782.230469 1040.84375 779.753906 C 1041.292969 776.828125 1043.09375 775.589844 1045.945312 776.230469 C 1046.882812 776.453125 1047.707031 776.527344 1047.78125 776.453125 C 1047.894531 776.378906 1047.554688 775.253906 1047.105469 773.941406 C 1045.230469 768.878906 1044.742188 766.027344 1045.644531 765.128906 C 1046.242188 764.527344 1046.582031 764.566406 1047.96875 765.429688 Z M 1043.320312 792.617188 C 1043.582031 792.917969 1043.917969 794.492188 1044.105469 796.105469 C 1044.292969 797.679688 1044.554688 800.042969 1044.667969 801.316406 C 1044.820312 802.742188 1044.78125 803.679688 1044.554688 803.679688 C 1043.882812 803.679688 1042.230469 801.617188 1041.40625 799.777344 C 1040.429688 797.566406 1040.242188 793.628906 1041.03125 792.691406 C 1041.667969 791.902344 1042.71875 791.867188 1043.320312 792.617188 Z M 1081.644531 829.742188 C 1082.242188 832.027344 1079.65625 833.714844 1076.730469 832.929688 C 1073.695312 832.140625 1074.144531 830.042969 1077.519531 829.179688 C 1078.417969 828.953125 1079.320312 828.691406 1079.507812 828.617188 C 1080.480469 828.242188 1081.34375 828.691406 1081.644531 829.742188 Z M 1075.71875 855.578125 C 1078.792969 856.855469 1079.542969 860.417969 1077.105469 862.066406 C 1075.382812 863.230469 1072.90625 863.230469 1071.820312 862.066406 C 1071.105469 861.355469 1071.03125 860.902344 1071.144531 858.839844 C 1071.257812 856.890625 1071.445312 856.328125 1072.15625 855.765625 C 1073.207031 854.902344 1074.03125 854.867188 1075.71875 855.578125 Z M 1037.582031 858.128906 C 1038.894531 859.367188 1038.707031 860.941406 1036.945312 863.527344 C 1036.117188 864.765625 1034.882812 866.417969 1034.132812 867.242188 L 1032.78125 868.742188 L 1032.894531 864.578125 C 1033.042969 860.003906 1033.34375 859.179688 1034.882812 859.480469 C 1035.667969 859.628906 1035.820312 859.515625 1035.820312 858.730469 C 1035.820312 857.117188 1036.34375 856.929688 1037.582031 858.128906 Z M 1027.757812 862.742188 C 1028.28125 863.230469 1028.695312 863.867188 1028.695312 864.167969 C 1028.695312 865.929688 1024.417969 869.378906 1022.957031 868.816406 C 1021.945312 868.441406 1022.054688 864.089844 1023.105469 862.777344 C 1024.15625 861.429688 1026.445312 861.390625 1027.757812 862.742188 Z M 1049.917969 863.117188 C 1050.519531 863.527344 1050.820312 864.054688 1050.820312 864.804688 C 1050.820312 865.742188 1050.554688 866.042969 1049.542969 866.566406 C 1048.417969 867.089844 1047.855469 867.128906 1045.757812 866.753906 C 1043.09375 866.304688 1042.195312 865.855469 1042.195312 864.839844 C 1042.195312 864.167969 1043.46875 862.816406 1044.445312 862.402344 C 1045.417969 862.027344 1048.945312 862.480469 1049.917969 863.117188 Z M 1049.917969 863.117188 " fill-opacity="1" fill-rule="nonzero"/><path fill="#6a2186" d="M 726.070312 650.191406 C 721.042969 650.714844 701.429688 654.355469 699.40625 655.105469 C 696.40625 656.265625 692.84375 663.429688 680.617188 693.054688 C 662.019531 738.089844 648.855469 773.753906 639.667969 804.054688 C 637.007812 812.941406 625.195312 853.292969 622.867188 861.617188 C 619.867188 872.339844 621.070312 875.152344 629.132812 876.390625 C 633.144531 876.992188 679.71875 879.015625 680.132812 878.605469 C 680.394531 878.339844 684.144531 863.417969 685.945312 855.503906 C 688.304688 845.042969 688.867188 843.429688 690.21875 842.867188 C 693.03125 841.703125 718.042969 836.417969 732.96875 833.867188 C 737.242188 833.117188 740.804688 832.554688 740.882812 832.628906 C 740.917969 832.703125 741.445312 838.964844 741.96875 846.617188 C 743.429688 866.527344 744.070312 873.839844 744.519531 874.742188 C 744.742188 875.152344 745.53125 876.128906 746.28125 876.917969 C 748.757812 879.503906 749.132812 879.542969 769.195312 879.730469 C 795.070312 879.917969 803.320312 879.277344 804.367188 876.992188 C 805.15625 875.304688 804.855469 868.777344 803.695312 860.679688 C 801.179688 843.464844 786.820312 763.667969 780.21875 730.367188 C 771.332031 685.628906 765.070312 666.839844 756.105469 658.027344 C 751.605469 653.527344 747.40625 651.617188 739.945312 650.453125 C 736.71875 649.964844 729.40625 649.816406 726.070312 650.191406 Z M 742.605469 673.066406 C 743.132812 673.667969 744.03125 674.867188 744.59375 675.765625 C 746.09375 678.128906 747.707031 679.441406 750.070312 680.339844 C 753.59375 681.652344 754.082031 682.628906 752.730469 685.855469 C 751.679688 688.441406 750.179688 690.128906 749.019531 689.980469 C 748.082031 689.867188 748.007812 689.714844 747.632812 686.492188 C 747.367188 684.617188 746.957031 682.742188 746.695312 682.292969 C 746.394531 681.839844 745.195312 680.867188 743.957031 680.078125 C 741.367188 678.429688 739.980469 676.777344 739.679688 674.941406 C 739.457031 673.441406 740.054688 672.054688 740.992188 672.054688 C 741.367188 672.054688 742.082031 672.503906 742.605469 673.066406 Z M 728.46875 693.277344 C 729.257812 693.578125 729.257812 695.605469 728.429688 696.503906 C 727.757812 697.253906 726.070312 697.402344 725.394531 696.730469 C 724.679688 696.015625 724.867188 694.964844 725.882812 693.992188 C 726.820312 693.054688 727.417969 692.867188 728.46875 693.277344 Z M 754.230469 700.929688 C 755.132812 701.453125 755.207031 703.777344 754.304688 704.753906 C 753.445312 705.730469 751.382812 705.652344 750.667969 704.605469 C 750.144531 703.855469 750.144531 703.667969 750.742188 702.652344 C 751.117188 702.015625 751.832031 701.265625 752.355469 701.042969 C 753.445312 700.480469 753.332031 700.480469 754.230469 700.929688 Z M 720.855469 725.417969 C 721.832031 727.777344 720.78125 730.589844 718.457031 731.867188 C 716.242188 733.066406 714.292969 731.867188 714.367188 729.390625 C 714.40625 727.441406 716.582031 724.214844 718.195312 723.730469 C 719.132812 723.429688 720.367188 724.214844 720.855469 725.417969 Z M 724.007812 735.203125 C 725.09375 736.292969 726.144531 739.742188 727.382812 746.492188 C 729.070312 755.566406 732.445312 780.355469 732.445312 783.542969 L 732.445312 784.628906 L 720.742188 784.480469 C 708.070312 784.328125 707.355469 784.214844 706.570312 782.339844 C 706.007812 780.992188 706.382812 779.527344 709.15625 771.542969 C 711.632812 764.417969 713.730469 757.480469 716.882812 745.929688 C 718.007812 741.691406 719.242188 737.605469 719.582031 736.816406 C 720.667969 734.265625 722.429688 733.628906 724.007812 735.203125 Z M 712.34375 740.003906 C 713.207031 741.242188 713.09375 742.480469 711.59375 747.167969 C 709.644531 753.242188 703.90625 768.390625 701.054688 774.953125 C 698.242188 781.441406 693.445312 791.078125 692.28125 792.578125 C 691.417969 793.667969 690.257812 793.855469 689.917969 792.953125 C 688.90625 790.253906 690.292969 785.902344 697.90625 768.355469 C 699.554688 764.527344 701.28125 760.027344 701.695312 758.417969 C 702.144531 756.804688 703.492188 753.128906 704.695312 750.242188 C 705.894531 747.355469 707.320312 743.902344 707.84375 742.554688 C 708.40625 741.203125 709.117188 739.890625 709.457031 739.628906 C 710.429688 738.917969 711.707031 739.105469 712.34375 740.003906 Z M 749.65625 765.503906 C 751.457031 766.628906 752.09375 768.390625 751.792969 771.617188 C 750.96875 780.355469 748.90625 785.640625 746.804688 784.328125 C 745.757812 783.652344 745.832031 781.890625 747.105469 777.429688 C 748.417969 772.703125 748.382812 771.429688 746.882812 768.429688 C 745.945312 766.589844 745.679688 765.054688 746.207031 764.527344 C 746.582031 764.152344 748.15625 764.605469 749.65625 765.503906 Z M 762.929688 765.652344 C 764.242188 766.628906 764.957031 768.429688 765.40625 771.804688 C 765.632812 773.339844 765.96875 775.214844 766.195312 775.929688 C 767.429688 780.128906 765.554688 783.089844 762.03125 782.492188 C 759.40625 782.042969 757.867188 779.679688 757.867188 776.117188 C 757.867188 773.714844 758.207031 772.703125 759.707031 770.902344 L 760.570312 769.855469 L 759.257812 768.390625 C 758.019531 767.003906 757.570312 765.542969 758.242188 764.902344 C 758.730469 764.378906 761.917969 764.902344 762.929688 765.652344 Z M 758.917969 789.464844 C 759.367188 789.839844 759.480469 790.441406 759.332031 791.792969 C 758.882812 796.703125 754.457031 797.230469 753.632812 792.429688 C 753.332031 790.589844 753.667969 789.464844 754.679688 789.015625 C 755.730469 788.605469 758.167969 788.828125 758.917969 789.464844 Z M 752.992188 803.003906 C 753.742188 803.753906 753.519531 806.042969 752.46875 808.105469 C 751.042969 810.992188 749.695312 811.105469 748.417969 808.402344 C 747.480469 806.378906 747.632812 804.242188 748.792969 803.339844 C 749.917969 802.480469 752.28125 802.292969 752.992188 803.003906 Z M 765.820312 814.816406 C 766.34375 815.152344 767.617188 816.242188 768.707031 817.253906 C 769.757812 818.230469 770.882812 819.054688 771.21875 819.054688 C 771.519531 819.054688 772.269531 819.691406 772.90625 820.441406 C 776.730469 825.089844 785.804688 853.589844 786.332031 862.628906 C 786.554688 866.117188 786.519531 866.265625 785.617188 867.167969 C 784.945312 867.839844 784.417969 868.066406 783.820312 867.917969 C 782.730469 867.617188 780.59375 864.691406 777.855469 859.589844 C 773.84375 852.242188 772.042969 850.027344 766.945312 846.316406 C 762.59375 843.128906 761.992188 840.089844 764.695312 834.878906 C 765.929688 832.554688 766.382812 831.277344 766.492188 829.628906 C 766.792969 825.652344 765.367188 818.980469 763.90625 817.328125 C 763.195312 816.578125 762.929688 814.929688 763.457031 814.441406 C 763.867188 813.992188 764.882812 814.140625 765.820312 814.816406 Z M 683.582031 819.992188 C 685.679688 820.855469 686.320312 821.605469 686.320312 823.140625 C 686.320312 824.792969 685.230469 826.179688 683.132812 827.265625 C 680.882812 828.429688 679.457031 828.316406 677.917969 826.742188 C 676.53125 825.355469 675.929688 823.515625 676.34375 821.867188 C 676.867188 819.730469 680.65625 818.792969 683.582031 819.992188 Z M 666.070312 837.429688 C 667.230469 838.589844 667.117188 841.855469 665.882812 843.203125 C 664.195312 845.042969 661.90625 845.417969 660.292969 844.140625 C 658.90625 843.054688 658.980469 841.367188 660.519531 839.527344 C 661.832031 837.953125 663.667969 836.679688 664.679688 836.679688 C 665.019531 836.679688 665.65625 837.015625 666.070312 837.429688 Z M 666.070312 837.429688 " fill-opacity="1" fill-rule="nonzero"/><path fill="#6a2186" d="M 1259.882812 651.316406 C 1238.46875 652.027344 1196.28125 657.355469 1189.382812 660.203125 C 1186.71875 661.328125 1186.605469 662.492188 1180.945312 749.492188 C 1178.65625 784.328125 1176.105469 822.730469 1175.28125 834.804688 C 1173.632812 858.089844 1173.179688 872.492188 1174.082031 874.027344 C 1175.019531 875.640625 1181.054688 876.054688 1205.355469 876.054688 L 1225.082031 876.054688 L 1225.34375 868.480469 C 1226.695312 826.703125 1227.105469 815.527344 1227.292969 813.429688 C 1227.632812 809.902344 1228.570312 809.078125 1234.71875 807.089844 C 1237.382812 806.230469 1240.867188 805.328125 1242.480469 805.066406 C 1246.007812 804.578125 1246.007812 804.578125 1248.96875 809.117188 C 1256.28125 820.253906 1265.882812 837.804688 1278.257812 862.554688 C 1282.945312 871.929688 1286.84375 879.691406 1286.917969 879.765625 C 1286.992188 879.839844 1288.382812 879.355469 1289.957031 878.640625 C 1297.71875 875.265625 1322.957031 858.617188 1329.332031 852.691406 C 1331.542969 850.589844 1332.070312 849.878906 1332.070312 848.980469 C 1332.070312 847.140625 1330.082031 842.714844 1325.167969 833.753906 C 1322.617188 829.066406 1318.570312 821.527344 1316.132812 816.992188 C 1307.65625 801.203125 1303.832031 794.078125 1301.84375 790.628906 C 1300.71875 788.679688 1299.820312 786.652344 1299.820312 786.089844 C 1299.820312 784.441406 1301.582031 782.230469 1309.195312 774.277344 C 1313.132812 770.191406 1317.519531 765.316406 1318.980469 763.480469 C 1325.804688 754.589844 1330.007812 745.628906 1332.21875 735.167969 C 1333.945312 726.878906 1334.132812 724.179688 1334.132812 707.679688 L 1334.132812 692.117188 L 1333.082031 689.003906 C 1331.730469 685.027344 1326.855469 675.390625 1324.082031 671.230469 C 1319.957031 665.003906 1313.695312 659.792969 1305.96875 656.117188 C 1304.019531 655.179688 1301.207031 654.089844 1299.707031 653.679688 C 1291.832031 651.578125 1277.84375 650.714844 1259.882812 651.316406 Z M 1255.945312 675.730469 C 1255.945312 677.003906 1254.820312 680.191406 1254.03125 681.203125 C 1252.945312 682.554688 1251.820312 682.515625 1251.820312 681.089844 C 1251.820312 679.554688 1252.382812 678.203125 1253.730469 676.515625 C 1254.96875 674.941406 1255.945312 674.605469 1255.945312 675.730469 Z M 1285.945312 687.617188 C 1287.257812 688.292969 1288.304688 690.804688 1288.117188 692.902344 C 1288.007812 694.140625 1287.855469 694.367188 1287.03125 694.480469 C 1285.90625 694.628906 1284.929688 693.652344 1284.21875 691.667969 C 1283.582031 689.867188 1283.542969 688.105469 1284.144531 687.503906 C 1284.707031 686.941406 1284.632812 686.941406 1285.945312 687.617188 Z M 1246.644531 690.464844 C 1247.242188 691.292969 1247.28125 691.554688 1246.90625 692.417969 C 1246.34375 693.652344 1243.417969 695.679688 1242.179688 695.679688 C 1241.09375 695.679688 1241.09375 694.929688 1242.105469 692.679688 C 1243.644531 689.304688 1245.21875 688.515625 1246.644531 690.464844 Z M 1276.269531 699.804688 C 1279.230469 700.628906 1281.445312 704.566406 1281.742188 709.554688 C 1282.230469 718.703125 1277.207031 730.777344 1269.855469 738.089844 C 1266.367188 741.542969 1262.542969 744.089844 1256.132812 747.203125 C 1248.667969 750.878906 1243.15625 752.714844 1237.117188 753.617188 C 1230.742188 754.589844 1230.445312 754.441406 1230.445312 750.277344 C 1230.445312 743.679688 1234.082031 711.203125 1235.355469 706.480469 C 1235.84375 704.640625 1236.894531 704.117188 1241.617188 703.402344 C 1243.679688 703.105469 1247.355469 702.316406 1249.792969 701.714844 C 1253.65625 700.742188 1256.46875 700.253906 1261.382812 699.691406 C 1264.007812 699.355469 1274.992188 699.464844 1276.269531 699.804688 Z M 1286.394531 736.214844 C 1286.167969 737.980469 1285.15625 740.605469 1284.480469 741.203125 C 1283.992188 741.652344 1283.28125 741.804688 1282.304688 741.730469 C 1279.980469 741.542969 1280.167969 740.417969 1283.054688 737.453125 C 1285.53125 734.941406 1286.617188 734.527344 1286.394531 736.214844 Z M 1206.59375 738.242188 C 1207.757812 739.328125 1207.832031 740.417969 1206.820312 742.066406 C 1205.957031 743.492188 1204.304688 744.429688 1202.730469 744.429688 C 1201.34375 744.429688 1200.445312 742.964844 1200.445312 740.714844 C 1200.445312 737.714844 1204.34375 736.140625 1206.59375 738.242188 Z M 1271.054688 750.015625 C 1274.582031 753.917969 1284.070312 769.402344 1283.507812 770.304688 C 1283.355469 770.527344 1282.605469 770.679688 1281.820312 770.679688 C 1280.167969 770.679688 1278.820312 769.402344 1278.070312 767.117188 C 1277.582031 765.617188 1276.867188 765.429688 1276.007812 766.628906 C 1274.769531 768.429688 1273.570312 766.480469 1270.792969 758.304688 C 1267.71875 749.152344 1267.792969 746.417969 1271.054688 750.015625 Z M 1280.394531 779.605469 C 1282.492188 782.378906 1282.792969 784.027344 1281.257812 784.402344 C 1279.082031 784.929688 1276.71875 783.652344 1276.34375 781.742188 C 1276.042969 779.980469 1277.132812 776.980469 1277.992188 777.128906 C 1278.367188 777.203125 1279.417969 778.328125 1280.394531 779.605469 Z M 1317.894531 841.964844 C 1314.21875 845.527344 1311.105469 846.878906 1309.980469 845.527344 C 1309.15625 844.554688 1309.644531 842.980469 1310.992188 842.191406 C 1312.832031 841.105469 1318.195312 839.304688 1319.507812 839.304688 C 1320.59375 839.339844 1320.554688 839.378906 1317.894531 841.964844 Z M 1317.894531 841.964844 " fill-opacity="1" fill-rule="nonzero"/><g clip-path="url(#7137afcc72)"><g clip-path="url(#50f8b87d5a)"><path fill="#ffffff" d="M 355.46875 1178.082031 L 394.742188 1178.082031 L 394.742188 1208.457031 L 355.46875 1208.457031 Z M 355.46875 1178.082031 " fill-opacity="1" fill-rule="nonzero"/></g></g><g clip-path="url(#70f7337ecc)"><g clip-path="url(#fd37a5ac40)"><path fill="#ffffff" d="M 576.4375 173.726562 L 1026.4375 173.726562 L 1026.4375 623.726562 L 576.4375 623.726562 Z M 576.4375 173.726562 " fill-opacity="1" fill-rule="nonzero"/></g></g><g clip-path="url(#d69b95b681)"><g clip-path="url(#a0694ad1ef)"><path fill="#ffffff" d="M -175.613281 331.667969 L 274.386719 331.667969 L 274.386719 781.667969 L -175.613281 781.667969 Z M -175.613281 331.667969 " fill-opacity="1" fill-rule="nonzero"/></g></g><g clip-path="url(#15f5a5f8b6)"><g clip-path="url(#ecc11466f2)"><path fill="#ffffff" d="M -203.773438 398.726562 L 246.226562 398.726562 L 246.226562 848.726562 L -203.773438 848.726562 Z M -203.773438 398.726562 " fill-opacity="1" fill-rule="nonzero"/></g></g><g clip-path="url(#ff100a2297)"><g clip-path="url(#448e663920)"><path fill="#ffffff" d="M 591.402344 590.027344 L 688.980469 590.027344 L 688.980469 687.601562 L 591.402344 687.601562 Z M 591.402344 590.027344 " fill-opacity="1" fill-rule="nonzero"/></g></g><g clip-path="url(#5fdc1db3f9)"><g clip-path="url(#c6357ba345)"><path fill="#ffffff" d="M 591.402344 655.726562 L 655.15625 655.726562 L 655.15625 719.480469 L 591.402344 719.480469 Z M 591.402344 655.726562 " fill-opacity="1" fill-rule="nonzero"/></g></g><g clip-path="url(#90d731b40a)"><g clip-path="url(#54c73551b4)"><path fill="#ffffff" d="M 591.402344 702.84375 L 655.15625 702.84375 L 655.15625 766.597656 L 591.402344 766.597656 Z M 591.402344 702.84375 " fill-opacity="1" fill-rule="nonzero"/></g></g><g clip-path="url(#52dee1ff9a)"><g clip-path="url(#e34054fa97)"><path fill="#ffffff" d="M 591.402344 749.789062 L 623.28125 749.789062 L 623.28125 781.667969 L 591.402344 781.667969 Z M 591.402344 749.789062 " fill-opacity="1" fill-rule="nonzero"/></g></g></svg>