<svg xmlns="http://www.w3.org/2000/svg" xmlns:xlink="http://www.w3.org/1999/xlink" width="2000" zoomAndPan="magnify" viewBox="0 0 1500 1499.999933" height="2000" preserveAspectRatio="xMidYMid meet" version="1.0"><defs><clipPath id="2a8578e165"><path d="M 358.433594 1181 L 391.65625 1181 L 391.65625 1205.609375 L 358.433594 1205.609375 Z M 358.433594 1181 " clip-rule="nonzero"/></clipPath><clipPath id="f1b216a7f4"><path d="M 372.269531 1182.359375 C 381.644531 1187.683594 382.917969 1187.007812 384.417969 1187.457031 C 386.070312 1187.984375 388.242188 1189.035156 389.445312 1190.457031 C 390.644531 1191.882812 391.542969 1194.058594 391.617188 1195.933594 C 391.769531 1197.734375 391.09375 1200.058594 390.117188 1201.558594 C 389.070312 1203.132812 387.195312 1204.558594 385.46875 1205.160156 C 383.667969 1205.757812 381.34375 1205.757812 379.542969 1205.160156 C 377.820312 1204.558594 375.867188 1202.832031 374.894531 1201.632812 C 374.144531 1200.734375 373.84375 1200.058594 373.617188 1198.933594 C 373.320312 1197.433594 373.46875 1194.582031 373.917969 1193.082031 C 374.21875 1192.035156 374.820312 1191.285156 375.417969 1190.535156 C 376.09375 1189.785156 376.695312 1189.109375 377.667969 1188.582031 C 379.09375 1187.910156 381.570312 1187.160156 383.445312 1187.308594 C 385.242188 1187.535156 387.417969 1188.507812 388.769531 1189.785156 C 390.117188 1190.984375 391.167969 1193.082031 391.542969 1194.882812 C 391.84375 1196.757812 391.46875 1199.082031 390.570312 1200.734375 C 389.742188 1202.382812 388.019531 1203.957031 386.367188 1204.785156 C 384.644531 1205.535156 382.695312 1205.609375 380.519531 1205.457031 C 377.742188 1205.234375 373.917969 1204.035156 370.917969 1202.757812 C 367.992188 1201.484375 364.769531 1199.382812 362.742188 1197.808594 C 361.46875 1196.683594 360.417969 1195.859375 359.742188 1194.660156 C 358.992188 1193.457031 358.46875 1192.035156 358.46875 1190.535156 C 358.46875 1188.660156 359.21875 1185.957031 360.417969 1184.382812 C 361.695312 1182.808594 364.019531 1181.457031 365.96875 1181.082031 C 367.917969 1180.785156 372.269531 1182.359375 372.269531 1182.359375 " clip-rule="nonzero"/></clipPath></defs><path fill="#6a2186" d="M 701.414062 254.304688 C 700.277344 254.617188 683.515625 255.238281 664.171875 255.859375 C 606.027344 257.617188 547.78125 262.789062 484.667969 271.996094 C 398.28125 284.515625 351.726562 296.621094 307.238281 318.449219 C 285.824219 329.003906 274.339844 337.488281 269.992188 346.382812 C 268.234375 349.902344 267.925781 352.488281 268.027344 363.457031 C 268.132812 374.628906 268.855469 379.90625 273.40625 402.769531 C 296.582031 518.230469 326.894531 729.699219 335.585938 836.261719 C 340.757812 898.4375 343.140625 955.546875 343.242188 1014.207031 C 343.347656 1060.765625 342.207031 1081.351562 339.3125 1088.285156 C 337.34375 1093.042969 332.792969 1094.183594 290.683594 1100.597656 C 192.605469 1115.597656 121.53125 1136.703125 93.90625 1159.050781 C 81.183594 1169.292969 79.113281 1180.257812 86.976562 1195.46875 C 92.355469 1205.503906 106.117188 1219.46875 119.980469 1228.675781 C 139.222656 1241.402344 169.847656 1254.851562 202.746094 1265.09375 C 290.683594 1292.40625 445.5625 1315.167969 587.09375 1321.375 C 600.441406 1321.996094 615.855469 1322.722656 621.234375 1323.03125 C 626.613281 1323.34375 661.480469 1324.066406 698.519531 1324.582031 C 850.914062 1326.859375 981.0625 1321.582031 1079.039062 1308.960938 C 1175.460938 1296.546875 1258.953125 1275.027344 1305.09375 1250.507812 C 1327.132812 1238.816406 1345.132812 1223.503906 1351.132812 1211.296875 C 1355.066406 1203.332031 1355.375 1192.984375 1351.960938 1186.464844 C 1347.617188 1178.398438 1336.132812 1170.121094 1315.75 1160.394531 C 1283.058594 1144.875 1248.917969 1133.910156 1183.429688 1117.875 L 1154.253906 1110.839844 L 1138.628906 1127.082031 C 1117.214844 1149.429688 1105.316406 1158.117188 1083.488281 1167.535156 C 1048.207031 1182.742188 990.167969 1191.433594 897.46875 1195.363281 C 866.429688 1196.710938 790.597656 1196.089844 762.457031 1194.226562 C 728.726562 1192.054688 706.070312 1188.742188 706.070312 1185.949219 C 706.070312 1183.464844 723.96875 1181.398438 786.769531 1176.636719 C 882.261719 1169.292969 936.164062 1161.328125 983.648438 1147.566406 C 1027.828125 1134.839844 1063.3125 1114.976562 1087.003906 1089.941406 C 1095.28125 1081.144531 1096.003906 1078.664062 1093.730469 1066.660156 C 1083.902344 1016.070312 1082.039062 898.023438 1089.382812 799.53125 C 1093.832031 740.871094 1102.109375 675.796875 1114.214844 603.996094 C 1130.664062 507.054688 1134.386719 484.292969 1134.386719 481.914062 C 1134.386719 478.707031 1134.800781 478.8125 1116.285156 481.398438 C 1064.140625 488.640625 1007.652344 491.640625 909.367188 492.46875 C 802.597656 493.296875 727.589844 490.398438 663.757812 482.847656 C 611.199219 476.636719 549.539062 463.808594 547.988281 458.742188 C 547.574219 457.5 550.574219 457.394531 568.058594 458.015625 C 579.4375 458.328125 600.75 459.464844 615.542969 460.394531 C 649.375 462.566406 753.765625 462.878906 788.320312 460.914062 C 921.679688 453.152344 1025.136719 436.703125 1085.761719 413.425781 C 1125.179688 398.320312 1153.632812 379.699219 1160.769531 364.386719 C 1163.976562 357.558594 1163.976562 354.144531 1161.082031 348.246094 C 1158.390625 342.867188 1142.664062 327.347656 1133.871094 321.347656 C 1097.867188 297.035156 1007.859375 275.617188 899.539062 265.789062 C 843.257812 260.617188 708.761719 252.859375 701.414062 254.304688 Z M 701.414062 254.304688 " fill-opacity="1" fill-rule="nonzero"/><g clip-path="url(#2a8578e165)"><g clip-path="url(#f1b216a7f4)"><path fill="#ffffff" d="M 355.46875 1178.082031 L 394.742188 1178.082031 L 394.742188 1208.457031 L 355.46875 1208.457031 Z M 355.46875 1178.082031 " fill-opacity="1" fill-rule="nonzero"/></g></g></svg>