<svg xmlns="http://www.w3.org/2000/svg" xmlns:xlink="http://www.w3.org/1999/xlink" width="2000" zoomAndPan="magnify" viewBox="0 0 1500 1499.999933" height="2000" preserveAspectRatio="xMidYMid meet" version="1.0"><defs><clipPath id="fb5b4ca97c"><path d="M 358.433594 1181 L 391.65625 1181 L 391.65625 1205.609375 L 358.433594 1205.609375 Z M 358.433594 1181 " clip-rule="nonzero"/></clipPath><clipPath id="8c157fb5cc"><path d="M 372.269531 1182.359375 C 381.644531 1187.683594 382.917969 1187.007812 384.417969 1187.457031 C 386.070312 1187.984375 388.242188 1189.035156 389.445312 1190.457031 C 390.644531 1191.882812 391.542969 1194.058594 391.617188 1195.933594 C 391.769531 1197.734375 391.09375 1200.058594 390.117188 1201.558594 C 389.070312 1203.132812 387.195312 1204.558594 385.46875 1205.160156 C 383.667969 1205.757812 381.34375 1205.757812 379.542969 1205.160156 C 377.820312 1204.558594 375.867188 1202.832031 374.894531 1201.632812 C 374.144531 1200.734375 373.84375 1200.058594 373.617188 1198.933594 C 373.320312 1197.433594 373.46875 1194.582031 373.917969 1193.082031 C 374.21875 1192.035156 374.820312 1191.285156 375.417969 1190.535156 C 376.09375 1189.785156 376.695312 1189.109375 377.667969 1188.582031 C 379.09375 1187.910156 381.570312 1187.160156 383.445312 1187.308594 C 385.242188 1187.535156 387.417969 1188.507812 388.769531 1189.785156 C 390.117188 1190.984375 391.167969 1193.082031 391.542969 1194.882812 C 391.84375 1196.757812 391.46875 1199.082031 390.570312 1200.734375 C 389.742188 1202.382812 388.019531 1203.957031 386.367188 1204.785156 C 384.644531 1205.535156 382.695312 1205.609375 380.519531 1205.457031 C 377.742188 1205.234375 373.917969 1204.035156 370.917969 1202.757812 C 367.992188 1201.484375 364.769531 1199.382812 362.742188 1197.808594 C 361.46875 1196.683594 360.417969 1195.859375 359.742188 1194.660156 C 358.992188 1193.457031 358.46875 1192.035156 358.46875 1190.535156 C 358.46875 1188.660156 359.21875 1185.957031 360.417969 1184.382812 C 361.695312 1182.808594 364.019531 1181.457031 365.96875 1181.082031 C 367.917969 1180.785156 372.269531 1182.359375 372.269531 1182.359375 " clip-rule="nonzero"/></clipPath></defs><path fill="#6a2186" d="M 909.292969 483.878906 C 878.078125 487.136719 843.058594 500.980469 814.964844 521.203125 C 810.484375 524.460938 799.21875 533.417969 789.855469 541.289062 C 780.625 549.160156 771.53125 556.355469 769.902344 557.167969 C 765.695312 559.339844 762.980469 557.847656 746.828125 544.140625 C 708.691406 511.835938 679.101562 496.5 637.839844 487.679688 C 618.703125 483.46875 579.480469 483.199219 561.835938 487 C 507.679688 498.671875 466.960938 525.003906 362.722656 615.53125 C 304.632812 666.15625 276.675781 687.738281 255.636719 698.460938 C 243.285156 704.703125 240.570312 705.519531 231.070312 706.0625 C 217.90625 706.738281 206.097656 703.074219 190.214844 693.304688 C 177.59375 685.429688 157.234375 665.34375 150.71875 654.484375 C 128.324219 616.074219 134.160156 574.269531 166.734375 542.105469 C 182.886719 526.089844 194.558594 523.644531 222.519531 530.429688 C 230.253906 532.332031 237.175781 533.417969 237.855469 532.738281 C 238.398438 532.195312 236.226562 529.210938 232.699219 526.222656 C 206.230469 503.695312 176.371094 499.757812 145.832031 514.824219 C 123.710938 525.816406 105.523438 545.769531 91.679688 574 C 60.191406 638.199219 58.5625 724.25 87.472656 784.78125 C 126.832031 866.898438 202.433594 918.472656 306.941406 934.488281 C 330.148438 938.015625 382.539062 939.511719 408.464844 937.203125 C 509.171875 928.382812 601.332031 893.09375 679.917969 833.101562 C 696.339844 820.613281 703.667969 814.097656 734.070312 785.597656 C 747.644531 772.703125 761.214844 760.625 764.066406 758.585938 C 769.089844 755.058594 769.632812 754.921875 772.753906 756.957031 C 774.519531 758.179688 781.710938 765.375 788.632812 773.109375 C 825.6875 813.691406 853.511719 836.628906 899.386719 863.910156 C 958.835938 899.199219 1032.535156 926.617188 1081.667969 931.636719 C 1105.011719 933.945312 1174.503906 934.894531 1208.164062 933.132812 C 1289.464844 929.195312 1321.359375 917.386719 1373.75 872.191406 C 1440.527344 814.507812 1460.34375 769.988281 1460.886719 677.152344 C 1461.019531 646.613281 1460.070312 640.234375 1450.570312 612.683594 C 1439.035156 579.023438 1423.5625 552.285156 1405.507812 534.640625 C 1381.078125 510.886719 1356.375 503.152344 1330.589844 511.023438 C 1321.902344 513.601562 1294.078125 526.902344 1295.027344 527.988281 C 1295.300781 528.125 1303.578125 527.582031 1313.488281 526.496094 C 1342.261719 523.507812 1351.082031 526.089844 1367.371094 542.648438 C 1383.65625 559.070312 1391.800781 579.023438 1393.429688 606.574219 C 1394.378906 622.726562 1392.34375 636.164062 1387.730469 645.121094 C 1383.113281 654.078125 1368.183594 672.128906 1356.917969 682.445312 C 1339.410156 698.460938 1322.039062 704.976562 1295.433594 705.382812 C 1281.046875 705.652344 1280.097656 705.519531 1271.683594 701.3125 C 1254.71875 692.894531 1214.679688 660.863281 1162.558594 614.175781 C 1127 582.277344 1109.492188 567.621094 1086.417969 550.246094 C 1030.90625 508.578125 988.285156 488.628906 943.902344 483.742188 C 930.058594 482.25 925.582031 482.25 909.292969 483.878906 Z M 909.292969 483.878906 " fill-opacity="1" fill-rule="nonzero"/><g clip-path="url(#fb5b4ca97c)"><g clip-path="url(#8c157fb5cc)"><path fill="#ffffff" d="M 355.46875 1178.082031 L 394.742188 1178.082031 L 394.742188 1208.457031 L 355.46875 1208.457031 Z M 355.46875 1178.082031 " fill-opacity="1" fill-rule="nonzero"/></g></g></svg>