<svg xmlns="http://www.w3.org/2000/svg" xmlns:xlink="http://www.w3.org/1999/xlink" width="2000" zoomAndPan="magnify" viewBox="0 0 1500 1499.999933" height="2000" preserveAspectRatio="xMidYMid meet" version="1.0"><defs><clipPath id="3805ce5ec6"><path d="M 358.433594 1181 L 391.65625 1181 L 391.65625 1205.609375 L 358.433594 1205.609375 Z M 358.433594 1181 " clip-rule="nonzero"/></clipPath><clipPath id="6f6595d564"><path d="M 372.269531 1182.359375 C 381.644531 1187.683594 382.917969 1187.007812 384.417969 1187.457031 C 386.070312 1187.984375 388.242188 1189.035156 389.445312 1190.457031 C 390.644531 1191.882812 391.542969 1194.058594 391.617188 1195.933594 C 391.769531 1197.734375 391.09375 1200.058594 390.117188 1201.558594 C 389.070312 1203.132812 387.195312 1204.558594 385.46875 1205.160156 C 383.667969 1205.757812 381.34375 1205.757812 379.542969 1205.160156 C 377.820312 1204.558594 375.867188 1202.832031 374.894531 1201.632812 C 374.144531 1200.734375 373.84375 1200.058594 373.617188 1198.933594 C 373.320312 1197.433594 373.46875 1194.582031 373.917969 1193.082031 C 374.21875 1192.035156 374.820312 1191.285156 375.417969 1190.535156 C 376.09375 1189.785156 376.695312 1189.109375 377.667969 1188.582031 C 379.09375 1187.910156 381.570312 1187.160156 383.445312 1187.308594 C 385.242188 1187.535156 387.417969 1188.507812 388.769531 1189.785156 C 390.117188 1190.984375 391.167969 1193.082031 391.542969 1194.882812 C 391.84375 1196.757812 391.46875 1199.082031 390.570312 1200.734375 C 389.742188 1202.382812 388.019531 1203.957031 386.367188 1204.785156 C 384.644531 1205.535156 382.695312 1205.609375 380.519531 1205.457031 C 377.742188 1205.234375 373.917969 1204.035156 370.917969 1202.757812 C 367.992188 1201.484375 364.769531 1199.382812 362.742188 1197.808594 C 361.46875 1196.683594 360.417969 1195.859375 359.742188 1194.660156 C 358.992188 1193.457031 358.46875 1192.035156 358.46875 1190.535156 C 358.46875 1188.660156 359.21875 1185.957031 360.417969 1184.382812 C 361.695312 1182.808594 364.019531 1181.457031 365.96875 1181.082031 C 367.917969 1180.785156 372.269531 1182.359375 372.269531 1182.359375 " clip-rule="nonzero"/></clipPath></defs><path fill="#6a2186" d="M 475.007812 500.851562 C 423.808594 506.21875 371.714844 531.59375 334.15625 569.492188 C 285.863281 618.117188 259.480469 684.074219 262.386719 748.910156 C 265.851562 824.8125 307.214844 898.480469 369.703125 939.621094 C 395.863281 956.835938 431.410156 972.148438 455.332031 976.507812 C 476.574219 980.308594 531.238281 979.640625 556.277344 975.28125 C 582.660156 970.695312 609.488281 959.070312 638.105469 939.84375 C 674.101562 915.695312 704.285156 879.703125 721.5 840.464844 C 735.359375 808.941406 741.957031 776.1875 741.957031 738.847656 C 741.957031 709.894531 738.492188 687.648438 730.21875 661.714844 C 702.382812 575.078125 620.890625 511.25 524.53125 500.851562 C 512.121094 499.398438 488.199219 499.511719 475.007812 500.851562 Z M 523.636719 568.929688 C 566.898438 575.972656 590.707031 587.042969 616.308594 611.859375 C 633.746094 628.851562 644.253906 643.941406 657.109375 670.769531 C 670.414062 698.269531 671.753906 706.09375 670.859375 749.914062 C 670.1875 783.898438 669.183594 789.042969 659.011719 809.835938 C 633.074219 862.484375 586.796875 900.160156 533.695312 911.671875 C 522.742188 914.019531 492.558594 915.136719 489.09375 913.238281 C 486.632812 912.007812 486.632812 911.894531 488.644531 909.660156 C 491.550781 906.308594 500.160156 900.941406 520.058594 890.097656 C 548.339844 874.78125 562.539062 864.164062 575.617188 848.734375 C 590.371094 831.519531 606.132812 802.792969 609.039062 788.035156 C 612.730469 769.144531 612.171875 707.882812 608.148438 693.574219 C 602 671.328125 587.019531 647.070312 567.566406 627.957031 C 549.792969 610.40625 538.277344 602.46875 511.671875 589.613281 C 491.441406 579.773438 487.863281 577.316406 487.863281 572.957031 C 487.863281 566.136719 499.042969 564.90625 523.636719 568.929688 Z M 534.703125 610.515625 C 535.484375 613.757812 536.265625 617.335938 536.378906 618.339844 C 536.492188 619.460938 536.9375 620.6875 537.386719 621.023438 C 537.832031 621.472656 538.167969 623.035156 538.167969 624.601562 C 538.167969 626.167969 539.0625 628.066406 540.179688 628.851562 C 541.96875 630.191406 541.855469 630.414062 539.398438 633.097656 C 537.050781 635.667969 536.9375 636.003906 538.613281 636.003906 C 540.179688 636.003906 540.515625 636.5625 539.957031 638.6875 C 539.398438 640.921875 539.621094 641.257812 541.519531 640.8125 C 542.863281 640.476562 544.203125 638.574219 545.097656 635.890625 C 545.769531 633.433594 546.773438 631.53125 547.335938 631.53125 C 548.339844 631.53125 549.570312 633.992188 549.90625 636.898438 C 550.128906 639.132812 551.246094 642.375 552.921875 645.394531 C 553.816406 647.070312 553.59375 647.742188 552.027344 648.636719 C 550.128906 649.753906 550.128906 649.867188 552.027344 650.535156 C 554.152344 651.207031 555.382812 656.460938 555.160156 663.949219 C 555.046875 666.074219 555.605469 669.09375 556.277344 670.546875 C 557.394531 672.671875 557.394531 673.339844 556.054688 674.460938 C 555.160156 675.128906 553.148438 678.707031 551.695312 682.394531 C 547 694.023438 518.15625 751.59375 515.808594 753.941406 C 513.574219 756.0625 513.574219 756.0625 511.339844 753.941406 C 507.425781 749.914062 490.097656 710.007812 490.097656 704.867188 C 490.097656 703.859375 491.105469 702.183594 492.445312 700.953125 L 494.792969 698.828125 L 492.445312 698.046875 C 491.105469 697.710938 490.097656 696.929688 490.097656 696.371094 C 490.097656 694.132812 491.550781 691.898438 493.003906 691.898438 C 495.351562 691.898438 494.90625 689.886719 492.445312 689.101562 C 489.09375 688.097656 488.535156 684.96875 491.214844 682.953125 C 493.339844 681.277344 493.453125 680.941406 491.886719 679.714844 C 489.652344 677.8125 489.539062 676.246094 491.777344 676.246094 C 492.667969 676.246094 493.117188 675.578125 492.78125 674.570312 C 492.445312 673.675781 493.117188 671.550781 494.347656 669.875 C 496.023438 667.527344 496.246094 666.074219 495.578125 664.0625 C 494.457031 661.15625 496.136719 657.914062 498.371094 659.03125 C 499.042969 659.367188 498.707031 658.921875 497.699219 658.027344 C 495.015625 655.902344 495.128906 651.988281 497.8125 651.09375 C 500.046875 650.425781 500.046875 650.425781 497.8125 648.1875 C 495.015625 645.394531 495.6875 643.160156 499.152344 643.492188 L 501.835938 643.71875 L 499.378906 642.488281 C 496.582031 641.144531 496.023438 638.6875 498.148438 638.015625 C 499.042969 637.679688 499.601562 634.886719 499.710938 630.527344 C 499.710938 626.167969 500.382812 623.148438 501.277344 622.589844 C 502.058594 622.140625 502.394531 621.25 501.949219 620.578125 C 501.613281 619.90625 501.726562 619.125 502.394531 618.675781 C 502.953125 618.339844 503.511719 617 503.511719 615.769531 C 503.511719 614.652344 504.183594 613.648438 505.078125 613.648438 C 506.195312 613.648438 506.980469 615.433594 507.539062 618.902344 C 507.984375 621.917969 508.878906 624.601562 509.4375 625.050781 C 510.332031 625.496094 510.21875 626.613281 509.328125 628.625 C 508.320312 630.863281 508.320312 631.308594 509.550781 630.863281 C 512.121094 629.855469 512.792969 632.652344 510.667969 634.996094 C 508.878906 637.011719 508.878906 637.121094 511.113281 637.121094 C 513.6875 637.121094 514.246094 638.796875 512.457031 641.59375 C 511.898438 642.597656 511.898438 643.71875 512.679688 644.613281 C 513.238281 645.394531 513.574219 646.734375 513.238281 647.519531 C 512.902344 648.300781 513.351562 649.867188 514.246094 650.984375 C 515.027344 652.214844 515.472656 653.554688 515.140625 654.113281 C 513.574219 656.460938 513.6875 661.828125 515.25 662.496094 C 516.144531 662.832031 516.929688 663.949219 516.929688 664.957031 C 516.929688 666.1875 517.933594 666.859375 520.058594 667.082031 C 521.734375 667.191406 522.515625 666.859375 521.734375 666.410156 C 521.0625 665.964844 520.058594 664.175781 519.722656 662.496094 C 519.050781 660.039062 519.273438 659.480469 520.953125 659.480469 C 522.964844 659.367188 522.964844 659.367188 521.175781 658.25 C 518.941406 657.019531 518.492188 653.890625 520.394531 653.890625 C 521.175781 653.890625 521.398438 652.773438 520.953125 650.984375 C 520.28125 648.414062 520.503906 648.1875 522.628906 648.859375 C 524.753906 649.53125 524.976562 649.417969 524.304688 647.070312 C 522.515625 640.8125 522.292969 637.121094 523.523438 637.121094 C 524.417969 637.121094 524.640625 636.226562 524.195312 634.996094 C 523.859375 633.769531 524.304688 632.089844 525.421875 631.085938 C 526.542969 629.855469 526.988281 628.289062 526.542969 626.503906 C 526.09375 624.824219 526.316406 623.707031 526.988281 623.707031 C 527.660156 623.707031 527.996094 623.261719 527.660156 622.703125 C 527.210938 622.140625 527.4375 621.472656 528.105469 621.25 C 528.890625 621.023438 528.890625 619.683594 528.21875 617.222656 C 527.660156 615.324219 527.4375 613.648438 527.882812 613.648438 C 528.890625 613.648438 531.460938 608.167969 531.460938 606.15625 C 531.460938 602.691406 533.25 605.152344 534.703125 610.515625 Z M 428.390625 612.753906 C 429.0625 615.992188 429.957031 621.136719 430.402344 624.265625 C 430.851562 627.285156 431.96875 630.414062 432.863281 631.085938 C 434.429688 632.203125 434.429688 632.652344 432.75 635.222656 C 431.1875 637.570312 431.1875 638.128906 432.527344 638.6875 C 433.757812 639.132812 433.871094 639.917969 433.199219 641.929688 C 432.417969 644.054688 432.527344 644.5 434.429688 644.5 C 436.105469 644.5 436.441406 643.941406 435.992188 642.039062 C 435.546875 640.585938 435.992188 638.796875 436.777344 638.015625 C 437.671875 637.234375 438.117188 636.003906 437.894531 635.332031 C 437.335938 633.65625 439.570312 628.179688 440.800781 628.179688 C 441.359375 628.179688 442.140625 630.078125 442.589844 632.316406 C 443.035156 634.664062 443.929688 637.234375 444.488281 638.015625 C 445.382812 639.023438 445.382812 640.253906 444.488281 642.039062 C 443.484375 644.386719 443.59375 644.835938 445.71875 645.394531 L 448.179688 646.066406 L 445.496094 648.300781 C 443.035156 650.425781 443.035156 650.535156 445.160156 650.535156 C 447.058594 650.535156 447.394531 651.207031 447.171875 655.789062 C 447.058594 659.03125 447.621094 661.9375 448.625 663.058594 C 449.742188 664.398438 449.855469 665.402344 448.960938 666.410156 C 448.402344 667.191406 447.953125 669.09375 448.066406 670.546875 C 448.179688 673.898438 450.972656 675.128906 450.972656 671.886719 C 450.972656 670.660156 451.53125 669.316406 452.089844 668.980469 C 452.761719 668.644531 453.207031 666.859375 453.207031 664.957031 C 453.207031 663.167969 453.769531 661.714844 454.328125 661.714844 C 454.996094 661.714844 455.445312 661.042969 455.332031 660.261719 C 454.996094 658.136719 456.675781 654.894531 457.792969 655.679688 C 458.351562 656.015625 458.796875 657.46875 458.796875 659.03125 C 458.796875 660.484375 459.355469 661.714844 459.917969 661.714844 C 460.585938 661.714844 461.035156 663.726562 461.035156 666.1875 C 461.035156 668.644531 461.703125 671.664062 462.488281 672.894531 C 463.605469 674.792969 463.492188 675.6875 462.039062 678.371094 C 460.25 681.390625 460.25 681.5 462.824219 680.941406 C 466.957031 680.160156 467.628906 683.847656 463.941406 687.089844 L 460.921875 689.664062 L 464.277344 689.664062 C 468.078125 689.664062 468.410156 690.332031 466.398438 694.804688 C 465.171875 697.375 465.28125 697.933594 467.183594 699.277344 C 468.972656 700.617188 469.082031 701.175781 467.742188 703.636719 C 466.398438 706.09375 466.511719 706.652344 467.964844 707.882812 C 470.757812 710.121094 471.09375 712.800781 468.746094 714.925781 C 466.734375 716.714844 466.734375 716.9375 468.636719 718.28125 C 470.425781 719.734375 470.425781 719.957031 468.523438 721.074219 C 466.511719 722.304688 466.511719 722.417969 468.636719 724.652344 C 469.863281 725.992188 471.09375 729.125 471.542969 731.582031 C 471.988281 734.042969 474.113281 740.414062 476.347656 745.78125 C 481.15625 757.292969 483.28125 757.515625 482.496094 746.449219 C 482.050781 739.964844 482.160156 739.519531 483.839844 740.972656 C 485.515625 742.425781 485.628906 742.3125 484.507812 739.40625 C 483.839844 737.507812 483.726562 735.941406 484.285156 735.605469 C 484.84375 735.273438 485.628906 733.820312 486.074219 732.363281 C 487.191406 729.125 488.980469 729.234375 488.980469 732.589844 C 488.980469 734.152344 489.539062 735.71875 490.210938 736.164062 C 490.882812 736.5 491.214844 738.289062 490.769531 740.078125 C 490.324219 742.539062 490.546875 743.320312 491.777344 743.320312 C 493.898438 743.320312 493.898438 745.222656 491.777344 749.246094 C 490.210938 752.261719 490.324219 752.375 492.335938 751.703125 C 495.351562 750.699219 496.804688 754.277344 494.234375 756.175781 C 491.886719 757.851562 491.777344 759.417969 494.011719 758.523438 C 496.359375 757.628906 497.363281 760.648438 495.910156 764 C 495.015625 765.902344 495.015625 766.90625 495.800781 767.464844 C 496.46875 767.800781 496.804688 769.480469 496.46875 771.15625 C 496.136719 772.945312 496.582031 774.84375 497.589844 775.960938 C 499.152344 777.75 499.152344 778.199219 497.589844 780.65625 C 495.910156 783.117188 495.910156 783.453125 497.589844 784.011719 C 499.152344 784.683594 499.152344 784.90625 497.476562 786.804688 C 495.6875 788.816406 495.6875 789.042969 498.035156 790.605469 C 499.824219 791.949219 500.269531 793.066406 499.710938 795.191406 C 499.378906 796.753906 499.042969 805.027344 498.929688 813.636719 C 498.929688 822.800781 498.484375 829.621094 497.8125 830.066406 C 497.140625 830.515625 497.140625 831.1875 497.699219 831.96875 C 498.371094 832.75 498.929688 834.203125 499.152344 835.320312 C 499.488281 837.109375 501.054688 836.441406 509.996094 831.074219 L 520.394531 824.8125 L 531.238281 831.632812 C 551.46875 844.488281 551.695312 844.824219 547.109375 847.28125 C 545.433594 848.175781 544.09375 847.953125 541.296875 846.164062 C 539.285156 844.933594 536.601562 844.042969 535.371094 844.042969 C 533.917969 844.152344 534.476562 844.601562 536.9375 845.382812 C 540.625 846.613281 540.625 846.613281 539.957031 852.203125 C 539.621094 855.332031 539.285156 860.808594 539.285156 864.386719 L 539.285156 870.757812 L 515.25 870.648438 C 495.910156 870.421875 490.992188 870.085938 490.210938 868.859375 C 489.539062 867.515625 489.09375 867.515625 487.976562 868.96875 C 486.074219 871.316406 481.828125 871.429688 482.609375 869.082031 C 483.054688 868.1875 482.832031 867.179688 482.273438 866.847656 C 481.714844 866.511719 481.042969 867.292969 480.597656 868.523438 C 479.925781 870.535156 479.144531 870.757812 472.996094 870.3125 C 469.195312 870.085938 465.953125 869.753906 465.839844 869.753906 C 465.617188 869.640625 465.503906 868.746094 465.503906 867.628906 C 465.503906 866.621094 465.171875 866.175781 464.609375 866.847656 C 463.269531 868.746094 458.351562 870.648438 455.445312 870.421875 L 452.648438 870.199219 L 452.316406 830.738281 L 451.980469 791.164062 L 426.9375 740.75 C 413.1875 712.914062 400.332031 687.316406 398.320312 683.625 C 395.078125 678.035156 394.855469 676.917969 396.308594 675.800781 C 397.203125 675.128906 397.761719 673.675781 397.539062 672.558594 C 397.316406 671.550781 397.761719 670.660156 398.433594 670.660156 C 399.550781 670.660156 399.550781 670.324219 398.433594 668.980469 C 397.316406 667.640625 397.425781 666.96875 398.992188 665.515625 C 400.222656 664.175781 400.667969 662.609375 400.222656 660.375 C 399.773438 657.914062 399.996094 657.242188 401.5625 657.242188 C 402.679688 657.242188 403.015625 656.910156 402.234375 656.347656 C 399.664062 654.5625 399.550781 651.542969 402.121094 650.648438 C 404.359375 649.753906 404.359375 649.53125 402.679688 648.859375 C 401.5625 648.414062 400.667969 647.40625 400.667969 646.511719 C 400.667969 645.617188 401.5625 644.945312 402.679688 644.945312 C 404.46875 644.835938 404.46875 644.835938 402.679688 643.71875 C 400.332031 642.375 399.996094 639.359375 402.121094 639.359375 C 402.902344 639.359375 403.574219 637.34375 403.796875 633.992188 C 404.023438 631.085938 404.582031 628.625 405.027344 628.402344 C 405.585938 628.179688 405.8125 627.0625 405.476562 625.941406 C 405.140625 624.714844 405.476562 623.707031 406.144531 623.707031 C 406.816406 623.707031 407.375 622.925781 407.375 622.03125 C 407.375 619.125 409.5 620.242188 410.28125 623.371094 C 410.617188 625.160156 411.398438 627.621094 412.070312 628.960938 C 412.742188 630.191406 412.964844 631.867188 412.519531 632.425781 C 412.183594 632.984375 412.628906 633.878906 413.636719 634.214844 C 414.976562 634.773438 415.199219 635.222656 414.195312 636.453125 C 413.1875 637.570312 413.300781 638.238281 414.640625 639.359375 C 415.761719 640.253906 415.984375 641.257812 415.3125 642.039062 C 414.640625 642.824219 414.640625 643.941406 415.199219 644.945312 C 415.761719 645.839844 415.984375 647.40625 415.761719 648.300781 C 415.425781 649.195312 416.207031 650.648438 417.4375 651.429688 C 420.121094 653.109375 420.230469 652.214844 418.332031 645.730469 C 417.214844 642.152344 417.214844 641.144531 418.332031 640.699219 C 419.113281 640.476562 419.671875 638.574219 419.671875 636.5625 C 419.671875 634.550781 420.34375 632.652344 421.125 632.316406 C 422.132812 631.980469 422.132812 631.308594 421.125 629.632812 C 420.121094 627.84375 420.121094 627.0625 421.347656 625.832031 C 422.132812 624.9375 423.027344 621.695312 423.25 618.453125 C 423.472656 615.210938 424.03125 612.304688 424.480469 611.859375 C 424.925781 611.410156 425.261719 609.847656 425.261719 608.390625 C 425.261719 603.921875 427.050781 606.492188 428.390625 612.753906 Z M 548.226562 864.386719 C 548.226562 867.292969 547.894531 867.515625 544.652344 867.179688 C 541.855469 866.957031 541.074219 866.285156 540.738281 863.9375 C 540.402344 861.367188 540.738281 861.144531 544.316406 861.144531 C 547.894531 861.144531 548.226562 861.480469 548.226562 864.386719 Z M 548.226562 864.386719 " fill-opacity="1" fill-rule="nonzero"/><path fill="#6a2186" d="M 540.402344 645.507812 C 539.507812 646.511719 539.507812 647.183594 540.179688 647.183594 C 541.519531 647.183594 543.085938 645.058594 542.304688 644.277344 C 542.078125 644.054688 541.1875 644.5 540.402344 645.507812 Z M 540.402344 645.507812 " fill-opacity="1" fill-rule="nonzero"/><path fill="#6a2186" d="M 512.566406 669.652344 C 514.582031 670.882812 518.382812 670.882812 517.597656 669.652344 C 517.261719 669.09375 515.699219 668.644531 514.019531 668.644531 C 512.007812 668.644531 511.5625 668.980469 512.566406 669.652344 Z M 512.566406 669.652344 " fill-opacity="1" fill-rule="nonzero"/><path fill="#6a2186" d="M 517.488281 676.246094 C 515.472656 678.371094 515.585938 678.484375 517.820312 678.484375 C 519.164062 678.484375 520.28125 677.925781 520.28125 677.367188 C 520.28125 676.695312 521.175781 676.246094 522.292969 676.246094 C 523.859375 676.246094 523.96875 676.023438 522.515625 675.128906 C 520.167969 673.675781 519.835938 673.675781 517.488281 676.246094 Z M 517.488281 676.246094 " fill-opacity="1" fill-rule="nonzero"/><path fill="#6a2186" d="M 432.75 648.746094 C 432.191406 650.089844 432.75 650.535156 435.097656 650.425781 C 436.886719 650.425781 437.445312 650.089844 436.441406 649.753906 C 435.546875 649.417969 434.429688 648.636719 434.09375 648.078125 C 433.757812 647.519531 433.085938 647.742188 432.75 648.746094 Z M 432.75 648.746094 " fill-opacity="1" fill-rule="nonzero"/><path fill="#6a2186" d="M 415.648438 656.238281 C 415.648438 657.355469 416.09375 658.363281 416.542969 658.363281 C 416.988281 658.363281 417.4375 657.691406 417.4375 656.796875 C 417.4375 655.902344 416.988281 654.894531 416.542969 654.5625 C 416.09375 654.335938 415.648438 655.007812 415.648438 656.238281 Z M 415.648438 656.238281 " fill-opacity="1" fill-rule="nonzero"/><path fill="#6a2186" d="M 449.519531 678.484375 C 447.953125 680.382812 447.84375 680.71875 449.296875 680.71875 C 450.300781 680.71875 451.308594 679.9375 451.753906 679.042969 C 452.761719 676.359375 451.644531 676.023438 449.519531 678.484375 Z M 449.519531 678.484375 " fill-opacity="1" fill-rule="nonzero"/><path fill="#6a2186" d="M 452.984375 689.328125 C 453.769531 689.664062 454.773438 689.550781 455.109375 689.214844 C 455.554688 688.878906 454.886719 688.542969 453.65625 688.65625 C 452.425781 688.65625 452.089844 688.992188 452.984375 689.328125 Z M 452.984375 689.328125 " fill-opacity="1" fill-rule="nonzero"/><path fill="#6a2186" d="M 457.121094 842.8125 C 456.785156 843.371094 457.007812 843.929688 457.570312 843.929688 C 458.238281 843.929688 458.796875 843.371094 458.796875 842.8125 C 458.796875 842.140625 458.574219 841.695312 458.351562 841.695312 C 458.015625 841.695312 457.457031 842.140625 457.121094 842.8125 Z M 457.121094 842.8125 " fill-opacity="1" fill-rule="nonzero"/><path fill="#6a2186" d="M 502.171875 844.710938 C 502.84375 844.933594 504.183594 844.933594 504.964844 844.710938 C 505.636719 844.375 505.078125 844.152344 503.511719 844.152344 C 501.949219 844.152344 501.390625 844.375 502.171875 844.710938 Z M 502.171875 844.710938 " fill-opacity="1" fill-rule="nonzero"/><path fill="#6a2186" d="M 488.980469 848.402344 C 488.085938 848.960938 487.640625 849.742188 487.976562 850.078125 C 488.421875 850.414062 489.316406 849.964844 490.097656 848.960938 C 491.664062 847.058594 491.328125 846.835938 488.980469 848.402344 Z M 488.980469 848.402344 " fill-opacity="1" fill-rule="nonzero"/><path fill="#6a2186" d="M 522.292969 851.417969 C 525.3125 853.542969 525.421875 854.773438 522.851562 855.445312 C 521.734375 855.777344 523.523438 856.003906 526.765625 856.113281 C 531.90625 856.226562 532.578125 856.003906 532.578125 853.992188 C 532.578125 852.3125 531.796875 851.753906 529.335938 851.753906 C 527.4375 851.753906 525.648438 851.195312 525.3125 850.636719 C 524.976562 849.964844 523.523438 849.519531 522.183594 849.628906 L 519.722656 849.628906 Z M 531.460938 853.992188 C 531.460938 854.550781 531.011719 855.109375 530.34375 855.109375 C 529.785156 855.109375 529.222656 854.550781 529.222656 853.992188 C 529.222656 853.320312 529.785156 852.871094 530.34375 852.871094 C 531.011719 852.871094 531.460938 853.320312 531.460938 853.992188 Z M 531.460938 853.992188 " fill-opacity="1" fill-rule="nonzero"/><path fill="#6a2186" d="M 480.148438 853.542969 C 480.148438 854.773438 480.484375 855.109375 480.820312 854.214844 C 481.15625 853.429688 481.042969 852.425781 480.707031 852.089844 C 480.375 851.644531 480.039062 852.3125 480.148438 853.542969 Z M 480.148438 853.542969 " fill-opacity="1" fill-rule="nonzero"/><path fill="#6a2186" d="M 488.308594 860.808594 C 489.652344 861.703125 491.105469 861.703125 492.78125 860.921875 C 494.792969 859.914062 494.570312 859.691406 490.65625 859.691406 C 486.96875 859.691406 486.523438 859.804688 488.308594 860.808594 Z M 488.308594 860.808594 " fill-opacity="1" fill-rule="nonzero"/><path fill="#6a2186" d="M 482.945312 862.820312 C 482.609375 863.378906 482.945312 864.050781 483.726562 864.386719 C 484.621094 864.722656 485.292969 864.273438 485.292969 863.378906 C 485.292969 861.59375 483.839844 861.257812 482.945312 862.820312 Z M 482.945312 862.820312 " fill-opacity="1" fill-rule="nonzero"/><path fill="#6a2186" d="M 469.976562 865.839844 C 469.976562 866.734375 470.535156 867.179688 471.09375 866.847656 C 471.765625 866.398438 471.988281 865.617188 471.652344 865.058594 C 470.648438 863.492188 469.976562 863.828125 469.976562 865.839844 Z M 469.976562 865.839844 " fill-opacity="1" fill-rule="nonzero"/><path fill="#6a2186" d="M 1049.039062 503.089844 C 970.226562 511.136719 900.136719 560.769531 862.351562 635.445312 C 831.386719 696.480469 827.699219 761.207031 851.730469 822.691406 C 879.566406 893.898438 932.441406 944.539062 1003.652344 967.902344 C 1031.488281 976.957031 1052.839844 980.421875 1080.785156 980.421875 C 1106.496094 980.421875 1128.519531 976.957031 1151.882812 969.132812 C 1240.417969 939.507812 1304.027344 860.25 1314.085938 767.019531 C 1315.761719 750.921875 1314.867188 712.019531 1312.296875 697.488281 C 1304.027344 649.195312 1285.355469 613.3125 1248.578125 575.75 C 1219.960938 546.460938 1195.703125 529.582031 1164.179688 517.0625 C 1132.097656 504.429688 1088.609375 499.0625 1049.039062 503.089844 Z M 1107.390625 568.929688 C 1162.277344 580.894531 1205.316406 614.988281 1231.363281 667.304688 C 1244.441406 693.464844 1246.230469 702.519531 1246.230469 742.761719 C 1246.230469 782.558594 1245.113281 788.257812 1233.488281 812.070312 C 1207.886719 864.050781 1164.289062 898.816406 1104.929688 914.46875 C 1088.609375 918.828125 1069.71875 920.167969 1065.246094 917.261719 C 1061.894531 915.027344 1061.667969 911.894531 1064.800781 907.535156 C 1068.042969 902.839844 1073.855469 899.265625 1096.769531 887.191406 C 1122.929688 873.441406 1132.207031 867.179688 1144.726562 854.660156 C 1162.835938 836.664062 1179.046875 807.488281 1183.964844 784.121094 C 1186.203125 773.390625 1187.320312 722.640625 1185.53125 709.558594 C 1182.066406 683.179688 1160.601562 643.605469 1139.699219 624.601562 C 1118.570312 605.484375 1080.671875 584.582031 1067.148438 584.582031 C 1062.339844 584.582031 1057.980469 582.011719 1057.980469 579.105469 C 1057.980469 576.757812 1062.789062 572.0625 1067.816406 569.492188 C 1076.539062 565.128906 1089.167969 565.019531 1107.390625 568.929688 Z M 1045.683594 596.320312 C 1045.683594 596.65625 1046.464844 600.789062 1047.359375 605.375 C 1048.367188 609.957031 1048.8125 614.207031 1048.480469 614.765625 C 1048.144531 615.433594 1048.367188 615.882812 1049.039062 615.882812 C 1049.707031 615.882812 1050.15625 616.777344 1050.042969 617.78125 C 1049.933594 618.902344 1049.933594 621.472656 1050.042969 623.484375 C 1050.15625 626.726562 1050.492188 627.0625 1052.390625 626.503906 C 1055.410156 625.496094 1055.410156 629.183594 1052.28125 633.097656 C 1050.265625 635.667969 1050.265625 636.003906 1051.945312 636.003906 C 1053.398438 636.003906 1053.621094 636.675781 1053.171875 639.359375 C 1052.503906 642.152344 1052.839844 642.710938 1054.628906 642.710938 C 1057.535156 642.710938 1057.421875 643.382812 1053.957031 648.078125 C 1051.050781 651.878906 1051.050781 651.878906 1053.507812 651.09375 C 1055.746094 650.425781 1055.96875 650.648438 1055.410156 652.773438 C 1054.960938 654.5625 1055.1875 655.007812 1056.414062 654.5625 C 1059.320312 653.441406 1058.09375 658.027344 1054.960938 660.484375 L 1051.832031 662.722656 L 1055.746094 662.832031 C 1057.867188 662.832031 1060.441406 662.273438 1061.335938 661.714844 C 1062.453125 661.042969 1062.5625 660.597656 1061.667969 660.597656 C 1058.652344 660.597656 1060.214844 657.242188 1063.347656 657.132812 C 1065.917969 656.910156 1066.03125 656.910156 1063.90625 656.460938 C 1060.886719 655.902344 1060.664062 654.671875 1063.121094 652.660156 C 1064.015625 651.878906 1064.578125 650.3125 1064.351562 649.195312 C 1063.683594 646.960938 1065.804688 640.476562 1067.148438 640.476562 C 1067.59375 640.476562 1068.042969 639.46875 1068.042969 638.238281 C 1068.042969 635.109375 1070.277344 635.445312 1070.390625 638.464844 C 1070.5 639.917969 1070.949219 636.226562 1071.507812 630.414062 C 1071.953125 624.601562 1072.847656 618.453125 1073.519531 616.664062 C 1074.972656 613.085938 1077.878906 611.523438 1079.445312 613.757812 C 1081.007812 616.21875 1079.554688 631.085938 1076.539062 641.816406 C 1074.75 647.964844 1074.191406 651.878906 1074.859375 652.324219 C 1075.53125 652.660156 1075.753906 653.667969 1075.417969 654.5625 C 1075.085938 655.457031 1075.308594 656.125 1075.980469 656.125 C 1076.648438 656.125 1076.984375 657.46875 1076.761719 659.144531 C 1076.539062 661.15625 1076.984375 662.273438 1077.878906 662.164062 C 1078.550781 662.050781 1080.339844 661.9375 1081.679688 661.828125 C 1083.804688 661.714844 1083.914062 661.601562 1082.351562 660.261719 C 1079.667969 658.136719 1078.773438 654 1080.785156 653.21875 C 1083.019531 652.324219 1083.019531 650.089844 1080.898438 648.300781 C 1078.4375 646.175781 1078.886719 644.945312 1082.125 644.945312 L 1085.035156 644.945312 L 1082.574219 642.933594 C 1079.890625 640.699219 1080.339844 638.238281 1083.355469 638.238281 C 1084.808594 638.238281 1084.808594 637.90625 1083.691406 636.5625 C 1082.574219 635.222656 1082.574219 634.214844 1083.582031 632.316406 C 1084.25 630.972656 1084.808594 628.289062 1084.699219 626.503906 C 1084.699219 621.808594 1086.039062 615.882812 1087.15625 615.882812 C 1087.714844 615.882812 1088.164062 614.875 1088.164062 613.648438 C 1088.164062 612.417969 1088.609375 611.410156 1089.28125 611.410156 C 1090.621094 611.410156 1092.636719 618.902344 1091.851562 621.023438 C 1091.515625 621.917969 1091.964844 622.589844 1093.082031 622.589844 C 1095.429688 622.589844 1095.429688 625.832031 1093.082031 629.183594 C 1091.292969 631.644531 1091.292969 631.757812 1093.527344 631.085938 C 1096.660156 630.078125 1097.777344 632.316406 1095.316406 634.996094 C 1093.527344 637.011719 1093.527344 637.121094 1095.765625 637.121094 C 1098.449219 637.121094 1098.785156 638.351562 1097.105469 641.59375 C 1096.210938 643.269531 1096.4375 643.941406 1097.890625 644.835938 C 1099.453125 645.730469 1099.566406 646.289062 1098.449219 648.746094 C 1097.328125 651.207031 1097.441406 651.65625 1098.785156 651.65625 C 1100.683594 651.65625 1101.019531 655.679688 1099.230469 656.796875 C 1098.335938 657.242188 1098.335938 657.800781 1099.230469 658.695312 C 1100.011719 659.480469 1100.011719 660.375 1099.34375 661.15625 C 1098.113281 662.609375 1101.128906 665.515625 1104.039062 665.738281 C 1105.601562 665.851562 1105.714844 665.515625 1104.820312 663.839844 C 1104.039062 662.164062 1104.148438 661.269531 1105.492188 659.925781 C 1106.496094 658.808594 1106.945312 657.242188 1106.496094 655.457031 C 1106.050781 653.890625 1106.273438 652.773438 1106.945312 652.773438 C 1107.613281 652.773438 1108.507812 650.984375 1108.957031 648.859375 C 1109.292969 646.625 1109.960938 645.171875 1110.296875 645.507812 C 1111.640625 646.847656 1114.878906 656.460938 1114.320312 657.46875 C 1113.988281 657.914062 1114.320312 658.363281 1114.878906 658.363281 C 1115.550781 658.363281 1116.109375 659.589844 1116.109375 661.15625 C 1116.109375 663.167969 1116.667969 663.949219 1118.347656 663.949219 C 1120.695312 663.949219 1121.476562 666.632812 1119.464844 667.863281 C 1118.121094 668.757812 1119.128906 673.003906 1120.917969 674.234375 C 1121.699219 674.683594 1121.699219 675.464844 1120.804688 676.472656 C 1119.800781 677.699219 1120.132812 678.484375 1122.257812 680.046875 C 1125.835938 682.730469 1125.722656 683.625 1122.035156 684.96875 C 1118.90625 686.085938 1119.015625 686.085938 1123.152344 686.195312 C 1125.390625 686.308594 1127.289062 686.753906 1127.289062 687.425781 C 1127.289062 687.984375 1126.84375 688.542969 1126.28125 688.542969 C 1125.722656 688.542969 1125.054688 689.773438 1124.828125 691.339844 C 1124.382812 693.464844 1124.71875 694.132812 1126.28125 694.132812 C 1128.964844 694.132812 1128.964844 694.804688 1126.171875 698.269531 C 1123.601562 701.625 1123.375 703.078125 1125.390625 703.078125 C 1126.507812 703.078125 1126.953125 705.425781 1127.066406 712.242188 C 1127.175781 717.386719 1127.511719 723.421875 1127.960938 725.65625 L 1128.628906 729.90625 L 1079.554688 729.90625 L 1078.214844 725.097656 C 1077.433594 722.527344 1075.980469 719.175781 1075.085938 717.722656 L 1073.296875 714.925781 L 1072.179688 717.722656 C 1071.617188 719.175781 1070.722656 725.546875 1070.277344 731.917969 C 1069.496094 742.539062 1068.824219 745.667969 1067.484375 744.328125 C 1067.257812 743.992188 1066.589844 739.742188 1066.03125 734.9375 C 1065.46875 730.019531 1064.910156 727.222656 1064.800781 728.789062 C 1064.6875 730.351562 1064.242188 732.253906 1063.683594 733.148438 C 1062.898438 734.378906 1062.453125 733.59375 1061.894531 730.351562 C 1061.558594 728.003906 1060.664062 724.09375 1059.992188 721.746094 C 1058.539062 716.9375 1057.535156 717.832031 1056.304688 725.097656 C 1055.855469 727.78125 1055.1875 729.90625 1054.738281 729.90625 C 1054.179688 729.90625 1053.507812 726.550781 1053.0625 722.304688 C 1052.28125 715.039062 1050.378906 707.546875 1049.039062 707.546875 C 1048.253906 707.546875 1044.566406 720.402344 1044.566406 723.535156 C 1044.566406 724.875 1044.007812 726.664062 1043.449219 727.222656 C 1042.777344 727.894531 1041.769531 731.582031 1041.101562 735.605469 C 1039.757812 744.328125 1038.304688 746.226562 1037.300781 740.414062 C 1036.964844 737.953125 1035.957031 733.820312 1035.0625 731.023438 C 1034.28125 728.230469 1033.277344 724.09375 1032.941406 721.746094 C 1030.816406 709.671875 1026.566406 724.761719 1025.675781 747.679688 C 1024.78125 769.703125 1026.007812 799.324219 1028.132812 806.035156 C 1030.59375 813.96875 1035.957031 821.125 1040.09375 822.019531 C 1044.117188 822.800781 1044.117188 825.261719 1040.316406 825.820312 C 1038.753906 826.042969 1037.859375 827.050781 1037.859375 828.277344 C 1037.859375 829.84375 1038.863281 830.515625 1041.769531 830.738281 C 1044.007812 830.960938 1045.683594 831.519531 1045.683594 832.191406 C 1045.683594 832.75 1044.007812 833.421875 1041.769531 833.644531 C 1037.859375 833.980469 1037.859375 833.980469 1037.859375 839.570312 C 1037.859375 843.707031 1038.304688 845.046875 1039.535156 845.046875 C 1040.429688 845.046875 1041.210938 845.828125 1041.210938 846.722656 C 1041.210938 847.617188 1040.429688 848.402344 1039.535156 848.402344 C 1037.300781 848.402344 1037.410156 851.308594 1039.648438 852.203125 C 1040.652344 852.535156 1043.335938 852.871094 1045.796875 852.871094 C 1048.144531 852.871094 1050.15625 853.320312 1050.15625 853.992188 C 1050.15625 854.550781 1048.253906 855.109375 1046.019531 855.109375 C 1038.640625 855.109375 1037.078125 856.003906 1037.636719 859.578125 C 1037.859375 861.257812 1037.523438 863.605469 1036.964844 864.832031 C 1035.847656 866.734375 1036.183594 866.847656 1039.648438 866.511719 C 1044.453125 865.953125 1044.679688 868.074219 1039.871094 868.96875 C 1035.0625 869.863281 1030.929688 868.96875 1029.363281 866.847656 C 1028.46875 865.726562 1027.910156 865.503906 1027.574219 866.285156 C 1027.015625 868.074219 1012.929688 861.59375 1009.242188 857.902344 C 1007.675781 856.226562 1006 855.21875 1005.664062 855.554688 C 1004.769531 856.449219 999.851562 851.644531 999.851562 849.964844 C 999.851562 849.070312 999.179688 848.734375 998.285156 849.070312 C 997.28125 849.40625 996.160156 848.625 995.269531 847.058594 C 994.484375 845.605469 992.136719 842.363281 989.902344 839.90625 C 987.667969 837.332031 984.425781 831.855469 982.746094 827.71875 C 977.15625 814.195312 976.265625 807.039062 975.371094 766.796875 C 974.476562 731.582031 974.585938 729.125 976.488281 726.441406 C 978.5 723.535156 978.5 723.421875 976.265625 722.863281 C 972.910156 721.96875 974.027344 718.726562 978.613281 716.378906 C 981.628906 714.703125 981.964844 714.253906 980.066406 714.253906 C 977.15625 714.253906 973.46875 711.125 972.464844 707.882812 C 971.902344 705.871094 972.351562 705.425781 975.257812 704.753906 L 978.835938 703.972656 L 976.488281 701.511719 C 973.582031 698.382812 973.582031 697.488281 976.265625 697.488281 C 977.492188 697.488281 978.835938 696.929688 979.171875 696.371094 C 979.503906 695.699219 979.28125 695.25 978.722656 695.25 C 976.933594 695.25 977.269531 692.457031 979.503906 688.320312 C 981.519531 684.410156 981.742188 682.507812 980.289062 679.152344 C 979.730469 677.8125 979.730469 676.808594 980.398438 676.582031 C 983.867188 675.351562 984.199219 674.460938 982.414062 670.660156 C 980.625 667.191406 980.625 666.859375 982.523438 665.402344 C 983.753906 664.621094 985.652344 663.949219 986.882812 663.839844 C 988.558594 663.839844 988.671875 663.617188 987.554688 663.167969 C 983.082031 661.492188 978.5 654.5625 982.300781 655.121094 C 982.972656 655.230469 984.871094 655.230469 986.4375 655.121094 C 989.121094 654.894531 989.007812 654.894531 985.652344 653.332031 C 980.511719 651.09375 980.957031 648.636719 986.773438 647.40625 C 989.453125 646.734375 990.347656 646.289062 988.894531 646.175781 C 985.652344 646.066406 984.535156 643.160156 986.773438 640.699219 C 988 639.359375 988.335938 637.234375 987.890625 632.875 C 987.21875 626.613281 987.777344 625.941406 991.355469 628.960938 C 992.808594 630.304688 993.253906 630.414062 992.472656 629.296875 C 991.800781 628.402344 990.90625 626.277344 990.460938 624.488281 C 989.902344 622.140625 990.125 621.472656 991.46875 621.472656 C 992.472656 621.472656 993.03125 621.023438 992.695312 620.464844 C 991.800781 619.125 993.03125 615.882812 994.375 615.882812 C 994.933594 615.882812 995.378906 617.222656 995.378906 618.789062 C 995.378906 620.464844 996.273438 622.476562 997.390625 623.261719 C 998.957031 624.488281 999.070312 625.050781 997.949219 626.949219 C 996.496094 629.296875 997.726562 631.195312 999.851562 629.855469 C 1000.523438 629.410156 1000.96875 630.972656 1000.96875 633.65625 C 1000.96875 636.898438 1000.523438 638.238281 999.402344 638.238281 C 998.507812 638.238281 997.503906 638.6875 997.054688 639.246094 C 996.722656 639.917969 998.0625 640.027344 1000.410156 639.691406 C 1003.761719 639.132812 1004.324219 639.359375 1004.324219 641.257812 C 1004.324219 642.488281 1003.203125 644.054688 1001.863281 644.722656 C 999.292969 645.839844 999.292969 645.953125 1002.421875 645.953125 C 1004.882812 646.066406 1005.441406 646.625 1005.441406 648.746094 C 1005.441406 650.3125 1004.992188 651.765625 1004.324219 652.214844 C 1002.871094 653.109375 1004.210938 656.125 1006.109375 656.125 C 1008.125 656.125 1008.125 656.574219 1006 660.597656 C 1004.324219 663.839844 1004.324219 663.949219 1006.671875 663.949219 C 1008.683594 663.949219 1008.90625 664.398438 1008.347656 666.96875 C 1007.898438 668.757812 1007.5625 671.21875 1007.5625 672.558594 C 1007.675781 673.898438 1007.117188 675.351562 1006.445312 675.6875 C 1004.769531 676.808594 1007.453125 679.601562 1010.136719 679.601562 C 1011.363281 679.601562 1011.925781 679.042969 1011.589844 678.371094 C 1011.140625 677.8125 1011.699219 675.464844 1012.707031 673.339844 C 1013.9375 670.660156 1014.382812 668.085938 1013.824219 665.515625 C 1013.265625 662.050781 1013.378906 661.714844 1015.726562 661.714844 C 1018.074219 661.601562 1018.183594 661.492188 1016.394531 660.148438 C 1013.824219 658.25 1013.824219 654.226562 1016.507812 652.882812 C 1017.625 652.214844 1018.742188 651.878906 1018.964844 651.988281 C 1019.191406 652.101562 1018.296875 651.320312 1016.953125 650.199219 C 1013.9375 647.742188 1013.488281 643.828125 1016.394531 643.828125 C 1018.074219 643.71875 1018.074219 643.605469 1016.171875 642.152344 C 1013.601562 640.253906 1014.273438 639.359375 1019.191406 637.457031 L 1022.765625 636.226562 L 1019.75 636.117188 C 1016.394531 636.003906 1015.390625 633.320312 1018.40625 632.203125 C 1019.75 631.644531 1019.972656 630.527344 1019.300781 626.277344 C 1018.632812 622.03125 1018.855469 621.25 1020.195312 621.695312 C 1021.425781 622.253906 1021.648438 621.582031 1021.3125 619.125 C 1020.980469 617.222656 1021.3125 615.882812 1022.097656 615.882812 C 1022.765625 615.882812 1023.214844 615.546875 1023.214844 614.988281 C 1023.101562 614.539062 1023.101562 613.421875 1023.214844 612.527344 C 1023.550781 609.285156 1026.679688 614.988281 1026.679688 618.902344 C 1026.679688 620.914062 1027.238281 622.589844 1027.796875 622.589844 C 1029.25 622.589844 1029.25 626.613281 1027.796875 629.183594 C 1026.902344 630.863281 1027.128906 631.085938 1029.476562 630.636719 C 1032.828125 630.078125 1033.164062 631.980469 1030.367188 635.222656 C 1029.25 636.453125 1029.027344 637.121094 1029.808594 636.675781 C 1030.59375 636.226562 1032.714844 636.5625 1034.503906 637.570312 C 1037.746094 639.132812 1037.746094 639.132812 1036.628906 637.011719 C 1035.175781 634.105469 1036.40625 628.179688 1038.53125 628.179688 C 1039.871094 628.179688 1039.871094 627.730469 1038.417969 624.824219 C 1036.851562 621.695312 1036.851562 621.359375 1038.976562 619.234375 C 1040.988281 617.222656 1041.210938 616.105469 1040.542969 611.746094 C 1039.984375 607.945312 1040.09375 606.828125 1041.101562 607.386719 C 1041.996094 608.058594 1042.21875 607.386719 1041.660156 605.375 C 1041.210938 603.585938 1041.4375 602.46875 1042.21875 602.46875 C 1042.890625 602.46875 1043.449219 600.902344 1043.449219 599.113281 C 1043.449219 597.214844 1044.007812 595.761719 1044.566406 595.761719 C 1045.238281 595.761719 1045.683594 595.984375 1045.683594 596.320312 Z M 1117.117188 744.101562 C 1122.257812 745.445312 1116.445312 746.5625 1103.589844 746.5625 C 1091.070312 746.675781 1086.820312 746.003906 1089.503906 744.328125 C 1091.183594 743.207031 1113.203125 742.984375 1117.117188 744.101562 Z M 1112.644531 755.730469 C 1121.476562 756.289062 1129.523438 757.292969 1130.53125 757.851562 C 1131.984375 758.746094 1131.871094 758.859375 1129.859375 758.96875 C 1127.511719 758.96875 1127.511719 759.082031 1127.066406 791.054688 L 1126.617188 823.25 L 1123.042969 829.957031 C 1118.90625 837.558594 1113.203125 844.375 1111.640625 843.371094 C 1111.078125 843.035156 1110.519531 843.929688 1110.296875 845.269531 C 1110.074219 846.613281 1108.171875 848.960938 1106.050781 850.300781 C 1103.925781 851.753906 1101.242188 853.65625 1100.125 854.550781 C 1099.117188 855.445312 1097.664062 856.226562 1097.105469 856.226562 C 1096.4375 856.226562 1095.988281 856.898438 1095.988281 857.792969 C 1095.988281 860.921875 1076.539062 869.753906 1073.632812 867.964844 C 1072.960938 867.628906 1072.511719 867.851562 1072.511719 868.410156 C 1072.511719 869.753906 1068.9375 869.976562 1063.683594 868.96875 C 1059.546875 868.074219 1058.988281 866.285156 1062.898438 866.285156 C 1067.929688 866.285156 1068.601562 865.503906 1068.265625 860.136719 C 1067.816406 855.667969 1067.484375 855.109375 1065.136719 855.109375 C 1063.234375 855.109375 1062.453125 855.777344 1062.453125 857.34375 C 1062.453125 858.574219 1063.234375 859.578125 1064.128906 859.578125 C 1065.023438 859.578125 1065.804688 860.027344 1065.804688 860.699219 C 1065.804688 861.257812 1065.136719 861.816406 1064.242188 861.816406 C 1063.347656 861.816406 1062.453125 862.261719 1062.230469 862.710938 C 1061.894531 863.714844 1043.671875 862.484375 1042.664062 861.367188 C 1041.324219 860.027344 1043.335938 859.355469 1049.933594 858.796875 C 1056.527344 858.125 1056.640625 858.125 1055.632812 855.445312 C 1054.066406 851.308594 1054.402344 846.613281 1056.527344 844.933594 C 1058.203125 843.480469 1057.980469 843.257812 1055.074219 842.699219 C 1053.285156 842.253906 1049.933594 841.917969 1047.695312 841.804688 C 1040.878906 841.582031 1043 838.339844 1049.933594 838.339844 C 1052.503906 838.226562 1052.726562 838.117188 1051.050781 837.109375 C 1049.820312 836.441406 1049.039062 834.652344 1049.039062 832.75 C 1049.039062 829.171875 1050.828125 827.386719 1052.726562 829.285156 C 1053.398438 829.957031 1055.074219 830.515625 1056.527344 830.515625 C 1058.09375 830.515625 1059.097656 831.1875 1059.097656 832.191406 C 1059.097656 833.085938 1058.652344 833.867188 1058.09375 833.867188 C 1057.535156 833.867188 1056.863281 834.875 1056.527344 836.105469 C 1055.96875 838.117188 1056.527344 838.339844 1060.886719 838.339844 C 1064.351562 838.339844 1066.476562 837.667969 1068.042969 836.105469 L 1070.277344 833.867188 L 1066.921875 833.867188 C 1063.347656 833.867188 1062.453125 832.304688 1065.246094 831.1875 C 1066.140625 830.851562 1066.921875 829.507812 1066.921875 828.277344 C 1066.921875 826.714844 1066.140625 826.042969 1064.351562 826.042969 C 1062.898438 826.042969 1060.777344 825.261719 1059.546875 824.367188 C 1057.535156 822.914062 1057.757812 822.800781 1062.339844 822.691406 C 1066.699219 822.691406 1067.816406 822.128906 1071.617188 817.882812 C 1077.320312 811.734375 1079.21875 808.15625 1080.003906 801.339844 C 1080.5625 796.308594 1080.449219 795.859375 1078.324219 795.859375 C 1073.964844 795.859375 1072.625 797.203125 1070.835938 803.460938 C 1067.816406 813.746094 1067.929688 813.410156 1066.921875 810.953125 C 1066.363281 809.722656 1065.359375 806.257812 1064.464844 803.351562 L 1063.011719 797.871094 L 1061.667969 801.113281 C 1060.886719 802.792969 1060.328125 806.144531 1060.214844 808.382812 C 1060.214844 813.300781 1058.316406 818.554688 1056.972656 817.769531 C 1056.527344 817.4375 1055.746094 814.753906 1055.410156 811.847656 C 1055.074219 808.828125 1053.507812 803.910156 1051.945312 800.890625 L 1049.039062 795.300781 L 1050.265625 778.535156 C 1050.828125 769.253906 1051.609375 761.207031 1051.832031 760.425781 C 1052.390625 758.746094 1058.652344 755.839844 1063.011719 755.28125 C 1069.941406 754.386719 1097.105469 754.609375 1112.644531 755.730469 Z M 1044.007812 785.910156 C 1044.902344 792.617188 1043.671875 808.15625 1042.21875 808.15625 C 1041.660156 808.15625 1041.210938 801.898438 1041.210938 794.183594 C 1041.210938 779.875 1042.664062 775.738281 1044.007812 785.910156 Z M 1052.390625 823.808594 C 1052.390625 824.253906 1051.609375 824.925781 1050.714844 825.261719 C 1048.925781 826.042969 1047.472656 824.367188 1048.480469 822.691406 C 1049.148438 821.570312 1052.390625 822.464844 1052.390625 823.808594 Z M 1050.15625 846.722656 C 1050.15625 847.617188 1049.148438 848.402344 1047.917969 848.402344 C 1046.691406 848.402344 1045.683594 847.617188 1045.683594 846.722656 C 1045.683594 845.828125 1046.691406 845.046875 1047.917969 845.046875 C 1049.148438 845.046875 1050.15625 845.828125 1050.15625 846.722656 Z M 1054.628906 867.40625 C 1054.628906 867.964844 1053.398438 868.523438 1051.832031 868.523438 C 1050.265625 868.523438 1049.039062 867.964844 1049.039062 867.40625 C 1049.039062 866.734375 1050.265625 866.285156 1051.832031 866.285156 C 1053.398438 866.285156 1054.628906 866.734375 1054.628906 867.40625 Z M 1054.628906 867.40625 " fill-opacity="1" fill-rule="nonzero"/><path fill="#6a2186" d="M 1031.824219 641.035156 C 1031.488281 642.152344 1031.710938 643.71875 1032.382812 644.5 C 1033.050781 645.394531 1033.277344 647.292969 1032.941406 648.859375 C 1032.382812 650.871094 1032.714844 651.65625 1033.835938 651.65625 C 1034.730469 651.65625 1035.734375 652.324219 1035.957031 652.996094 C 1037.078125 655.679688 1035.289062 647.070312 1033.945312 643.160156 C 1032.941406 640.027344 1032.382812 639.582031 1031.824219 641.035156 Z M 1031.824219 641.035156 " fill-opacity="1" fill-rule="nonzero"/><path fill="#6a2186" d="M 1077.65625 666.074219 C 1077.320312 666.632812 1077.765625 667.304688 1078.660156 667.75 C 1079.554688 668.085938 1080.339844 667.863281 1080.339844 667.304688 C 1080.339844 665.851562 1078.324219 664.84375 1077.65625 666.074219 Z M 1077.65625 666.074219 " fill-opacity="1" fill-rule="nonzero"/><path fill="#6a2186" d="M 1059.65625 667.304688 C 1059.320312 667.863281 1059.992188 668.421875 1061.335938 668.421875 C 1062.675781 668.421875 1063.347656 667.863281 1063.011719 667.304688 C 1062.675781 666.632812 1061.894531 666.1875 1061.335938 666.1875 C 1060.777344 666.1875 1059.992188 666.632812 1059.65625 667.304688 Z M 1059.65625 667.304688 " fill-opacity="1" fill-rule="nonzero"/><path fill="#6a2186" d="M 1059.097656 673.453125 C 1059.097656 674.347656 1059.882812 675.128906 1060.777344 675.128906 C 1061.78125 675.128906 1062.117188 674.460938 1061.78125 673.453125 C 1061.335938 672.558594 1060.664062 671.777344 1060.105469 671.777344 C 1059.546875 671.777344 1059.097656 672.558594 1059.097656 673.453125 Z M 1059.097656 673.453125 " fill-opacity="1" fill-rule="nonzero"/><path fill="#6a2186" d="M 1006.222656 688.65625 C 1007.003906 689.4375 1007.898438 689.773438 1008.234375 689.4375 C 1008.570312 689.101562 1008.011719 688.433594 1006.894531 688.097656 C 1005.328125 687.425781 1005.21875 687.539062 1006.222656 688.65625 Z M 1006.222656 688.65625 " fill-opacity="1" fill-rule="nonzero"/><path fill="#6a2186" d="M 1010.472656 853.992188 C 1010.136719 854.550781 1010.359375 855.109375 1010.917969 855.109375 C 1011.589844 855.109375 1012.148438 854.550781 1012.148438 853.992188 C 1012.148438 853.320312 1011.925781 852.871094 1011.699219 852.871094 C 1011.363281 852.871094 1010.804688 853.320312 1010.472656 853.992188 Z M 1010.472656 853.992188 " fill-opacity="1" fill-rule="nonzero"/><path fill="#6a2186" d="M 1024.667969 856.449219 C 1023.773438 859.019531 1023.660156 860.363281 1024.554688 861.257812 C 1025.339844 862.039062 1025.449219 861.816406 1025.003906 860.472656 C 1024.445312 859.019531 1025.003906 858.238281 1027.238281 857.34375 C 1029.808594 856.335938 1030.035156 855.890625 1028.914062 854.550781 C 1026.902344 852.089844 1026.234375 852.425781 1024.667969 856.449219 Z M 1024.667969 856.449219 " fill-opacity="1" fill-rule="nonzero"/><path fill="#6a2186" d="M 1111.640625 833.867188 C 1111.640625 834.425781 1112.199219 834.988281 1112.757812 834.988281 C 1113.425781 834.988281 1113.875 834.425781 1113.875 833.867188 C 1113.875 833.199219 1113.425781 832.75 1112.757812 832.75 C 1112.199219 832.75 1111.640625 833.199219 1111.640625 833.867188 Z M 1111.640625 833.867188 " fill-opacity="1" fill-rule="nonzero"/><path fill="#6a2186" d="M 1063.792969 842.476562 C 1060.886719 843.035156 1061.558594 845.046875 1064.800781 845.046875 C 1065.917969 845.046875 1066.921875 844.265625 1066.921875 843.371094 C 1066.921875 842.476562 1066.8125 841.804688 1066.699219 841.804688 C 1066.476562 841.917969 1065.246094 842.253906 1063.792969 842.476562 Z M 1063.792969 842.476562 " fill-opacity="1" fill-rule="nonzero"/><path fill="#6a2186" d="M 1062.453125 849.964844 C 1062.453125 850.972656 1063.234375 851.308594 1064.6875 850.972656 C 1068.152344 850.078125 1068.488281 848.402344 1065.359375 848.402344 C 1063.570312 848.402344 1062.453125 849.070312 1062.453125 849.964844 Z M 1062.453125 849.964844 " fill-opacity="1" fill-rule="nonzero"/><path fill="#6a2186" d="M 1084.808594 853.878906 C 1084.808594 854.996094 1088.050781 857.902344 1088.609375 857.230469 C 1088.722656 857.007812 1087.941406 855.890625 1086.820312 854.773438 C 1085.703125 853.765625 1084.808594 853.320312 1084.808594 853.878906 Z M 1084.808594 853.878906 " fill-opacity="1" fill-rule="nonzero"/><path fill="#6a2186" d="M 1077.542969 862.933594 C 1075.753906 864.164062 1074.75 865.167969 1075.417969 865.167969 C 1076.648438 865.167969 1082.574219 860.808594 1081.457031 860.699219 C 1081.121094 860.699219 1079.445312 861.703125 1077.542969 862.933594 Z M 1077.542969 862.933594 " fill-opacity="1" fill-rule="nonzero"/><g clip-path="url(#3805ce5ec6)"><g clip-path="url(#6f6595d564)"><path fill="#ffffff" d="M 355.46875 1178.082031 L 394.742188 1178.082031 L 394.742188 1208.457031 L 355.46875 1208.457031 Z M 355.46875 1178.082031 " fill-opacity="1" fill-rule="nonzero"/></g></g></svg>