<?xml version="1.0" standalone="no"?>
<!DOCTYPE svg PUBLIC "-//W3C//DTD SVG 20010904//EN"
 "http://www.w3.org/TR/2001/REC-SVG-20010904/DTD/svg10.dtd">
<svg version="1.0" xmlns="http://www.w3.org/2000/svg"
 viewBox="0 0 170.000000 300.000000"
 preserveAspectRatio="xMidYMid meet">

<g transform="translate(0.000000,300.000000) scale(0.100000,-0.100000)"
fill="#6a2186" stroke="none"  width="3.000000pt" height="100.000000pt"  >
<path d="M780 2931 c0 -28 -4 -40 -11 -35 -8 5 -9 -6 -5 -37 7 -42 6 -43 -10
-24 -16 20 -16 20 -10 -5 16 -64 19 -103 8 -96 -8 5 -12 -4 -13 -26 0 -18 -3
-27 -6 -20 -2 6 -12 12 -21 12 -12 0 -11 -4 6 -23 29 -31 30 -71 2 -62 -16 5
-19 3 -13 -10 3 -10 0 -21 -8 -25 -11 -7 -10 -15 4 -45 24 -50 21 -62 -8 -35
l-25 23 0 -36 c0 -20 4 -37 9 -37 5 0 11 -17 15 -37 3 -21 9 -49 13 -62 4 -18
3 -22 -8 -19 -8 3 -13 11 -11 17 2 11 -10 15 -35 12 -7 -1 -13 3 -13 9 0 5 5
10 12 10 6 0 8 3 5 7 -4 3 -2 12 4 20 15 17 -18 56 -40 48 -9 -3 -4 4 12 16
15 11 27 29 27 39 0 15 -5 17 -27 11 -31 -9 -53 -4 -53 11 0 6 7 7 16 4 22 -9
67 39 50 53 -7 6 -17 6 -26 1 -8 -6 -23 -10 -34 -10 -17 0 -17 1 3 18 26 21
42 85 18 76 -18 -7 -31 11 -21 28 11 17 13 48 3 48 -4 0 -10 12 -14 27 -4 19
-9 23 -14 14 -5 -7 -6 -22 -3 -34 4 -15 2 -18 -8 -12 -10 6 -12 3 -8 -13 4
-13 1 -22 -5 -22 -7 0 -4 -5 6 -11 9 -5 17 -18 17 -27 -1 -15 -2 -15 -15 2
-17 23 -33 14 -29 -16 1 -13 3 -23 4 -23 2 0 4 -11 5 -24 2 -15 -6 -32 -19
-42 -19 -16 -20 -18 -3 -24 9 -4 26 -5 37 -2 11 3 20 2 20 -3 0 -10 -26 -31
-36 -29 -5 1 -20 -2 -33 -8 l-24 -10 21 -21 c14 -14 28 -19 39 -15 15 6 16 4
6 -8 -8 -10 -23 -14 -43 -11 -16 2 -30 1 -30 -2 0 -18 35 -56 51 -56 11 0 19
-7 19 -16 0 -11 -6 -15 -20 -11 -11 3 -20 1 -20 -4 0 -5 -7 -9 -15 -9 -8 0
-15 -4 -15 -10 0 -5 5 -10 11 -10 8 0 8 -4 0 -14 -10 -12 -8 -16 11 -22 13 -4
27 -7 31 -6 5 2 7 -3 5 -10 -3 -7 -13 -13 -24 -14 -10 -1 -27 -5 -37 -9 -17
-7 -16 -9 4 -23 16 -11 18 -16 8 -23 -11 -6 -10 -11 6 -23 20 -15 20 -15 -3
-16 -19 0 -21 -4 -16 -25 5 -19 2 -25 -10 -25 -23 0 -20 -31 4 -37 11 -3 17
-9 14 -14 -8 -14 -64 -10 -80 5 -7 8 -19 16 -26 19 -9 3 -6 10 10 22 28 21 28
35 0 35 l-23 1 25 20 c22 19 39 70 22 68 -4 -1 -20 -1 -36 0 -28 1 -29 2 -10
16 10 8 15 15 10 15 -5 0 1 11 14 25 22 23 18 31 -12 26 -5 0 -8 5 -8 13 0 8
-5 16 -11 18 -8 3 -5 11 7 22 10 10 18 26 19 36 1 15 -7 17 -48 16 -34 -1 -51
3 -55 12 -3 11 0 12 17 3 17 -10 21 -9 21 4 0 9 5 13 10 10 5 -3 10 -1 10 6 0
7 3 10 6 6 3 -3 12 0 19 6 22 21 -1 37 -38 26 -41 -12 -57 -11 -57 1 0 6 7 10
15 10 8 0 15 5 15 10 0 6 7 10 16 10 8 0 12 5 9 10 -3 6 -3 16 1 22 10 16 13
48 4 48 -3 0 -11 -5 -18 -12 -9 -9 -12 -8 -12 6 0 9 -4 14 -10 11 -15 -9 -12
11 4 24 8 7 12 21 9 31 -6 23 -19 26 -26 8 -2 -7 -3 -1 -1 13 2 15 -1 39 -6
55 -7 26 -8 26 -9 6 -1 -15 -5 -21 -13 -16 -8 5 -9 2 -4 -12 5 -10 10 -28 13
-39 4 -18 3 -18 -7 -2 -14 21 -27 22 -27 2 0 -8 5 -15 10 -15 5 0 5 -6 -1 -13
-8 -9 -6 -16 8 -25 12 -7 17 -18 14 -27 -5 -13 -11 -11 -30 10 -13 14 -24 25
-26 25 -3 0 -2 -76 2 -87 1 -5 2 -12 1 -17 -1 -4 4 -14 10 -22 9 -11 8 -14 -3
-14 -8 0 -23 -9 -32 -19 -17 -19 -17 -20 4 -31 18 -10 24 -9 31 1 7 11 9 11 9
1 0 -10 5 -10 21 -2 19 11 20 10 9 -9 -8 -15 -21 -21 -45 -21 -19 0 -35 -4
-35 -10 0 -5 -6 -7 -14 -4 -8 3 -17 1 -20 -4 -8 -14 29 -44 58 -46 15 0 26 -7
26 -15 0 -10 -9 -12 -35 -8 -23 4 -33 2 -29 -5 4 -6 -1 -8 -15 -3 -16 5 -20 3
-15 -9 3 -9 10 -16 14 -16 5 0 12 -9 15 -20 4 -14 15 -20 37 -20 19 0 28 -4
25 -12 -2 -7 -15 -13 -28 -13 -13 0 -26 -2 -29 -5 -3 -3 -16 -11 -30 -17 -19
-9 -21 -12 -7 -12 13 -1 17 -7 15 -23 -2 -18 4 -25 30 -33 40 -12 36 -31 -7
-27 -17 1 -31 -2 -31 -8 0 -5 -8 -10 -17 -10 -14 0 -11 -6 12 -25 23 -19 26
-24 13 -25 -27 0 -22 -19 7 -26 35 -9 31 -24 -5 -24 -20 0 -30 -5 -30 -15 0
-8 5 -15 11 -15 5 0 7 -4 4 -10 -3 -5 -15 -10 -26 -10 -30 0 -25 -38 8 -46 24
-6 25 -8 9 -20 -9 -6 -28 -11 -42 -9 -13 1 -24 0 -24 -2 0 -13 35 -53 46 -53
8 0 14 -4 14 -9 0 -12 -26 -21 -62 -21 -26 0 -28 -2 -18 -15 6 -8 9 -19 5 -25
-3 -5 5 -15 19 -22 14 -6 26 -15 26 -20 0 -4 14 -8 31 -8 27 0 30 -2 19 -15
-7 -8 -21 -15 -31 -15 -11 0 -19 -4 -19 -9 0 -5 -9 -11 -20 -14 -25 -6 -16
-37 10 -37 32 0 32 -19 1 -50 -16 -16 -26 -32 -21 -35 4 -3 6 -14 3 -25 -3
-11 -1 -20 3 -20 5 0 9 -147 9 -327 0 -181 3 -362 8 -405 12 -122 57 -288 78
-288 5 0 6 -6 3 -13 -7 -20 70 -133 96 -140 15 -4 21 -11 17 -20 -3 -8 5 -25
19 -38 21 -20 29 -19 25 4 0 4 4 7 10 7 7 0 9 -10 5 -25 -4 -15 -2 -25 4 -25
6 0 21 -12 34 -26 l22 -27 -4 37 c-3 22 0 36 7 36 7 0 9 -9 5 -25 -4 -15 -2
-25 5 -25 6 0 11 -8 11 -18 0 -19 121 -89 150 -87 8 0 20 -6 27 -15 7 -8 13
-10 13 -5 0 6 5 3 10 -5 8 -13 10 -12 10 3 0 9 5 17 11 17 6 0 9 6 6 13 -9 23
6 35 35 30 24 -4 25 -7 15 -24 -14 -23 -29 -25 -21 -4 4 8 2 15 -4 15 -9 0
-28 -50 -20 -54 2 0 13 -7 26 -14 21 -12 33 0 12 13 -6 4 -4 12 5 22 9 8 19
12 23 9 3 -4 0 -11 -8 -16 -8 -5 -11 -12 -7 -16 15 -15 35 19 35 61 0 34 -3
42 -14 38 -8 -3 -11 -9 -8 -14 3 -5 0 -9 -5 -9 -6 0 -11 6 -11 13 0 24 46 42
125 48 l80 5 -81 2 c-78 2 -82 3 -86 27 -6 29 -2 35 24 35 10 0 18 5 18 10 0
6 -8 10 -19 10 -16 0 -19 8 -19 70 l-1 70 50 0 c31 0 48 4 44 10 -3 6 -26 10
-51 10 -44 0 -44 0 -44 35 0 33 2 35 36 35 21 0 33 4 29 10 -3 6 -21 10 -38
10 -24 0 -36 7 -50 28 -9 15 -28 42 -42 61 -14 19 -32 57 -40 85 -24 78 -38
347 -31 566 7 225 18 314 46 378 19 43 21 44 35 26 8 -10 15 -39 15 -63 0 -25
7 -52 15 -61 9 -10 18 -48 23 -89 4 -39 12 -73 17 -74 6 -1 14 35 19 82 6 60
13 88 27 102 14 14 19 33 19 73 0 31 5 56 11 58 6 2 13 25 16 51 4 37 9 47 22
45 9 -2 17 -15 19 -33 2 -17 7 -34 12 -40 4 -5 11 -46 15 -90 4 -44 10 -84 13
-90 4 -5 11 21 17 59 5 39 16 71 23 74 7 2 12 -5 12 -15 0 -11 5 -24 11 -30 6
-6 13 -38 16 -72 7 -79 23 -79 23 1 0 88 17 62 25 -37 3 -44 8 -96 11 -115 10
-65 25 -5 25 100 0 66 4 111 15 135 8 20 12 45 9 56 -4 10 -3 19 2 19 14 0 60
-78 73 -125 l13 -45 260 0 260 0 -7 61 c-3 34 -6 75 -6 92 0 21 -4 28 -15 24
-8 -4 -17 -2 -20 2 -2 5 4 11 15 14 25 6 27 37 3 37 -15 0 -13 4 7 20 24 19
24 20 4 20 -35 0 -38 30 -7 62 l27 28 -32 0 -32 0 17 27 c14 21 15 27 4 31
-10 3 -7 9 10 18 l24 13 -30 2 c-57 2 -65 4 -65 14 0 6 13 13 29 18 41 10 49
27 14 28 -15 0 -22 3 -15 6 24 9 11 19 -20 16 l-33 -4 35 31 35 30 -29 -6
c-26 -6 -27 -5 -17 14 15 28 14 32 -9 32 -26 0 -26 17 0 25 11 3 24 14 29 24
8 15 6 17 -17 13 -22 -3 -28 1 -30 17 -4 48 -6 52 -20 46 -12 -4 -12 -1 2 20
15 23 15 24 -1 18 -12 -5 -15 -2 -10 10 3 9 2 17 -3 17 -6 0 -10 12 -10 28 0
15 -5 34 -10 42 -8 12 -10 9 -10 -12 0 -16 -5 -28 -10 -28 -6 0 -8 -11 -4 -27
7 -26 6 -27 -11 -13 -17 14 -17 13 -10 -10 4 -14 10 -31 13 -39 3 -9 1 -12 -6
-7 -8 5 -12 0 -12 -13 0 -15 -4 -19 -17 -14 -17 7 -17 6 0 -11 27 -27 17 -57
-11 -33 -13 10 -15 9 -9 -5 3 -10 2 -18 -3 -18 -6 0 -10 7 -10 15 0 9 -11 21
-25 27 -24 11 -24 12 -9 30 16 17 16 18 1 18 -20 0 -22 16 -4 27 8 4 16 18 19
31 5 19 2 22 -25 22 -30 1 -31 1 -13 15 11 8 16 15 11 15 -5 0 -4 5 3 12 16
16 15 28 -2 28 -20 0 -29 30 -14 47 24 30 18 43 -19 40 -22 -1 -38 3 -40 11
-3 7 1 10 10 6 19 -7 63 34 50 47 -6 6 -20 6 -38 -1 -36 -14 -44 -5 -17 19 26
22 46 94 20 73 -13 -10 -16 -9 -21 8 -3 11 -1 22 3 25 4 3 1 28 -8 56 -12 38
-18 46 -23 32 -4 -10 -5 -29 -3 -43 2 -14 1 -19 -2 -12 -8 17 -21 15 -21 -3 0
-8 5 -15 11 -15 6 0 4 -4 -4 -10 -12 -8 -12 -10 3 -16 9 -3 17 -12 17 -20 0
-19 -16 -18 -24 2 -9 24 -25 7 -22 -24 2 -15 5 -29 6 -32 8 -17 3 -37 -14 -54
-15 -15 -16 -20 -5 -27 8 -4 25 -5 38 -2 17 4 22 2 19 -8 -2 -7 -23 -17 -46
-22 -23 -4 -42 -12 -42 -17 0 -15 48 -42 61 -34 7 4 10 2 7 -7 -3 -8 -13 -14
-24 -15 -59 -3 -60 -4 -41 -18 9 -7 17 -20 17 -29 0 -10 6 -13 20 -10 14 4 20
0 20 -12 0 -12 -6 -16 -20 -12 -11 3 -20 1 -20 -4 0 -5 -7 -9 -15 -9 -8 0 -15
-4 -15 -10 0 -5 4 -10 10 -10 5 0 7 -7 4 -15 -4 -9 3 -19 20 -26 28 -13 24
-34 -5 -26 -11 3 -19 1 -19 -4 0 -5 -11 -9 -24 -9 -25 0 -43 25 -26 35 6 4 10
13 10 21 0 10 -8 13 -29 9 -17 -3 -33 0 -37 7 -5 8 -2 9 9 5 10 -4 20 0 25 9
5 9 12 15 15 15 4 -1 6 2 5 7 -2 4 -19 5 -38 3 l-35 -3 23 18 c12 11 24 30 27
43 4 22 3 23 -14 7 -17 -16 -18 -15 -14 25 3 29 1 39 -7 34 -6 -4 -11 -1 -9 6
1 8 1 23 0 34 -1 17 -3 17 -11 5 -5 -8 -7 -23 -4 -32 4 -14 1 -16 -12 -11 -13
5 -16 3 -11 -10 3 -8 0 -21 -8 -27 -14 -11 -15 -27 -2 -47 4 -6 1 -14 -5 -16
-10 -4 -10 -6 1 -6 8 -1 4 -8 -10 -20 l-24 -19 27 -7 c15 -4 33 -3 40 1 10 6
10 4 0 -9 -8 -9 -21 -16 -30 -15 -61 5 -68 -18 -11 -38 33 -12 26 -18 -18 -14
-13 1 -23 -3 -23 -9 0 -11 -85 -9 -96 2 -10 9 6 28 31 37 13 5 29 19 35 31 11
20 10 21 -14 15 -25 -6 -36 7 -16 19 18 11 10 26 -10 20 -39 -12 -41 6 -5 47
19 23 33 43 31 45 -2 2 -15 -1 -30 -6 -31 -12 -30 -15 -11 38 14 41 14 41 -10
41 -31 0 -31 7 -1 39 38 41 46 97 9 60 -13 -13 -36 -3 -28 12 3 5 2 24 -3 42
-6 22 -6 40 0 51 9 15 7 17 -12 11 -21 -7 -21 -6 -5 24 10 20 12 31 4 31 -7 0
-9 9 -5 24 3 14 1 26 -5 28 -5 2 -12 25 -13 51 -5 64 -26 88 -26 28z m507
-203 c-3 -8 -6 -5 -6 6 -1 11 2 17 5 13 3 -3 4 -12 1 -19z m-467 -53 c-7 -9
-15 -13 -17 -11 -7 7 7 26 19 26 6 0 6 -6 -2 -15z m-256 -61 c3 -8 2 -12 -4
-9 -6 3 -10 10 -10 16 0 14 7 11 14 -7z m706 -5 c0 -6 -4 -7 -10 -4 -5 3 -10
11 -10 16 0 6 5 7 10 4 6 -3 10 -11 10 -16z m-990 -43 c0 -3 -4 -8 -10 -11 -5
-3 -10 -1 -10 4 0 6 5 11 10 11 6 0 10 -2 10 -4z m-40 -48 c0 -6 -7 -5 -15 2
-8 7 -15 17 -15 22 0 6 7 5 15 -2 8 -7 15 -17 15 -22z m514 -38 c-6 -5 -24 21
-24 34 0 6 6 1 14 -10 8 -10 12 -21 10 -24z m296 -50 c0 -5 -4 -10 -9 -10 -6
0 -13 5 -16 10 -3 6 1 10 9 10 9 0 16 -4 16 -10z m0 -50 c0 -5 -2 -10 -4 -10
-3 0 -8 5 -11 10 -3 6 -1 10 4 10 6 0 11 -4 11 -10z m-733 -36 c-3 -3 -12 -4
-19 -1 -8 3 -5 6 6 6 11 1 17 -2 13 -5z m353 -54 c0 -5 -5 -10 -11 -10 -5 0
-7 5 -4 10 3 6 8 10 11 10 2 0 4 -4 4 -10z m870 -34 c0 -3 -4 -8 -10 -11 -5
-3 -10 -1 -10 4 0 6 5 11 10 11 6 0 10 -2 10 -4z m-361 -40 c9 -11 9 -16 0
-22 -8 -5 -4 -11 11 -19 17 -9 19 -14 10 -20 -9 -6 -19 -1 -28 13 -8 12 -21
22 -29 22 -11 0 -11 4 -3 20 13 24 23 25 39 6z m-199 -6 c0 -5 12 -10 27 -10
44 0 13 -19 -42 -26 l-50 -7 25 26 c27 27 40 33 40 17z m455 -78 c-8 -9 -35
20 -28 31 4 6 11 3 19 -8 8 -10 12 -21 9 -23z m-465 14 c0 -7 10 -17 23 -21
23 -7 20 -9 -27 -20 -23 -5 -26 -9 -16 -15 20 -13 6 -23 -20 -15 l-22 7 21 22
c12 12 18 25 15 29 -8 7 4 27 17 27 5 0 9 -6 9 -14z m395 4 c3 -5 2 -10 -4
-10 -5 0 -13 5 -16 10 -3 6 -2 10 4 10 5 0 13 -4 16 -10z m-186 -34 c0 -7 -2
-6 -6 2 -2 6 -11 12 -19 12 -9 0 -12 5 -9 10 8 13 35 -6 34 -24z m286 24 c3
-5 1 -10 -4 -10 -6 0 -11 5 -11 10 0 6 2 10 4 10 3 0 8 -4 11 -10z m-75 -20
c0 -5 -2 -10 -4 -10 -3 0 -8 5 -11 10 -3 6 -1 10 4 10 6 0 11 -4 11 -10z m46
-77 c-7 -7 -26 7 -26 19 0 6 6 6 15 -2 9 -7 13 -15 11 -17z m-451 -3 c3 -5 -1
-10 -10 -10 -9 0 -13 5 -10 10 3 6 8 10 10 10 2 0 7 -4 10 -10z m-525 -49 c0
-11 -40 -22 -53 -14 -5 3 -3 9 4 14 18 11 49 11 49 0z m-68 -18 c22 -20 23
-33 3 -33 -8 0 -15 3 -15 8 0 4 -12 15 -27 24 l-28 17 24 1 c14 0 33 -7 43
-17z m560 -15 c-9 -9 -15 -9 -24 0 -9 9 -7 12 12 12 19 0 21 -3 12 -12z m-472
-67 c0 -5 -15 -14 -32 -20 l-33 -11 25 20 c27 21 40 25 40 11z m-70 -41 c0 -5
-4 -10 -9 -10 -6 0 -13 5 -16 10 -3 6 1 10 9 10 9 0 16 -4 16 -10z m-40 -1206
c0 -8 -4 -12 -10 -9 -5 3 -10 10 -10 16 0 5 5 9 10 9 6 0 10 -7 10 -16z m67
-56 c-3 -8 -6 -5 -6 6 -1 11 2 17 5 13 3 -3 4 -12 1 -19z m-72 -108 c-3 -5
-11 -10 -16 -10 -6 0 -7 5 -4 10 3 6 11 10 16 10 6 0 7 -4 4 -10z m47 -72 c-7
-7 -12 -8 -12 -2 0 6 3 14 7 17 3 4 9 5 12 2 2 -3 -1 -11 -7 -17z m-112 -18
c0 -11 -4 -20 -9 -20 -5 0 -7 9 -4 20 3 11 7 20 9 20 2 0 4 -9 4 -20z m390
-22 c0 -18 -2 -20 -9 -8 -6 8 -7 18 -5 22 9 14 14 9 14 -14z m-302 -12 c-7 -8
-16 -12 -21 -9 -11 7 2 23 19 23 12 0 12 -2 2 -14z m222 -31 c-7 -9 -15 -13
-18 -10 -3 2 1 11 8 20 7 9 15 13 18 10 3 -2 -1 -11 -8 -20z m-380 -5 c0 -5
-4 -10 -10 -10 -5 0 -10 5 -10 10 0 6 5 10 10 10 6 0 10 -4 10 -10z m60 -10
c0 -5 -4 -10 -10 -10 -5 0 -10 5 -10 10 0 6 5 10 10 10 6 0 10 -4 10 -10z
m275 -20 c3 -5 -1 -10 -10 -10 -9 0 -13 5 -10 10 3 6 8 10 10 10 2 0 7 -4 10
-10z m85 -22 c0 -6 -7 -5 -15 2 -8 7 -15 17 -15 22 0 6 7 5 15 -2 8 -7 15 -17
15 -22z m-64 -55 c-10 -10 -19 5 -10 18 6 11 8 11 12 0 2 -7 1 -15 -2 -18z
m84 12 c0 -8 -4 -15 -8 -15 -5 0 -9 7 -9 15 0 8 4 15 9 15 4 0 8 -7 8 -15z
m-180 -38 c0 -5 -4 -5 -10 -2 -5 3 -10 14 -10 23 0 15 2 15 10 2 5 -8 10 -19
10 -23z m75 3 c19 15 55 3 55 -18 0 -15 2 -15 11 -2 9 12 10 12 5 -3 -3 -10
-6 -23 -6 -28 0 -6 -6 -9 -12 -8 -28 3 -38 -2 -38 -21 0 -11 5 -20 10 -20 6 0
10 -4 10 -10 0 -17 -18 -11 -40 12 -13 14 -16 24 -9 28 6 4 16 19 24 33 13 26
13 26 -16 20 -16 -3 -29 -1 -29 4 0 15 14 25 18 13 3 -8 8 -8 17 0z m-121 -16
c10 -26 -4 -37 -25 -18 -15 13 -17 19 -7 26 19 11 25 10 32 -8z m80 -13 c17
-19 17 -19 -3 -14 -12 3 -21 12 -21 19 0 18 4 18 24 -5z m146 9 c0 -5 -5 -10
-11 -10 -5 0 -7 5 -4 10 3 6 8 10 11 10 2 0 4 -4 4 -10z m-164 -65 c19 -14 19
-14 -2 -15 -12 0 -24 7 -28 15 -7 19 5 19 30 0z"/>
<path d="M904 1206 c-17 -8 -34 -21 -38 -31 -3 -9 -6 -106 -6 -216 0 -190 1
-200 21 -220 16 -16 24 -41 29 -91 4 -38 11 -72 14 -76 13 -13 26 23 26 74 0
28 7 71 16 97 20 60 40 63 35 6 -1 -9 5 -22 14 -29 9 -7 15 -29 15 -51 0 -56
17 -48 25 11 4 28 11 50 15 50 5 0 10 17 12 38 3 37 3 37 51 40 l47 3 0 -58
c-1 -74 -23 -122 -91 -195 -53 -56 -55 -58 -114 -61 l-60 -3 63 -2 63 -2 -3
-37 c-2 -30 -8 -39 -28 -44 -24 -7 -24 -7 5 -10 17 -1 38 -2 48 -1 24 2 22
-15 -3 -23 -11 -3 -20 -15 -20 -26 0 -18 -8 -19 -130 -19 -80 0 -130 -4 -130
-10 0 -6 50 -10 130 -10 l130 0 0 -25 c0 -24 -2 -25 -70 -25 -40 0 -70 -4 -70
-10 0 -6 35 -10 86 -10 54 0 83 4 79 10 -3 5 -1 10 4 10 19 0 12 -22 -9 -27
-12 -3 -19 -12 -18 -22 2 -13 -8 -17 -52 -19 -81 -5 -88 -22 -8 -22 l65 0 -1
-55 c-1 -48 0 -53 14 -41 8 8 26 16 40 20 14 3 20 3 13 0 -7 -3 -9 -12 -6 -20
4 -11 10 -10 33 6 15 11 30 17 34 13 3 -3 6 2 6 12 0 14 3 16 11 8 9 -9 6 -19
-12 -40 -27 -31 -57 -36 -78 -12 -12 14 -16 13 -37 -8 -17 -17 -35 -23 -65
-23 -58 0 -46 -6 29 -14 56 -6 62 -5 62 11 0 12 3 14 8 6 6 -10 20 -9 62 3 85
24 90 26 90 35 0 5 9 9 20 9 11 0 20 7 20 15 0 8 -5 15 -11 15 -5 0 -7 5 -4
10 3 6 -3 10 -14 10 -12 0 -21 5 -21 10 0 6 -11 10 -24 10 -14 0 -28 4 -31 10
-4 6 5 10 21 10 22 0 24 2 14 14 -9 12 -8 15 9 13 14 -1 19 -8 18 -22 -1 -14
3 -19 16 -17 9 2 17 -3 17 -11 0 -7 6 -22 14 -32 14 -19 15 -19 34 -1 12 10
19 23 16 30 -3 8 4 12 18 12 16 -1 23 4 22 17 -1 9 2 17 7 17 5 0 9 -6 10 -12
0 -7 5 -3 11 10 6 12 17 22 24 22 21 0 75 52 70 66 -6 16 13 64 26 64 4 0 8
-8 8 -17 1 -13 10 -7 35 21 34 38 80 116 69 116 -3 0 4 11 15 25 19 25 20 42
21 380 l1 355 -373 0 c-290 -1 -380 -4 -404 -14z m440 -531 c-4 -8 -10 -15
-15 -15 -4 0 -6 7 -3 15 4 8 10 15 15 15 4 0 6 -7 3 -15z m316 -95 c0 -14 -7
-20 -22 -20 -21 0 -21 0 -2 19 24 25 24 25 24 1z m-115 -30 c3 -5 2 -10 -4
-10 -5 0 -13 5 -16 10 -3 6 -2 10 4 10 5 0 13 -4 16 -10z m-381 -35 c-4 -8
-10 -15 -15 -15 -4 0 -6 7 -3 15 4 8 10 15 15 15 4 0 6 -7 3 -15z m391 -43
c-7 -8 -35 13 -35 26 0 13 3 12 19 -4 10 -10 17 -20 16 -22z m14 -33 c-24 -15
-29 -10 -11 11 10 12 18 16 21 9 2 -6 -3 -15 -10 -20z m-379 6 c0 -8 -4 -15
-10 -15 -5 0 -10 7 -10 15 0 8 5 15 10 15 6 0 10 -7 10 -15z m430 -5 c0 -5 -2
-10 -4 -10 -3 0 -8 5 -11 10 -3 6 -1 10 4 10 6 0 11 -4 11 -10z m-74 -41 c6
-2 1 -14 -13 -27 -22 -21 -23 -22 -23 -3 0 28 12 54 19 43 3 -5 11 -11 17 -13z
m-236 -19 c0 -5 -5 -10 -11 -10 -5 0 -7 5 -4 10 3 6 8 10 11 10 2 0 4 -4 4
-10z m95 -21 c11 -17 -1 -21 -15 -4 -8 9 -8 15 -2 15 6 0 14 -5 17 -11z m10
-48 c-3 -6 -11 -11 -17 -11 -6 0 -6 6 2 15 14 17 26 13 15 -4z m68 4 c4 -8 2
-17 -3 -20 -6 -4 -10 -4 -10 -1 0 2 -3 11 -6 20 -3 9 -2 16 4 16 5 0 12 -7 15
-15z m-243 -46 c0 -5 -4 -9 -10 -9 -5 0 -10 7 -10 16 0 8 5 12 10 9 6 -3 10
-10 10 -16z m110 -5 c0 -8 -4 -12 -10 -9 -5 3 -10 10 -10 16 0 5 5 9 10 9 6 0
10 -7 10 -16z m-230 -4 c0 -5 -7 -10 -16 -10 -8 0 -12 5 -9 10 3 6 10 10 16
10 5 0 9 -4 9 -10z m340 6 c0 -3 -4 -8 -10 -11 -5 -3 -10 -1 -10 4 0 6 5 11
10 11 6 0 10 -2 10 -4z m-315 -16 c3 -5 1 -10 -4 -10 -6 0 -11 5 -11 10 0 6 2
10 4 10 3 0 8 -4 11 -10z m245 -9 c0 -6 -4 -13 -10 -16 -5 -3 -10 1 -10 9 0 9
5 16 10 16 6 0 10 -4 10 -9z m-63 -23 c-3 -8 -6 -5 -6 6 -1 11 2 17 5 13 3 -3
4 -12 1 -19z m-177 -8 c0 -5 -7 -10 -15 -10 -8 0 -15 5 -15 10 0 6 7 10 15 10
8 0 15 -4 15 -10z m140 -15 c-7 -8 -18 -15 -24 -15 -6 0 -2 7 8 15 25 19 32
19 16 0z m-172 -31 c-8 -8 -22 -12 -31 -8 -27 10 -20 21 15 22 27 1 29 -1 16
-14z m62 -23 c0 -5 -7 -15 -17 -22 -12 -10 -17 -11 -20 -2 -2 7 -12 10 -21 7
-14 -5 -13 -2 2 10 21 17 56 22 56 7z m145 -21 c-3 -5 -11 -10 -16 -10 -6 0
-7 5 -4 10 3 6 11 10 16 10 6 0 7 -4 4 -10z m-75 -15 c0 -2 -7 -8 -15 -15 -12
-10 -15 -10 -15 2 0 8 7 15 15 15 8 0 15 -1 15 -2z"/>
<path d="M825 500 c-4 -6 5 -10 20 -10 15 0 24 4 20 10 -3 6 -12 10 -20 10 -8
0 -17 -4 -20 -10z"/>
<path d="M850 410 c0 -5 23 -10 51 -10 31 0 48 4 44 10 -3 6 -26 10 -51 10
-24 0 -44 -4 -44 -10z"/>
<path d="M1520 294 c0 -8 5 -12 10 -9 6 4 8 11 5 16 -9 14 -15 11 -15 -7z"/>
<path d="M800 250 c0 -5 9 -10 19 -10 11 0 23 5 26 10 4 6 -5 10 -19 10 -14 0
-26 -4 -26 -10z"/>
<path d="M770 100 c0 -6 48 -10 125 -10 77 0 125 4 125 10 0 6 -48 10 -125 10
-77 0 -125 -4 -125 -10z"/>
<path d="M700 19 c0 -5 -5 -7 -12 -3 -7 4 -8 3 -4 -5 5 -8 12 -9 20 -2 6 5 29
11 51 14 40 4 40 4 -7 5 -28 1 -48 -2 -48 -9z"/>
<path d="M843 23 c15 -2 39 -2 55 0 15 2 2 4 -28 4 -30 0 -43 -2 -27 -4z"/>
</g>
</svg>
