<?xml version="1.0" standalone="no"?>
<!DOCTYPE svg PUBLIC "-//W3C//DTD SVG 20010904//EN"
 "http://www.w3.org/TR/2001/REC-SVG-20010904/DTD/svg10.dtd">
<svg version="1.0" xmlns="http://www.w3.org/2000/svg"
  viewBox="0 0 182.000000 300.000000" 
 preserveAspectRatio="xMidYMid meet">

<g transform="translate(0.000000,300.000000) scale(0.100000,-0.100000)"
fill="#6a2186" stroke="none"  width="3.000000pt" height="100.000000pt">
<path d="M1530 2951 c0 -28 -4 -40 -11 -35 -8 4 -9 -4 -4 -27 7 -31 6 -33 -10
-19 -16 13 -17 13 -12 -5 18 -60 20 -78 7 -70 -10 6 -12 3 -8 -13 5 -16 2 -22
-10 -22 -12 0 -13 -3 -4 -12 18 -18 16 -62 -3 -54 -9 3 -15 0 -15 -9 0 -8 -5
-15 -10 -15 -6 0 -4 -13 5 -30 21 -41 19 -57 -5 -35 -19 18 -20 17 -20 -4 0
-12 4 -29 9 -39 4 -9 13 -32 19 -50 9 -27 8 -34 -4 -39 -8 -3 -22 1 -31 8 -14
12 -15 11 -8 -11 4 -14 10 -31 13 -39 4 -10 0 -13 -16 -9 -32 9 -27 -7 11 -36
l32 -26 -34 0 c-27 0 -31 -2 -22 -14 6 -8 10 -20 9 -27 -2 -7 8 -18 20 -25 32
-16 11 -28 -36 -19 -36 7 -36 6 -19 -12 9 -11 17 -22 17 -25 0 -11 -66 -2 -82
12 -26 21 -22 27 12 22 17 -2 30 0 30 6 0 6 3 17 6 26 4 10 1 16 -8 16 -18 0
-45 43 -29 48 17 6 13 22 -6 22 -16 1 -15 3 4 19 25 21 25 52 0 60 -15 6 -15
9 -2 34 11 22 11 27 0 27 -19 0 -27 30 -13 47 24 30 18 43 -17 37 -19 -3 -36
0 -40 6 -4 7 -1 10 6 8 20 -4 58 32 52 48 -4 10 -10 11 -25 3 -10 -6 -27 -8
-36 -6 -15 4 -15 5 0 6 9 0 21 15 27 32 14 40 14 52 0 43 -14 -8 -31 17 -20
31 10 13 10 45 0 45 -4 0 -10 -8 -12 -17 -3 -10 -3 2 0 26 5 35 3 43 -8 39 -8
-3 -13 -15 -11 -28 2 -14 0 -20 -8 -15 -12 7 -10 -39 3 -51 4 -4 7 -14 7 -23
-1 -13 -3 -13 -15 3 -17 23 -33 14 -29 -16 1 -13 3 -25 4 -28 7 -17 4 -37 -8
-52 -19 -24 -6 -39 26 -31 24 6 26 5 13 -10 -7 -10 -19 -16 -25 -16 -16 3 -46
-12 -46 -23 0 -5 14 -14 30 -19 36 -13 40 -33 6 -27 -40 8 -51 -6 -30 -36 11
-14 24 -24 31 -21 7 2 15 0 18 -6 4 -5 -2 -12 -12 -15 -52 -17 -67 -25 -54
-34 8 -4 11 -13 7 -19 -4 -6 4 -13 19 -17 28 -7 29 -31 1 -26 -9 2 -23 -4 -31
-12 -13 -12 -13 -15 1 -20 9 -3 14 -13 10 -21 -3 -8 3 -19 12 -25 15 -9 15
-10 -6 -16 -16 -5 -21 -12 -17 -25 5 -14 1 -19 -13 -19 -15 0 -19 -5 -15 -20
3 -11 12 -20 21 -20 23 0 2 -18 -27 -22 l-23 -3 26 -28 26 -28 -30 -6 c-19 -3
-30 -12 -30 -22 0 -22 35 -51 61 -51 17 0 19 -3 10 -14 -7 -8 -23 -17 -36 -20
-25 -6 -37 -46 -15 -46 6 0 20 -9 32 -20 16 -15 18 -20 7 -24 -48 -15 -47 -12
-42 -70 4 -43 29 -108 113 -293 98 -218 110 -238 134 -241 26 -3 33 10 237
424 171 348 210 434 205 457 -5 25 -3 27 14 22 30 -10 37 21 11 49 -17 18 -19
25 -9 30 11 5 11 7 0 12 -10 5 -9 10 4 25 17 18 16 20 -2 33 -15 12 -16 17 -7
27 10 10 9 16 -4 31 -13 14 -13 20 -3 33 13 16 12 17 -19 19 -31 2 -33 12 -6
26 35 19 31 34 -7 26 -32 -5 -32 -5 -13 12 26 22 28 50 4 57 -12 4 -16 11 -12
18 13 22 13 39 -1 28 -9 -7 -16 -7 -24 1 -9 9 -12 8 -12 -3 0 -8 5 -20 12 -27
6 -6 8 -15 4 -19 -4 -4 -11 -1 -16 7 -10 16 -12 12 -14 -35 -2 -43 -13 -55
-49 -55 l-31 0 35 36 34 37 -29 -7 c-25 -6 -28 -5 -21 11 14 36 18 56 9 50 -6
-3 -16 -2 -24 3 -12 7 -10 14 13 38 33 34 34 43 5 39 -19 -2 -21 3 -21 51 0
46 -2 51 -15 40 -17 -14 -17 -14 5 39 5 12 3 14 -7 8 -10 -6 -12 -3 -8 13 3
12 2 22 -3 24 -6 2 -12 25 -14 52 -6 62 -15 73 -15 17z m40 -195 c0 -3 -4 -8
-10 -11 -5 -3 -10 -1 -10 4 0 6 5 11 10 11 6 0 10 -2 10 -4z m-350 -47 c0 -6
-4 -7 -10 -4 -5 3 -10 11 -10 16 0 6 5 7 10 4 6 -3 10 -11 10 -16z m286 -116
c-7 -7 -26 7 -26 19 0 6 6 6 15 -2 9 -7 13 -15 11 -17z m158 -112 c3 -5 -1
-12 -10 -15 -20 -8 -29 -1 -19 13 8 13 22 14 29 2z m36 -1 c0 -5 -5 -10 -11
-10 -5 0 -7 5 -4 10 3 6 8 10 11 10 2 0 4 -4 4 -10z m-25 -60 c3 -6 -5 -10
-19 -10 -13 0 -26 -6 -29 -12 -2 -7 -8 -10 -12 -6 -4 4 -5 14 -2 23 7 17 52
21 62 5z m-5 -134 c0 -3 -4 -8 -10 -11 -5 -3 -10 -1 -10 4 0 6 5 11 10 11 6 0
10 -2 10 -4z m-217 -109 c-3 -5 -16 -6 -29 -3 -26 7 -31 -3 -11 -23 10 -11 8
-12 -13 -6 -14 4 -35 6 -48 6 -21 -1 -21 1 10 32 33 33 33 33 64 18 18 -9 30
-20 27 -24z m-39 -72 c17 -13 17 -15 3 -21 -25 -9 -48 3 -41 21 7 18 14 18 38
0z m-39 -34 c7 -12 -12 -24 -25 -16 -11 7 -4 25 10 25 5 0 11 -4 15 -9z"/>
<path d="M341 2942 c0 -29 -5 -41 -12 -36 -8 4 -9 -3 -4 -26 5 -23 4 -30 -4
-26 -13 8 -13 3 -2 -46 5 -22 5 -38 0 -38 -5 0 -9 -9 -9 -20 0 -14 -5 -18 -17
-13 -17 6 -17 5 0 -14 21 -24 23 -68 3 -60 -19 8 -29 -34 -16 -68 13 -35 13
-42 -2 -27 -28 28 -37 5 -15 -38 18 -34 28 -98 17 -105 -5 -3 -17 6 -28 20
-11 14 -28 25 -37 25 -16 0 -16 2 -2 24 14 21 14 25 -1 39 -13 13 -14 20 -4
29 21 21 14 35 -18 30 -19 -3 -30 0 -30 7 0 7 4 10 9 7 10 -6 47 31 39 39 -3
3 -17 1 -32 -4 -14 -6 -26 -7 -26 -2 0 5 6 11 14 14 20 8 27 57 9 57 -9 0 -13
6 -10 14 3 7 0 31 -7 51 -8 22 -15 32 -18 24 -3 -8 -1 -23 5 -34 9 -18 9 -19
-6 -6 -15 12 -17 11 -17 -6 0 -10 6 -25 13 -32 10 -11 8 -12 -11 -6 -21 6 -22
4 -19 -32 3 -21 0 -43 -5 -50 -13 -16 -1 -34 17 -26 8 3 15 1 15 -5 0 -5 -17
-13 -37 -17 l-38 -7 24 -19 c13 -10 27 -16 32 -13 5 3 9 0 9 -5 0 -6 -14 -11
-31 -11 -35 0 -36 -19 -1 -35 30 -13 28 -22 -8 -30 -23 -5 -28 -10 -21 -19 6
-7 8 -15 5 -19 -3 -3 4 -8 15 -12 12 -3 21 -11 21 -17 0 -5 -6 -8 -13 -5 -8 3
-20 1 -28 -4 -12 -8 -12 -10 1 -18 8 -6 11 -13 7 -17 -4 -4 -2 -13 4 -21 9
-10 7 -13 -6 -13 -11 0 -15 -5 -11 -15 3 -9 0 -15 -9 -15 -20 0 -19 -19 0 -26
22 -9 18 -24 -5 -24 -24 0 -25 -8 -4 -31 15 -17 14 -19 -10 -25 -30 -7 -32
-16 -11 -38 14 -13 435 -858 572 -1145 l54 -114 0 -283 c0 -246 2 -283 15
-288 27 -10 44 -7 44 9 0 8 5 15 10 15 14 0 13 -33 -2 -48 -15 -15 -32 -16
-23 -2 3 6 -3 10 -15 10 -12 0 -18 -4 -15 -10 3 -5 1 -10 -4 -10 -15 0 -14
-27 2 -33 9 -3 9 -7 -1 -19 -15 -18 -14 -158 1 -158 5 0 6 -7 3 -15 -3 -8 -9
-21 -12 -29 -7 -17 27 -31 37 -15 4 7 5 23 3 36 -4 22 -3 23 16 13 20 -11 21
-13 5 -37 -16 -23 -16 -25 2 -21 10 2 17 11 15 20 -1 9 2 19 8 23 5 3 10 -1
10 -9 0 -22 17 -20 32 4 17 27 24 25 23 -7 0 -22 5 -28 27 -29 25 -3 26 -2 12
24 -7 14 -11 36 -8 48 3 12 1 25 -5 28 -6 4 -11 1 -11 -6 0 -8 -5 -7 -17 5
-22 21 -11 32 17 17 17 -9 24 -9 30 0 5 8 9 6 14 -6 4 -11 2 -20 -3 -22 -19
-6 -12 -28 9 -29 11 -1 20 3 20 8 0 6 5 7 10 4 17 -11 11 -24 -15 -31 -46 -11
-20 -44 35 -44 30 0 36 4 37 23 4 46 14 67 32 67 10 0 26 12 36 26 10 15 20
22 24 17 9 -15 57 -10 53 5 -1 7 5 12 13 12 9 0 12 -6 9 -15 -4 -8 0 -23 7
-32 12 -14 11 -15 -9 -9 -12 4 -22 4 -22 -1 0 -4 -11 -8 -24 -8 -13 0 -22 3
-20 7 9 14 -14 17 -26 4 -9 -11 -9 -20 0 -36 6 -12 9 -24 6 -27 -3 -3 -8 1
-12 10 -3 9 -12 13 -21 10 -11 -4 -14 -2 -9 5 4 7 2 12 -3 12 -16 0 -13 -16 4
-30 12 -10 13 -16 4 -26 -20 -25 31 -16 53 8 l19 22 6 -22 c7 -27 43 -30 43
-4 1 16 1 16 14 -1 19 -25 21 -22 19 25 -2 24 -3 65 -4 91 -1 31 -6 50 -15 54
-8 3 -14 11 -14 19 0 19 10 18 26 -4 13 -16 13 -16 14 2 0 10 -8 25 -17 33
-17 14 -17 14 0 9 13 -4 17 -1 15 11 -2 9 7 22 19 28 13 7 33 20 45 31 23 19
23 19 6 -1 -16 -20 -15 -20 173 -21 104 -1 189 3 189 7 0 14 -44 23 -120 22
-71 0 -72 0 -12 4 34 2 62 7 62 10 0 3 -8 12 -17 20 -10 8 5 3 33 -11 27 -13
56 -32 63 -40 8 -9 18 -16 23 -16 6 0 23 -9 39 -21 29 -20 31 -20 50 -4 10 10
19 21 19 26 0 4 -24 22 -52 40 -29 18 -101 64 -161 101 l-107 69 -43 -29 c-63
-43 -184 -112 -196 -112 -6 0 -11 15 -11 34 0 21 -6 36 -15 40 -8 3 -15 10
-15 16 0 6 4 9 9 5 5 -3 13 -1 16 5 11 18 11 130 0 130 -5 0 -4 4 4 9 9 6 12
18 7 37 -9 38 -7 146 3 200 7 36 6 44 -7 44 -8 0 -12 3 -9 7 4 3 -2 13 -13 20
-20 14 -20 15 2 34 l23 19 -23 6 c-23 7 -23 7 -4 28 10 11 19 31 20 44 1 17
-5 22 -23 22 l-25 0 20 36 c19 33 19 61 0 49 -12 -7 -19 32 -8 43 12 12 18 62
7 62 -4 0 -10 -4 -13 -9 -7 -11 -56 -2 -56 11 0 6 7 8 14 5 9 -4 17 2 21 14 4
10 10 17 15 14 10 -6 19 15 13 32 -3 8 -12 9 -34 1 -38 -13 -44 -7 -20 19 11
11 22 37 25 58 6 33 4 36 -9 25 -17 -14 -19 -6 -15 59 1 24 -2 31 -11 26 -9
-6 -10 -1 -6 16 3 13 2 33 -2 44 -7 18 -8 17 -14 -6 -3 -13 -4 -36 0 -49 5
-24 5 -25 -11 -5 -15 19 -16 19 -14 -13 1 -18 8 -38 15 -44 13 -11 18 -38 7
-38 -3 0 -14 10 -25 23 l-19 22 2 -58 c2 -33 7 -61 11 -64 5 -3 1 -13 -9 -24
-21 -23 -12 -49 16 -44 14 3 20 0 17 -8 -2 -7 -14 -12 -27 -12 -21 0 -32 17
-86 137 -52 115 -62 145 -59 183 2 35 -1 45 -13 45 -8 0 -13 3 -9 6 3 4 -4 14
-16 24 l-22 18 24 19 24 20 -29 7 -29 8 35 30 c23 19 31 31 22 35 -9 3 -10 9
-2 18 8 10 4 14 -15 19 -14 4 -31 3 -38 0 -7 -4 -4 2 6 13 9 11 14 23 10 26
-3 4 2 16 12 28 16 17 17 22 5 29 -8 5 -18 6 -24 3 -5 -4 -7 1 -3 10 3 9 1 17
-5 19 -8 3 -6 12 5 28 9 14 17 33 17 42 0 16 -6 17 -39 12 -34 -5 -41 -3 -52
17 -11 22 -11 23 4 10 20 -16 47 -8 47 15 0 10 3 14 7 11 3 -4 12 1 18 10 16
21 -3 47 -22 31 -7 -6 -13 -7 -13 -4 0 4 -9 2 -19 -4 -13 -7 -22 -7 -26 0 -3
5 -1 10 4 10 6 0 11 7 11 15 0 8 6 15 13 15 7 0 13 16 15 41 1 22 -1 38 -6 35
-12 -7 -22 42 -17 83 2 17 0 31 -5 31 -6 0 -10 -9 -10 -20 0 -11 -4 -20 -10
-20 -5 0 -14 9 -20 20 -6 11 -15 20 -20 20 -15 0 -12 -37 3 -43 9 -4 8 -6 -2
-6 -11 -1 -10 -5 3 -20 10 -11 16 -28 13 -38 -4 -16 -6 -15 -12 5 -4 12 -11
22 -16 22 -12 0 -24 -23 -21 -42 4 -23 -30 -24 -48 -3 -10 11 -10 18 -1 29 9
11 9 15 -1 19 -10 4 -8 9 5 17 23 15 22 48 -3 52 -18 3 -19 5 -6 31 8 15 11
27 6 27 -13 0 -21 33 -10 44 19 19 11 37 -14 30 -36 -9 -39 10 -5 30 37 22 26
42 -14 27 -17 -7 -27 -7 -27 -1 0 6 4 10 9 10 8 0 31 52 31 71 0 5 -6 8 -12 7
-9 -2 -12 8 -10 30 1 17 -3 32 -8 32 -6 0 -10 6 -9 13 1 6 1 19 0 27 -1 12 -4
12 -12 -2 -7 -12 -6 -25 2 -40 11 -21 11 -22 -5 -9 -15 13 -17 12 -12 -12 2
-15 7 -31 11 -37 3 -5 1 -10 -4 -10 -6 0 -11 5 -11 11 0 5 -5 7 -11 4 -6 -4
-9 -24 -6 -48 4 -30 1 -44 -11 -53 -20 -14 -6 -37 19 -29 19 6 27 -9 9 -20
-15 -9 -80 -12 -86 -4 -2 4 7 21 21 37 31 37 32 46 4 31 -20 -10 -21 -9 -15
14 3 14 9 33 13 43 5 13 3 16 -10 11 -25 -9 -29 8 -9 34 10 13 22 32 25 42 5
14 3 17 -12 12 -15 -4 -18 1 -20 27 -2 18 -3 41 -4 51 -1 9 -5 17 -10 17 -5 0
-6 7 -3 16 4 9 0 42 -9 73 -8 31 -16 70 -18 86 -3 22 -4 19 -6 -13z m29 -212
c0 -5 -5 -10 -11 -10 -5 0 -7 5 -4 10 3 6 8 10 11 10 2 0 4 -4 4 -10z m-55
-160 c3 -5 1 -10 -4 -10 -6 0 -11 5 -11 10 0 6 2 10 4 10 3 0 8 -4 11 -10z
m-72 -137 c2 -5 7 -21 11 -36 6 -26 5 -28 -16 -22 -32 10 -35 15 -18 26 11 8
12 12 2 16 -6 2 -10 9 -6 14 6 11 21 12 27 2z m192 -3 c3 -5 1 -10 -4 -10 -6
0 -11 5 -11 10 0 6 2 10 4 10 3 0 8 -4 11 -10z m40 -29 c-3 -6 -11 -8 -17 -5
-6 4 -5 9 3 15 16 10 23 4 14 -10z m-39 -32 c10 -17 -13 -36 -27 -22 -12 12
-4 33 11 33 5 0 12 -5 16 -11z m-178 -57 c-16 -2 -28 -8 -28 -14 0 -6 -7 -5
-17 3 -15 13 -13 15 13 20 16 3 36 3 44 0 9 -4 5 -7 -12 -9z m2 -82 c13 -8 13
-10 -2 -10 -9 0 -20 5 -23 10 -8 13 5 13 25 0z m381 -56 c10 -13 10 -17 0 -24
-9 -5 -10 -10 -2 -14 6 -4 11 -11 11 -16 0 -11 -60 -1 -77 13 -20 15 -15 26 8
20 15 -4 22 0 26 16 6 25 16 27 34 5z m39 -22 c0 -15 -2 -15 -10 -2 -13 20
-13 33 0 25 6 -3 10 -14 10 -23z m-61 -101 c8 -6 24 -6 38 0 17 6 23 5 23 -6
0 -7 -5 -17 -10 -20 -12 -7 -80 16 -80 27 0 10 11 10 29 -1z m466 -871 c-3 -5
-12 -10 -18 -10 -7 0 -6 4 3 10 19 12 23 12 15 0z m-335 -204 c0 -3 -4 -8 -10
-11 -5 -3 -10 -1 -10 4 0 6 5 11 10 11 6 0 10 -2 10 -4z m360 -170 c0 -3 -4
-8 -10 -11 -5 -3 -10 -1 -10 4 0 6 5 11 10 11 6 0 10 -2 10 -4z m-270 -52 c0
-14 -3 -14 -15 -4 -8 7 -15 14 -15 16 0 2 7 4 15 4 8 0 15 -7 15 -16z m150
-38 c0 -3 -4 -8 -10 -11 -5 -3 -10 -1 -10 4 0 6 5 11 10 11 6 0 10 -2 10 -4z
m135 -76 c-3 -5 -13 -10 -21 -10 -8 0 -14 5 -14 10 0 6 9 10 21 10 11 0 17 -4
14 -10z m5 -24 c0 -3 -4 -8 -10 -11 -5 -3 -10 -1 -10 4 0 6 5 11 10 11 6 0 10
-2 10 -4z m-345 -26 c3 -5 2 -10 -3 -10 -5 0 -25 -2 -43 -5 l-34 -6 30 15 c37
18 42 19 50 6z m-75 -71 c0 -5 -4 -9 -10 -9 -5 0 -10 7 -10 16 0 8 5 12 10 9
6 -3 10 -10 10 -16z m124 2 c3 -4 -6 -6 -19 -3 -14 2 -25 6 -25 8 0 8 39 4 44
-5z m173 -13 c-3 -8 -6 -5 -6 6 -1 11 2 17 5 13 3 -3 4 -12 1 -19z m-159 -31
c5 -24 -24 -21 -31 4 -4 15 -1 19 11 17 9 -2 18 -11 20 -21z m218 7 c-3 -9 -6
-20 -6 -25 0 -5 -4 -9 -10 -9 -8 0 -8 23 -1 48 1 1 6 2 12 2 6 0 8 -7 5 -16z
m-391 -14 c3 -5 1 -10 -4 -10 -6 0 -11 5 -11 10 0 6 2 10 4 10 3 0 8 -4 11
-10z m285 -4 c0 -11 -19 -15 -25 -6 -3 5 1 10 9 10 9 0 16 -2 16 -4z m-154
-31 c1 -8 -2 -15 -7 -15 -5 0 -9 10 -9 22 0 23 12 17 16 -7z m-66 -27 c0 -11
-18 -10 -25 2 -4 6 -11 8 -16 5 -13 -9 -11 3 4 20 10 12 14 11 25 -3 6 -8 12
-19 12 -24z m260 0 c22 -30 22 -31 2 -26 -13 4 -23 0 -26 -9 -3 -8 -10 -11
-16 -8 -16 10 -12 22 11 28 17 5 19 9 9 26 -16 30 -7 26 20 -11z m99 16 c10
-9 -35 -3 -49 6 -11 8 -7 9 15 4 17 -4 32 -8 34 -10z m-235 -9 c-6 -16 -24
-21 -24 -7 0 11 11 22 21 22 5 0 6 -7 3 -15z m41 -5 c-3 -5 -11 -10 -16 -10
-6 0 -7 5 -4 10 3 6 11 10 16 10 6 0 7 -4 4 -10z m185 -4 c0 -18 -14 -34 -26
-29 -9 3 -14 -2 -15 -18 0 -22 -1 -22 -8 -5 -5 13 -2 26 8 37 14 16 41 25 41
15z m-334 -22 c-3 -8 2 -27 11 -41 10 -14 19 -38 20 -52 3 -26 3 -26 -14 4 -9
17 -22 35 -30 40 -11 8 -12 17 -4 38 6 15 13 27 17 27 3 0 3 -7 0 -16z m661 5
c-12 -7 -27 -7 -45 0 -25 9 -24 9 18 10 36 0 41 -2 27 -10z m-547 -32 c0 -5
-4 -5 -10 -2 -5 3 -10 14 -10 23 0 15 2 15 10 2 5 -8 10 -19 10 -23z m595 23
c3 -6 -1 -7 -9 -4 -18 7 -21 14 -7 14 6 0 13 -4 16 -10z m-655 -25 c0 -14 -4
-25 -10 -25 -5 0 -10 11 -10 25 0 14 5 25 10 25 6 0 10 -11 10 -25z m330 15
c0 -5 -5 -10 -11 -10 -5 0 -7 5 -4 10 3 6 8 10 11 10 2 0 4 -4 4 -10z m175 0
c-3 -5 22 -11 62 -13 61 -3 60 -3 -15 -3 -71 0 -81 2 -66 13 21 15 27 17 19 3z
m-414 -33 c-13 -13 -26 -3 -16 12 3 6 11 8 17 5 6 -4 6 -10 -1 -17z m49 9 c0
-3 -4 -8 -10 -11 -5 -3 -10 -1 -10 4 0 6 5 11 10 11 6 0 10 -2 10 -4z m-110
-31 c0 -8 -4 -15 -10 -15 -5 0 -7 7 -4 15 4 8 8 15 10 15 2 0 4 -7 4 -15z
m190 -5 c0 -11 -6 -20 -12 -21 -7 0 -4 -4 7 -9 19 -8 19 -9 -2 -9 -24 -1 -31
13 -12 24 6 4 8 13 5 21 -3 8 -1 14 4 14 6 0 10 -9 10 -20z m253 13 c-7 -2
-19 -2 -25 0 -7 3 -2 5 12 5 14 0 19 -2 13 -5z m-363 -29 c0 -8 -4 -12 -10 -9
-5 3 -10 10 -10 16 0 5 5 9 10 9 6 0 10 -7 10 -16z m145 -63 c-23 -15 -30 -28
-26 -58 1 -6 -3 -14 -9 -18 -5 -3 -10 3 -10 14 0 11 -6 21 -12 24 -7 2 -5 3 6
1 15 -2 17 2 13 25 -5 23 -3 28 11 27 12 -1 16 6 14 23 l-2 25 20 -24 21 -24
-26 -15z m-312 12 c-6 -14 -14 -16 -37 -7 -25 10 -19 19 13 19 19 0 27 -4 24
-12z m73 9 c16 -11 25 -42 12 -42 -11 0 -37 29 -38 43 0 9 12 9 26 -1z m82
-14 c7 11 11 9 15 -8 4 -17 10 -20 29 -15 13 4 20 4 16 0 -4 -4 -3 -17 3 -27
8 -14 8 -23 0 -31 -8 -8 -11 -7 -11 3 0 11 -3 11 -12 2 -18 -18 -28 -15 -28 8
0 13 5 18 15 14 24 -9 18 2 -11 21 -20 13 -28 14 -34 5 -6 -9 -10 -6 -15 9 -3
11 -12 21 -18 21 -7 0 -6 4 2 9 10 7 19 4 28 -7 10 -14 14 -14 21 -4z m-190
-20 c-2 -5 -7 -9 -12 -8 -5 1 -12 -4 -16 -10 -5 -8 -9 -6 -12 7 -4 13 1 18 19
19 13 1 23 -2 21 -8z m72 -3 c11 -13 10 -14 -4 -9 -9 3 -16 10 -16 15 0 13 6
11 20 -6z m10 -35 c0 -5 -5 -10 -11 -10 -5 0 -7 5 -4 10 3 6 8 10 11 10 2 0 4
-4 4 -10z m80 0 c0 -10 -39 -34 -46 -27 -3 2 -2 12 2 21 7 17 44 23 44 6z
m-170 -20 c0 -5 -10 -10 -22 -10 -19 0 -20 2 -8 10 19 13 30 13 30 0z m50 -5
c0 -8 -4 -15 -10 -15 -5 0 -7 7 -4 15 4 8 8 15 10 15 2 0 4 -7 4 -15z m50 -5
c0 -5 -7 -10 -16 -10 -8 0 -12 5 -9 10 3 6 10 10 16 10 5 0 9 -4 9 -10z m-119
-53 c-8 -8 -11 -6 -11 6 0 9 -6 17 -12 18 -7 0 -4 4 7 8 23 9 34 -14 16 -32z
m44 33 c3 -5 2 -10 -4 -10 -5 0 -13 5 -16 10 -3 6 -2 10 4 10 5 0 13 -4 16
-10z m200 0 c8 -13 -5 -13 -25 0 -13 8 -13 10 2 10 9 0 20 -4 23 -10z m40 -19
c-3 -6 -11 -8 -17 -5 -6 4 -5 9 3 15 16 10 23 4 14 -10z m-230 -26 c0 -5 -10
-11 -22 -13 -16 -2 -23 2 -23 13 0 11 7 15 23 13 12 -2 22 -7 22 -13z m190
-45 c0 -13 -6 -25 -14 -28 -9 -3 -11 0 -6 8 6 10 3 12 -10 6 -18 -6 -18 -6 -2
12 9 10 14 22 10 27 -5 4 -1 6 7 3 8 -3 15 -15 15 -28z m178 5 c-21 -16 -26
-14 -17 8 3 9 12 13 20 10 12 -4 11 -8 -3 -18z"/>
<path d="M1700 2653 c0 -21 3 -24 9 -14 5 8 7 20 4 28 -8 21 -13 15 -13 -14z"/>
<path d="M691 2402 c-1 -14 -5 -21 -12 -16 -11 7 -5 -25 11 -55 12 -22 21 31
11 64 -8 26 -9 27 -10 7z"/>
<path d="M1195 270 l-30 -5 -3 -133 -3 -132 66 0 c51 0 65 3 65 15 0 8 5 15
10 15 6 0 10 -6 10 -14 0 -12 29 -14 168 -14 99 0 155 3 137 8 -16 4 -24 8
-17 9 8 1 12 18 12 49 l0 47 -135 2 c-116 2 -135 0 -135 -13 0 -12 7 -14 28
-10 15 3 52 2 82 -3 l55 -9 -82 -1 -82 -1 -4 -32 c-2 -18 -5 1 -5 44 -2 74 -2
76 21 70 18 -5 19 -7 5 -10 -27 -5 -21 -22 7 -22 14 0 25 5 25 11 0 8 4 8 14
0 8 -7 51 -11 110 -10 l96 1 0 31 c0 18 3 49 6 70 6 32 4 36 -10 31 -9 -3 -23
-1 -31 6 -11 9 -60 11 -182 9 -93 -2 -181 -6 -198 -9z m220 -10 c3 -5 -3 -10
-14 -10 -11 0 -23 5 -26 10 -3 6 3 10 14 10 11 0 23 -4 26 -10z m55 -29 c-32
-7 -30 -8 23 -12 31 -2 58 0 60 4 1 5 11 5 22 1 19 -8 18 -9 -5 -14 -20 -5
-25 -12 -23 -36 l2 -30 -69 -1 c-65 -2 -70 -1 -70 18 0 16 5 20 20 16 11 -3
20 -1 20 3 0 5 -10 10 -22 12 -13 2 -22 9 -20 16 1 6 -3 12 -9 12 -5 0 -7 5
-4 10 3 6 30 9 58 9 48 -2 49 -2 17 -8z m-110 -11 c22 -7 20 -8 -15 -10 -22
-1 -44 -1 -50 0 -5 1 -27 2 -48 1 -23 0 -36 3 -32 9 7 12 109 12 145 0z m-163
-36 c-3 -3 -12 -4 -19 -1 -8 3 -5 6 6 6 11 1 17 -2 13 -5z m33 -54 c0 -27 -4
-50 -10 -50 -5 0 -10 23 -10 50 0 28 5 50 10 50 6 0 10 -22 10 -50z m27 18
c-3 -8 -6 -5 -6 6 -1 11 2 17 5 13 3 -3 4 -12 1 -19z m20 0 c-3 -8 -6 -5 -6 6
-1 11 2 17 5 13 3 -3 4 -12 1 -19z m30 -56 c-2 -15 -4 -2 -4 28 0 30 2 43 4
27 2 -15 2 -39 0 -55z m-60 6 c-3 -7 -5 -2 -5 12 0 14 2 19 5 13 2 -7 2 -19 0
-25z m30 -15 c-3 -10 -5 -2 -5 17 0 19 2 27 5 18 2 -10 2 -26 0 -35z m316 0
c-7 -2 -21 -2 -30 0 -10 3 -4 5 12 5 17 0 24 -2 18 -5z m-396 -29 c-3 -3 -12
-4 -19 -1 -8 3 -5 6 6 6 11 1 17 -2 13 -5z m301 -1 c-26 -2 -71 -2 -100 0 -29
2 -8 3 47 3 55 0 79 -1 53 -3z m-268 -18 c0 -15 -46 -32 -57 -21 -4 3 3 6 15
6 13 0 22 6 22 15 0 8 5 15 10 15 6 0 10 -7 10 -15z m17 -17 c-3 -8 -6 -5 -6
6 -1 11 2 17 5 13 3 -3 4 -12 1 -19z m291 -5 c-15 -2 -42 -2 -60 0 -18 2 -6 4
27 4 33 0 48 -2 33 -4z"/>
<path d="M1505 180 c3 -5 8 -10 11 -10 2 0 4 5 4 10 0 6 -5 10 -11 10 -5 0 -7
-4 -4 -10z"/>
<path d="M1630 85 c0 -8 5 -15 11 -15 8 0 8 -4 0 -14 -10 -11 -4 -15 29 -18
39 -3 40 -3 40 29 0 37 -6 40 -32 16 -10 -9 -18 -11 -18 -6 0 6 -7 13 -15 17
-9 3 -15 0 -15 -9z"/>
</g>
</svg>
