<svg xmlns="http://www.w3.org/2000/svg" viewBox="0 0 500 500"><g id="freepik--background-complete--inject-16"><rect x="416.78" y="398.49" width="33.12" height="0.25" style="fill:#ebebeb"></rect><rect x="322.53" y="401.21" width="8.69" height="0.25" style="fill:#ebebeb"></rect><rect x="396.59" y="389.21" width="19.19" height="0.25" style="fill:#ebebeb"></rect><rect x="52.46" y="390.89" width="43.19" height="0.25" style="fill:#ebebeb"></rect><rect x="104.56" y="390.89" width="6.33" height="0.25" style="fill:#ebebeb"></rect><rect x="131.47" y="395.11" width="93.68" height="0.25" style="fill:#ebebeb"></rect><path d="M238.4,337.8H45.3a5.71,5.71,0,0,1-5.71-5.71V60.66A5.71,5.71,0,0,1,45.3,55H238.4a5.71,5.71,0,0,1,5.71,5.71V332.09A5.71,5.71,0,0,1,238.4,337.8ZM45.3,55.2a5.47,5.47,0,0,0-5.46,5.46V332.09a5.47,5.47,0,0,0,5.46,5.46H238.4a5.47,5.47,0,0,0,5.46-5.46V60.66a5.47,5.47,0,0,0-5.46-5.46Z" style="fill:#ebebeb"></path><path d="M454.7,337.8H261.6a5.71,5.71,0,0,1-5.71-5.71V60.66A5.71,5.71,0,0,1,261.6,55H454.7a5.71,5.71,0,0,1,5.71,5.71V332.09A5.71,5.71,0,0,1,454.7,337.8ZM261.6,55.2a5.47,5.47,0,0,0-5.46,5.46V332.09a5.47,5.47,0,0,0,5.46,5.46H454.7a5.47,5.47,0,0,0,5.46-5.46V60.66a5.47,5.47,0,0,0-5.46-5.46Z" style="fill:#ebebeb"></path><rect y="382.4" width="500" height="0.25" style="fill:#ebebeb"></rect><path d="M90.88,257.13,75.6,252.41a1,1,0,0,1,.34-1.94l17.62.93c-4.16-7.23-6.62-11.75-9.42-17.41a1,1,0,0,1,1.63-1.1c3.76,4.23,6.91,7.66,12,13.07,1.2-7,2.6-13.45,4.34-19.92a1,1,0,0,1,2,.34,137.88,137.88,0,0,0-.51,15.68l.48.17q6.34-7.24,13.31-13.91a1,1,0,0,1,1.45,1.34,183,183,0,0,0-12.43,17.85q9.06-3.42,18.22-6.63a1,1,0,0,1,.82,1.8c-6.33,3.59-12.59,7.26-18.84,11.06l16.11,5.13a1,1,0,0,1-.36,1.94l-16.55-1c3.27,3.83,5.54,6.46,8.19,9.43a1,1,0,0,1-1.29,1.49c-3.33-2.21-6.26-4.17-10.52-7,.44,3.4.81,6,1.26,8.62a1,1,0,0,1-1.9.53c-1.11-2.83-2.12-5.64-3.4-9.38-4.81,23-3.57,45.33,1.08,68.21l-5.76-1a179,179,0,0,1,2.7-67.52c-2.89,3-5,5.23-7,7.49a1,1,0,0,1-1.59-1.17c1.36-2.26,2.83-4.55,4.81-7.52-5.15,1.13-8.67,1.91-12.56,2.79a1,1,0,0,1-.66-1.86C82.66,261.05,86,259.45,90.88,257.13Z" style="fill:#ebebeb"></path><path d="M82.75,265.08l11.74-6.22a1.33,1.33,0,0,0-.95-2.47L79.05,260c2.36-6.8,3.85-11.38,5.31-16.42a1.33,1.33,0,0,0-2.42-1.05c-2.38,4-4.65,7.6-8,12.91-2-5.42-4.11-10.45-6.39-15.39a1.33,1.33,0,0,0-2.49.89c1,3.92,1.83,7.87,2.47,11.74l-.44.26q-5.7-4.44-11.66-8.51a1.33,1.33,0,0,0-1.66,2.07q6.28,5.75,12,12.06-7.71-1.33-15.45-2.54a1.33,1.33,0,0,0-.63,2.57c5.7,2,11.36,4,17,6.13l-12.49,6.76a1.33,1.33,0,0,0,1,2.46l13.45-3.41c-2,3.41-3.44,6-5,8.58a1.33,1.33,0,0,0,2.08,1.63L73,273.63c.12,2,.22,3.78.28,5.42a1.33,1.33,0,0,0,2.64.17c.33-2,.65-4.08,1-6.57,9,21.71,12,43.86,11.66,67.21l5.47-2.1a178.94,178.94,0,0,0-15.26-65.83c2.08,1.46,3.82,2.7,5.41,3.87a1.33,1.33,0,0,0,1.76-2c-1.08-1.15-2.27-2.37-3.64-3.77,4,.11,7.06.2,10,.3a1.33,1.33,0,0,0,.39-2.61C89.79,266.93,86.76,266.12,82.75,265.08Z" style="fill:#f0f0f0"></path><path d="M103.48,277.7l-8.76-4.65a.94.94,0,0,1,.67-1.74L106.18,274c-1.76-5.06-2.85-8.42-3.93-12.18A.94.94,0,0,1,104,261c1.78,2.94,3.45,5.64,5.94,9.59,1.51-4.05,3.07-7.8,4.78-11.49a.94.94,0,0,1,1.76.63c-.77,3-1.4,6-1.88,8.91l.28.16q4.32-3.37,8.86-6.45a.94.94,0,0,1,1.16,1.48q-4.73,4.29-9,9,5.76-1,11.56-1.91a.94.94,0,0,1,.45,1.82q-6.37,2.21-12.71,4.58l9.3,5a.94.94,0,0,1-.68,1.74l-10-2.54c1.47,2.57,2.58,4.49,3.73,6.44a.94.94,0,0,1-1.46,1.15l-5.38-5.29c-.1,1.59-.17,2.95-.22,4.22a.94.94,0,0,1-1.87.12c-.25-1.51-.5-3.13-.78-5.06-6.58,15.83-8.72,32-8.5,49l-4-1.53a130.59,130.59,0,0,1,11.12-48c-1.61,1.14-3,2.1-4.18,3a.94.94,0,0,1-1.25-1.4c.85-.9,1.77-1.86,2.86-3l-7.56.22a.94.94,0,0,1-.27-1.85C98.19,279.08,100.45,278.48,103.48,277.7Z" style="fill:#f5f5f5"></path><path d="M78.79,382.23h29.82a3.94,3.94,0,0,0,3.94-3.7l3.16-51.44c.14-2.27-44.16-2.27-44,0l3.16,51.44A3.94,3.94,0,0,0,78.79,382.23Z" style="fill:#f0f0f0"></path><path d="M77,263.38a3,3,0,0,1-1.07-2.67l.67-5.7-1.53,2.65a3,3,0,0,1-4.43.9l-3-2.26,2.73,4.41a3,3,0,0,1-.6,3.88l-3.53,3,3.46-.79a3,3,0,0,1,3.54,2l1.19,3.64.76-3.87A3,3,0,0,1,79,266.29l2.33.68Z" style="fill:#e6e6e6"></path><path d="M96.87,253.56a2.17,2.17,0,0,0,.78-1.95l-.49-4.17,1.12,1.94a2.19,2.19,0,0,0,3.23.66l2.19-1.65-2,3.22a2.2,2.2,0,0,0,.44,2.83l2.58,2.22-2.53-.58a2.2,2.2,0,0,0-2.58,1.46l-.87,2.66-.56-2.83a2.21,2.21,0,0,0-2.78-1.69l-1.7.5Z" style="fill:#f5f5f5"></path><path d="M108.66,277.43a1.61,1.61,0,0,0,.56-1.41l-.35-3,.8,1.39a1.58,1.58,0,0,0,2.32.47l1.57-1.19L112.13,276a1.58,1.58,0,0,0,.31,2l1.85,1.59-1.81-.42a1.59,1.59,0,0,0-1.86,1l-.62,1.91-.4-2a1.58,1.58,0,0,0-2-1.21l-1.22.36Z" style="fill:#e6e6e6"></path><rect x="357.15" y="135.66" width="28.81" height="7.73" rx="1.32" style="fill:#f5f5f5"></rect><rect x="348.35" y="145.24" width="28.81" height="7.73" rx="1.32" style="fill:#f5f5f5"></rect><rect x="378.5" y="145.24" width="28.81" height="7.73" rx="1.32" style="fill:#f0f0f0"></rect><rect x="390.74" y="74.13" width="30.56" height="8.2" rx="1.32" style="fill:#f5f5f5"></rect><rect x="390.74" y="94.47" width="30.56" height="8.2" rx="1.32" style="fill:#f5f5f5"></rect><rect x="381.41" y="84.29" width="30.56" height="8.2" rx="1.32" style="fill:#f5f5f5"></rect><rect x="413.39" y="84.29" width="30.56" height="8.2" rx="1.32" style="fill:#f0f0f0"></rect><rect x="218.94" y="317.68" width="192.05" height="5.52" transform="translate(629.92 640.88) rotate(180)" style="fill:#f5f5f5"></rect><rect x="409.54" y="317.68" width="43.02" height="5.52" transform="translate(862.11 640.88) rotate(180)" style="fill:#ebebeb"></rect><polygon points="238.89 336.62 238.89 323.2 229.94 323.2 238.89 336.62" style="fill:#e0e0e0"></polygon><polygon points="234.42 336.62 225.47 323.2 229.94 323.2 238.89 336.62 234.42 336.62" style="fill:#fafafa"></polygon><polygon points="445.56 336.62 445.56 323.2 436.61 323.2 445.56 336.62" style="fill:#e0e0e0"></polygon><polygon points="441.08 336.62 432.14 323.2 436.61 323.2 445.56 336.62 441.08 336.62" style="fill:#fafafa"></polygon><path d="M421.83,318.43h5.06a4,4,0,0,0,4-4.16l-.64-19.06H418.45l-.64,19.06A4,4,0,0,0,421.83,318.43Z" style="fill:#f0f0f0"></path><circle cx="392.44" cy="298.43" r="11.22" transform="translate(-96.08 364.9) rotate(-45)" style="fill:#f0f0f0"></circle><path d="M391.66,318.26h1.56v-7.43h-.78a12.4,12.4,0,1,1,0-24.79v-1.57a14,14,0,0,0-.78,27.9Z" style="fill:#ebebeb"></path><path d="M385.85,318.43h13.34a3,3,0,0,0-3-3h-7.36a3,3,0,0,0-3,3Z" style="fill:#ebebeb"></path><polygon points="422.59 318.43 412.05 307.89 401.5 318.43 422.59 318.43" style="fill:#f5f5f5"></polygon><polygon points="412.05 307.89 422.59 318.43 412.05 318.43 412.05 307.89" style="fill:#e6e6e6"></polygon><path d="M338.56,304.64c.05,1,.08,1.8.08,2.33a15,15,0,0,1-5.32,11.46H314.79A15,15,0,0,1,309.48,307c0-.53,0-1.33.08-2.33Z" style="fill:#f5f5f5"></path><path d="M336,312.85a7.3,7.3,0,0,0,2.59,5.58h9a7.39,7.39,0,0,0,2.23-3.32,3.1,3.1,0,0,0,.54.05c1.81,0,3.83-1.44,3.83-3.36s-1.16-3.36-2.89-3.36a4,4,0,0,0-1.18.19v-.13a1.76,1.76,0,0,0-1.77-1.74H337.8A1.76,1.76,0,0,0,336,308.5C336,310.51,336,312.15,336,312.85Zm14.1,1.17a6.53,6.53,0,0,0,.11-1.17c0-.54,0-1.63,0-3a2.89,2.89,0,0,1,1.16-.27c1.64,0,1.77,1.71,1.77,2.24,0,1.24-1.48,2.24-2.71,2.24Z" style="fill:#ebebeb"></path><polygon points="252.44 318.43 253.91 301.54 232.5 301.54 231.02 318.43 252.44 318.43" style="fill:#f0f0f0"></polygon><polygon points="252.44 318.43 253.91 301.54 255.07 301.54 253.59 318.43 252.44 318.43" style="fill:#e0e0e0"></polygon><polygon points="250.4 316.71 251.58 303.27 234.53 303.27 233.35 316.71 250.4 316.71" style="fill:#fafafa"></polygon><polygon points="249.1 315.6 250.08 304.37 235.84 304.37 234.85 315.6 249.1 315.6" style="fill:#ebebeb"></polygon><polygon points="276.58 318.43 255.07 318.43 257.45 291.15 278.97 291.15 276.58 318.43" style="fill:#f0f0f0"></polygon><polygon points="276.58 318.43 277.61 318.43 280 291.15 278.97 291.15 276.58 318.43" style="fill:#e0e0e0"></polygon><polygon points="274.63 315.65 257.5 315.65 259.4 293.93 276.53 293.93 274.63 315.65" style="fill:#e0e0e0"></polygon><polygon points="273.38 313.86 259.07 313.86 260.66 295.72 274.97 295.72 273.38 313.86" style="fill:#fafafa"></polygon><rect x="262.55" y="299.14" width="8.35" height="8.35" rx="3.18" transform="translate(240.83 706.39) rotate(-135)" style="fill:#ebebeb"></rect><rect x="261.63" y="304.86" width="7.34" height="7.34" rx="3.18" transform="translate(234.73 714.29) rotate(-135)" style="fill:#e6e6e6"></rect><rect x="68.06" y="114.83" width="33.2" height="8.91" rx="1.32" transform="translate(169.33 238.57) rotate(180)" style="fill:#f5f5f5"></rect><rect x="83.57" y="103.79" width="33.2" height="8.91" rx="1.32" transform="translate(200.34 216.49) rotate(180)" style="fill:#f5f5f5"></rect><rect x="48.82" y="103.79" width="33.2" height="8.91" rx="1.32" transform="translate(130.85 216.49) rotate(180)" style="fill:#f0f0f0"></rect></g><g id="freepik--Shadow--inject-16"><ellipse id="freepik--path--inject-16" cx="250" cy="412.39" rx="193.89" ry="11.32" style="fill:#f5f5f5"></ellipse></g><g id="freepik--premium-option--inject-16"><rect x="315.61" y="81.49" width="95.76" height="196.04" rx="18.63" style="fill:#6A2186"></rect><rect x="315.61" y="81.49" width="95.76" height="196.04" rx="18.42" style="opacity:0.30000000000000004"></rect><path d="M411.37,91.11V130H315.61V91.11a9.62,9.62,0,0,1,9.62-9.62h76.52A9.62,9.62,0,0,1,411.37,91.11Z" style="fill:#6A2186"></path><path d="M342.7,102.42c0,1.92-1.42,3.1-3.71,3.1h-2V108h-1.62v-8.7H339C341.28,99.33,342.7,100.5,342.7,102.42Zm-1.63,0c0-1.09-.73-1.73-2.15-1.73H337v3.46h1.89C340.34,104.15,341.07,103.52,341.07,102.42Z" style="fill:#fff"></path><path d="M348,101.32v1.48a1.65,1.65,0,0,0-.36,0,1.81,1.81,0,0,0-1.93,2V108h-1.55v-6.64h1.48v1A2.59,2.59,0,0,1,348,101.32Z" style="fill:#fff"></path><path d="M355.42,105.21h-5.21a2,2,0,0,0,2.15,1.59,2.42,2.42,0,0,0,1.81-.72l.83,1a3.73,3.73,0,0,1-6.34-2.33,3.29,3.29,0,0,1,3.43-3.39,3.24,3.24,0,0,1,3.36,3.43C355.45,104.87,355.43,105.06,355.42,105.21Zm-5.22-1H354a1.81,1.81,0,0,0-1.88-1.62A1.84,1.84,0,0,0,350.2,104.18Z" style="fill:#fff"></path><path d="M368.05,104.23V108h-1.56v-3.61c0-1.18-.55-1.75-1.49-1.75s-1.73.67-1.73,2V108h-1.55v-3.61c0-1.18-.55-1.75-1.5-1.75s-1.73.67-1.73,2V108h-1.55v-6.64h1.48v.85a2.75,2.75,0,0,1,2.18-.92,2.48,2.48,0,0,1,2.23,1.1,3.12,3.12,0,0,1,2.49-1.1C366.93,101.32,368.05,102.22,368.05,104.23Z" style="fill:#fff"></path><path d="M369.82,99.36a1,1,0,0,1,1-.93.93.93,0,0,1,1,.9,1,1,0,0,1-2,0Zm.22,2h1.55V108H370Z" style="fill:#fff"></path><path d="M380.06,101.39V108h-1.48v-.84a2.74,2.74,0,0,1-2.14.93,2.63,2.63,0,0,1-2.86-2.94v-3.79h1.55V105c0,1.21.58,1.78,1.56,1.78a1.75,1.75,0,0,0,1.81-2v-3.36Z" style="fill:#fff"></path><path d="M393.2,104.23V108h-1.55v-3.61c0-1.18-.55-1.75-1.49-1.75s-1.73.67-1.73,2V108h-1.56v-3.61c0-1.18-.54-1.75-1.49-1.75s-1.73.67-1.73,2V108H382.1v-6.64h1.48v.85a2.75,2.75,0,0,1,2.18-.92,2.48,2.48,0,0,1,2.23,1.1,3.12,3.12,0,0,1,2.49-1.1C392.09,101.32,393.2,102.22,393.2,104.23Z" style="fill:#fff"></path><rect x="333.66" y="246.69" width="59.66" height="20.43" rx="9.84" style="fill:#6A2186"></rect><path d="M348,258.47c0,1.86-1.49,3.1-3.82,3.29l-.31,1.54h-1.4l.31-1.54a6.57,6.57,0,0,1-3.21-1.07l.93-1.73a5.51,5.51,0,0,0,2.64,1l.48-2.36c-1.3-.39-2.73-.91-2.73-2.6,0-1.86,1.53-3.12,3.9-3.28l.31-1.54h1.4l-.31,1.55a6.08,6.08,0,0,1,2.57.8l-.85,1.73a4.67,4.67,0,0,0-2.08-.73l-.49,2.46C346.63,256.36,348,256.86,348,258.47Zm-4-2.88.4-2c-.79.15-1.24.58-1.25,1.12S343.52,255.38,344,255.59Zm1.73,3.24c0-.4-.32-.66-.81-.84l-.38,1.92C345.32,259.75,345.75,259.36,345.75,258.83Z" style="fill:#fff"></path><rect x="337.74" y="204.89" width="49.43" height="2" style="fill:#6A2186"></rect><rect x="337.74" y="172.05" width="49.43" height="2" style="fill:#6A2186"></rect><rect x="337.74" y="140.4" width="49.43" height="2" style="fill:#6A2186"></rect><circle cx="362.06" cy="157.14" r="8.6" transform="translate(-5.07 302.04) rotate(-45)" style="fill:#6A2186"></circle><polygon points="368.21 155.28 363.27 160.23 360.96 162.54 358.65 160.23 360.96 157.92 365.9 152.97 368.21 155.28" style="fill:#fff"></polygon><polygon points="363.27 160.23 360.96 162.54 356.06 157.64 358.37 155.33 360.96 157.92 363.27 160.23" style="fill:#fff"></polygon><circle cx="362.06" cy="188.87" r="8.6" style="fill:#6A2186"></circle><polygon points="368.21 187.01 363.27 191.96 360.96 194.27 358.65 191.96 360.96 189.65 365.9 184.7 368.21 187.01" style="fill:#fff"></polygon><polygon points="363.27 191.96 360.96 194.27 356.06 189.37 358.37 187.06 360.96 189.65 363.27 191.96" style="fill:#fff"></polygon><circle cx="362.06" cy="222.9" r="8.6" style="fill:#6A2186"></circle><polygon points="368.21 221.04 363.27 225.99 360.96 228.3 358.65 225.99 360.96 223.68 365.9 218.73 368.21 221.04" style="fill:#fff"></polygon><polygon points="363.27 225.99 360.96 228.3 356.06 223.4 358.37 221.09 360.96 223.68 363.27 225.99" style="fill:#fff"></polygon><polygon points="350.79 116.22 352.4 118.79 355.34 119.52 353.39 121.85 353.6 124.88 350.79 123.74 347.97 124.88 348.18 121.85 346.23 119.52 349.18 118.79 350.79 116.22" style="fill:#fff"></polygon><polygon points="362.06 116.22 363.67 118.79 366.62 119.52 364.67 121.85 364.88 124.88 362.06 123.74 359.25 124.88 359.46 121.85 357.51 119.52 360.45 118.79 362.06 116.22" style="fill:#fff"></polygon><polygon points="373.34 116.22 374.94 118.79 377.89 119.52 375.94 121.85 376.15 124.88 373.34 123.74 370.52 124.88 370.73 121.85 368.78 119.52 371.73 118.79 373.34 116.22" style="fill:#fff"></polygon></g><g id="freepik--standard-option--inject-16"><rect x="203.1" y="70.33" width="95.76" height="196.04" rx="18.63" style="fill:#6A2186"></rect><path d="M279.61,70.33H222.35A19.25,19.25,0,0,0,203.1,89.58V247.12a19.25,19.25,0,0,0,19.26,19.25h57.25a19.25,19.25,0,0,0,19.26-19.25V89.58A19.25,19.25,0,0,0,279.61,70.33Z" style="fill:#fff;opacity:0.5"></path><path d="M298.87,80v38.88H203.1V80a9.62,9.62,0,0,1,9.62-9.62h76.52A9.63,9.63,0,0,1,298.87,80Z" style="fill:#6A2186"></path><path d="M222.85,96l.56-1.25a4.79,4.79,0,0,0,2.87,1c1.35,0,1.93-.48,1.93-1.13,0-1.87-5.18-.64-5.18-3.88,0-1.4,1.12-2.6,3.51-2.6a5.6,5.6,0,0,1,2.9.77l-.51,1.26a4.85,4.85,0,0,0-2.4-.68c-1.35,0-1.89.52-1.89,1.18,0,1.85,5.16.64,5.16,3.84,0,1.39-1.13,2.59-3.52,2.59A5.6,5.6,0,0,1,222.85,96Z" style="fill:#fff"></path><path d="M235.25,96.51a2.47,2.47,0,0,1-1.5.45,2,2,0,0,1-2.29-2.24V91.53h-1.09V90.28h1.09V88.76H233v1.52h1.78v1.25H233v3.15c0,.65.32,1,.92,1a1.45,1.45,0,0,0,.87-.27Z" style="fill:#fff"></path><path d="M242.09,93v3.89h-1.47v-.81a2.35,2.35,0,0,1-2.09.9c-1.52,0-2.48-.83-2.48-2s.75-2,2.76-2h1.72v-.1c0-.9-.55-1.44-1.65-1.44a3.3,3.3,0,0,0-2,.66L236.25,91a4.65,4.65,0,0,1,2.81-.82C241,90.16,242.09,91.07,242.09,93Zm-1.56,1.82V94h-1.6c-1.06,0-1.35.39-1.35.88s.48.92,1.27.92A1.7,1.7,0,0,0,240.53,94.8Z" style="fill:#fff"></path><path d="M250.62,93.07v3.8h-1.56v-3.6c0-1.18-.58-1.76-1.58-1.76a1.77,1.77,0,0,0-1.85,2v3.35h-1.55V90.23h1.48v.86a2.87,2.87,0,0,1,2.28-.93A2.6,2.6,0,0,1,250.62,93.07Z" style="fill:#fff"></path><path d="M259.16,87.65v9.22h-1.49V96a2.74,2.74,0,0,1-2.2.94,3.4,3.4,0,0,1,0-6.8,2.72,2.72,0,0,1,2.14.89v-3.4Zm-1.53,5.9a2,2,0,1,0-2,2.08A1.94,1.94,0,0,0,257.63,93.55Z" style="fill:#fff"></path><path d="M266.76,93v3.89h-1.47v-.81a2.33,2.33,0,0,1-2.09.9c-1.51,0-2.47-.83-2.47-2s.74-2,2.76-2h1.72v-.1c0-.9-.55-1.44-1.66-1.44a3.27,3.27,0,0,0-2,.66L260.93,91a4.65,4.65,0,0,1,2.81-.82C265.65,90.16,266.76,91.07,266.76,93Zm-1.55,1.82V94H263.6c-1.06,0-1.34.39-1.34.88s.47.92,1.27.92A1.7,1.7,0,0,0,265.21,94.8Z" style="fill:#fff"></path><path d="M272.59,90.16v1.48a1.59,1.59,0,0,0-.36,0,1.81,1.81,0,0,0-1.93,2.05v3.22h-1.55V90.23h1.48v1A2.63,2.63,0,0,1,272.59,90.16Z" style="fill:#fff"></path><path d="M280.35,87.65v9.22h-1.49V96a2.74,2.74,0,0,1-2.2.94,3.4,3.4,0,0,1,0-6.8,2.71,2.71,0,0,1,2.14.89v-3.4Zm-1.53,5.9a2,2,0,1,0-2,2.08A1.93,1.93,0,0,0,278.82,93.55Z" style="fill:#fff"></path><rect x="221.96" y="235.53" width="59.66" height="20.43" rx="9.84" style="fill:#6A2186"></rect><rect x="226.05" y="193.73" width="49.43" height="2" style="fill:#6A2186"></rect><rect x="226.05" y="160.89" width="49.43" height="2" style="fill:#6A2186"></rect><rect x="226.05" y="129.24" width="49.43" height="2" style="fill:#6A2186"></rect><circle cx="250.01" cy="177.72" r="8.6" transform="translate(19.61 380.21) rotate(-76.72)" style="fill:#6A2186"></circle><polygon points="256.17 175.86 251.22 180.8 248.91 183.11 246.6 180.8 248.91 178.5 253.86 173.55 256.17 175.86" style="fill:#fff"></polygon><polygon points="251.22 180.8 248.91 183.11 244.02 178.21 246.32 175.91 248.91 178.5 251.22 180.8" style="fill:#fff"></polygon><circle cx="250.76" cy="211.74" r="8.6" transform="translate(-61.94 112.08) rotate(-22.5)" style="fill:#6A2186"></circle><polygon points="256.92 209.88 251.97 214.83 249.66 217.14 247.35 214.83 249.66 212.52 254.61 207.57 256.92 209.88" style="fill:#fff"></polygon><polygon points="251.97 214.83 249.66 217.14 244.77 212.24 247.07 209.93 249.66 212.52 251.97 214.83" style="fill:#fff"></polygon><circle cx="250.01" cy="146.07" r="8.51" style="fill:#263238"></circle><circle cx="250.01" cy="146.07" r="8.51" style="fill:#fff;opacity:0.5"></circle><rect x="244.83" y="144.45" width="10.37" height="3.23" transform="translate(-30.06 219.57) rotate(-45)" style="fill:#fff"></rect><rect x="244.83" y="144.45" width="10.37" height="3.23" transform="translate(323.52 426.14) rotate(-135)" style="fill:#fff"></rect><polygon points="289.3 81.09 289.3 103.91 294.12 99.1 294.12 81.09 289.3 81.09" style="fill:#6A2186"></polygon><polygon points="298.93 81.09 298.93 103.91 294.12 99.1 294.12 81.09 298.93 81.09" style="fill:#6A2186"></polygon><g style="opacity:0.30000000000000004"><polygon points="298.94 81.08 298.94 103.92 294.12 99.09 289.3 103.92 289.3 81.08 298.94 81.08"></polygon></g><path d="M296.47,58.27h0a2.71,2.71,0,0,0,3.6,1.17h0a2.73,2.73,0,0,1,3.9,2.84h0a2.75,2.75,0,0,0,2.23,3.07h0a2.72,2.72,0,0,1,1.49,4.58h0a2.73,2.73,0,0,0,0,3.79h0a2.73,2.73,0,0,1-1.49,4.59h0A2.74,2.74,0,0,0,304,81.38h0a2.73,2.73,0,0,1-3.9,2.83h0a2.73,2.73,0,0,0-3.6,1.17h0a2.73,2.73,0,0,1-4.82,0h0A2.75,2.75,0,0,0,288,84.21h0a2.73,2.73,0,0,1-3.9-2.83h0a2.73,2.73,0,0,0-2.23-3.07h0a2.73,2.73,0,0,1-1.49-4.59h0a2.73,2.73,0,0,0,0-3.79h0a2.73,2.73,0,0,1,1.49-4.58h0a2.74,2.74,0,0,0,2.23-3.07h0a2.73,2.73,0,0,1,3.9-2.84h0a2.73,2.73,0,0,0,3.61-1.17h0A2.73,2.73,0,0,1,296.47,58.27Z" style="fill:#6A2186"></path><path d="M296.47,58.27h0a2.71,2.71,0,0,0,3.6,1.17h0a2.73,2.73,0,0,1,3.9,2.84h0a2.75,2.75,0,0,0,2.23,3.07h0a2.72,2.72,0,0,1,1.49,4.58h0a2.73,2.73,0,0,0,0,3.79h0a2.73,2.73,0,0,1-1.49,4.59h0A2.74,2.74,0,0,0,304,81.38h0a2.73,2.73,0,0,1-3.9,2.83h0a2.73,2.73,0,0,0-3.6,1.17h0a2.73,2.73,0,0,1-4.82,0h0A2.75,2.75,0,0,0,288,84.21h0a2.73,2.73,0,0,1-3.9-2.83h0a2.73,2.73,0,0,0-2.23-3.07h0a2.73,2.73,0,0,1-1.49-4.59h0a2.73,2.73,0,0,0,0-3.79h0a2.73,2.73,0,0,1,1.49-4.58h0a2.74,2.74,0,0,0,2.23-3.07h0a2.73,2.73,0,0,1,3.9-2.84h0a2.73,2.73,0,0,0,3.61-1.17h0A2.73,2.73,0,0,1,296.47,58.27Z" style="fill:#6A2186"></path><g style="opacity:0.5"><path d="M296.47,58.27h0a2.71,2.71,0,0,0,3.6,1.17h0a2.73,2.73,0,0,1,3.9,2.84h0a2.75,2.75,0,0,0,2.23,3.07h0a2.72,2.72,0,0,1,1.49,4.58h0a2.73,2.73,0,0,0,0,3.79h0a2.73,2.73,0,0,1-1.49,4.59h0A2.74,2.74,0,0,0,304,81.38h0a2.73,2.73,0,0,1-3.9,2.83h0a2.73,2.73,0,0,0-3.6,1.17h0a2.73,2.73,0,0,1-4.82,0h0A2.75,2.75,0,0,0,288,84.21h0a2.73,2.73,0,0,1-3.9-2.83h0a2.73,2.73,0,0,0-2.23-3.07h0a2.73,2.73,0,0,1-1.49-4.59h0a2.73,2.73,0,0,0,0-3.79h0a2.73,2.73,0,0,1,1.49-4.58h0a2.74,2.74,0,0,0,2.23-3.07h0a2.73,2.73,0,0,1,3.9-2.84h0a2.73,2.73,0,0,0,3.61-1.17h0A2.73,2.73,0,0,1,296.47,58.27Z" style="fill:#fff"></path></g><path d="M289.73,69h-1.24a1.12,1.12,0,0,0-1.11,1l-.3,5.72a1,1,0,0,0,1,1.06h1.24a1.13,1.13,0,0,0,1.11-1.06l.3-5.72A1,1,0,0,0,289.73,69Z" style="fill:#fff"></path><path d="M299.62,69h-2.91l.81-1.91a1.19,1.19,0,0,0,.1-.64l-.17-1.5a1.19,1.19,0,0,0-1.18-1.06h-1.45A7.32,7.32,0,0,1,293.25,68l-.89,1.12a1.81,1.81,0,0,0-.39,1l-.28,5.34a1.24,1.24,0,0,0,1.24,1.31H298a1.62,1.62,0,0,0,1.19-.54l.47-.52A1.8,1.8,0,0,0,300,75l1-4.31a1.43,1.43,0,0,0-.24-1.15h0A1.41,1.41,0,0,0,299.62,69Z" style="fill:#fff"></path><polygon points="250.01 103.91 251.62 106.49 254.57 107.22 252.62 109.55 252.83 112.57 250.01 111.44 247.2 112.57 247.41 109.55 245.46 107.22 248.41 106.49 250.01 103.91" style="fill:#fff"></polygon><path d="M236.62,247.34c0,1.86-1.49,3.1-3.82,3.3l-.31,1.53h-1.4l.31-1.53a6.67,6.67,0,0,1-3.21-1.08l.93-1.73a5.51,5.51,0,0,0,2.64,1l.48-2.36c-1.3-.39-2.73-.91-2.73-2.6,0-1.86,1.53-3.11,3.9-3.28l.31-1.54h1.4l-.31,1.55a6.08,6.08,0,0,1,2.57.8l-.85,1.73a4.66,4.66,0,0,0-2.09-.72l-.48,2.45C235.24,245.23,236.62,245.73,236.62,247.34Zm-4-2.88.4-2c-.79.15-1.24.59-1.25,1.12S232.13,244.25,232.63,244.46Zm1.73,3.24c0-.4-.32-.65-.81-.83l-.38,1.91C233.93,248.63,234.36,248.23,234.36,247.7Z" style="fill:#fff"></path></g><g id="freepik--basic-option--inject-16"><rect x="88.63" y="81.49" width="95.76" height="196.04" rx="18.63" style="fill:#263238"></rect><rect x="88.63" y="81.49" width="95.76" height="196.04" rx="18.92" style="fill:#fff;opacity:0.7000000000000001"></rect><path d="M184.39,91.11V130H88.63V91.11a9.62,9.62,0,0,1,9.62-9.62h76.52A9.62,9.62,0,0,1,184.39,91.11Z" style="fill:#6A2186"></path><path d="M184.39,91.11V130H88.63V91.11a9.62,9.62,0,0,1,9.62-9.62h76.52A9.62,9.62,0,0,1,184.39,91.11Z" style="fill:#6A2186"></path><path d="M128.64,105.67c0,1.49-1.16,2.36-3.4,2.36h-4.33v-8.7H125c2.09,0,3.21.88,3.21,2.26a2.09,2.09,0,0,1-1.12,1.91A2.15,2.15,0,0,1,128.64,105.67Zm-6.11-5.08V103h2.28c1.12,0,1.76-.39,1.76-1.19s-.64-1.21-1.76-1.21Zm4.48,4.92c0-.87-.65-1.26-1.87-1.26h-2.61v2.51h2.61C126.36,106.76,127,106.38,127,105.51Z" style="fill:#fff"></path><path d="M135.78,104.14V108h-1.46v-.81a2.38,2.38,0,0,1-2.09.9c-1.52,0-2.48-.83-2.48-2s.75-2,2.76-2h1.72v-.1c0-.91-.55-1.44-1.66-1.44a3.3,3.3,0,0,0-2,.66l-.61-1.13a4.65,4.65,0,0,1,2.81-.82C134.68,101.32,135.78,102.22,135.78,104.14ZM134.23,106v-.77h-1.61c-1.05,0-1.34.4-1.34.89s.47.92,1.27.92A1.69,1.69,0,0,0,134.23,106Z" style="fill:#fff"></path><path d="M137,107.37l.6-1.18a4.44,4.44,0,0,0,2.31.66c1,0,1.4-.27,1.4-.73,0-1.27-4.11-.08-4.11-2.73,0-1.25,1.13-2.07,2.93-2.07a5.25,5.25,0,0,1,2.48.57l-.59,1.18a3.69,3.69,0,0,0-1.91-.5c-.94,0-1.39.31-1.39.75,0,1.34,4.1.15,4.1,2.75,0,1.24-1.14,2.05-3,2.05A5.33,5.33,0,0,1,137,107.37Z" style="fill:#fff"></path><path d="M144,99.36a1,1,0,0,1,2,0,1,1,0,0,1-1,1A.94.94,0,0,1,144,99.36Zm.21,2h1.55V108h-1.55Z" style="fill:#fff"></path><path d="M147.22,104.71a3.36,3.36,0,0,1,3.6-3.39,3,3,0,0,1,2.83,1.54l-1.19.69a1.88,1.88,0,0,0-1.65-.92,2.08,2.08,0,0,0,0,4.16,1.88,1.88,0,0,0,1.65-.92l1.19.69a3,3,0,0,1-2.83,1.56A3.38,3.38,0,0,1,147.22,104.71Z" style="fill:#fff"></path><circle cx="135.09" cy="190.67" r="8.51" transform="translate(-95.26 151.36) rotate(-45)" style="fill:#263238"></circle><circle cx="135.09" cy="190.67" r="8.51" transform="translate(-95.26 151.36) rotate(-45)" style="fill:#fff;opacity:0.5"></circle><rect x="129.9" y="189.05" width="10.37" height="3.23" transform="translate(-95.26 151.36) rotate(-45)" style="fill:#fff"></rect><rect x="129.9" y="189.05" width="10.37" height="3.23" transform="translate(95.78 421.01) rotate(-135)" style="fill:#fff"></rect><circle cx="135.48" cy="222.11" r="8.6" style="fill:#6A2186"></circle><polygon points="141.64 220.25 136.69 225.2 134.38 227.51 132.07 225.2 134.38 222.89 139.33 217.94 141.64 220.25" style="fill:#fff"></polygon><polygon points="136.69 225.2 134.38 227.51 129.49 222.61 131.79 220.3 134.38 222.89 136.69 225.2" style="fill:#fff"></polygon><rect x="106.68" y="246.69" width="59.66" height="20.43" rx="9.84" style="fill:#6A2186"></rect><path d="M119.61,258.84c0,1.86-1.49,3.1-3.83,3.29l-.3,1.54h-1.4l.31-1.54a6.65,6.65,0,0,1-3.22-1.07l.94-1.73a5.51,5.51,0,0,0,2.64,1l.47-2.36c-1.29-.39-2.72-.91-2.72-2.6,0-1.86,1.52-3.12,3.9-3.28l.31-1.54h1.39l-.3,1.55a6.08,6.08,0,0,1,2.57.8l-.86,1.73a4.63,4.63,0,0,0-2.08-.73l-.49,2.46C118.23,256.73,119.61,257.23,119.61,258.84Zm-4-2.88.4-2c-.8.15-1.24.58-1.26,1.12S115.11,255.75,115.62,256Zm1.73,3.24c0-.4-.32-.66-.81-.84l-.38,1.92C116.91,260.12,117.35,259.73,117.35,259.2Z" style="fill:#fff"></path><rect x="110.77" y="204.89" width="49.43" height="2" style="fill:#6A2186"></rect><rect x="110.77" y="172.05" width="49.43" height="2" style="fill:#6A2186"></rect><rect x="110.77" y="140.4" width="49.43" height="2" style="fill:#6A2186"></rect><circle cx="135.09" cy="157.23" r="8.51" transform="translate(-71.61 141.57) rotate(-45)" style="fill:#263238"></circle><circle cx="135.09" cy="157.23" r="8.51" transform="translate(-71.61 141.57) rotate(-45)" style="fill:#fff;opacity:0.5"></circle><rect x="129.9" y="155.61" width="10.37" height="3.23" transform="translate(-71.61 141.57) rotate(-45)" style="fill:#fff"></rect><rect x="129.9" y="155.61" width="10.37" height="3.23" transform="translate(119.43 363.92) rotate(-135)" style="fill:#fff"></rect></g><g id="freepik--character-2--inject-16"><polygon points="260.09 409.12 267.76 410.52 273.56 396.37 265.18 393.02 260.09 409.12" style="fill:#ffc2bc"></polygon><polygon points="262.84 400.14 265.03 393.56 268.89 394.5 273.56 396.37 271.06 402.53 262.84 400.14" style="opacity:0.1"></polygon><path d="M258.59,406.46s-.3-.27-.69-.58-.63-.48-1-.74a5.14,5.14,0,0,0-2.45-1,1.24,1.24,0,0,0-.76.28.71.71,0,0,0-.25.82,3.94,3.94,0,0,0,2.33,1.19l.71.15a18.42,18.42,0,0,0,2,.25h0a.21.21,0,0,0,.19-.12A.19.19,0,0,0,258.59,406.46Zm-1.6-.2c-1.44-.24-3-.69-3.17-1.2,0-.07-.06-.2.16-.4a.62.62,0,0,1,.46-.16,1.92,1.92,0,0,1,.41.05,9.38,9.38,0,0,1,2.56,1.49c.15.11.29.23.43.35C257.57,406.36,257.28,406.31,257,406.26Z" style="fill:#6A2186"></path><path d="M258.2,403.31a1.6,1.6,0,0,0-1-.58c-.57-.09-.81.13-.9.34-.22.45.12,1.29.62,2.07a8.35,8.35,0,0,0,.64.86,5.39,5.39,0,0,0,.78.76.12.12,0,0,0,.09,0h0a.17.17,0,0,0,.1,0,.2.2,0,0,0,.13-.14,7.54,7.54,0,0,0,.08-.89A3.88,3.88,0,0,0,258.2,403.31Zm.09,2.87c-.1-.1-.21-.2-.31-.32-.79-.87-1.53-2.21-1.34-2.67,0,0,.08-.18.46-.12l.11,0a1.15,1.15,0,0,1,.63.4,4.19,4.19,0,0,1,.49,2.3C258.32,405.93,258.31,406.05,258.29,406.18Z" style="fill:#6A2186"></path><path d="M259.6,405.9l9.27,2.22a.72.72,0,0,1,.58.71l-.28,7.38a1.24,1.24,0,0,1-1.31,1.15,1.1,1.1,0,0,1-.27,0c-3.33-.85-6.25-1.73-10.42-2.72-4.91-1.17-3.81-.33-9.6-1.63-3.49-.79-3.11-4.6-1.58-4.43,7,.83,8.19-.88,11.42-2.49A3.3,3.3,0,0,1,259.6,405.9Z" style="fill:#263238"></path><polygon points="315.29 410.51 322.63 410.51 324.8 398.35 315.82 396.67 315.29 410.51" style="fill:#ffc2bc"></polygon><polygon points="315.82 396.67 324.8 398.35 323.34 406.54 315.52 406.22 315.82 396.67" style="opacity:0.1"></polygon><polygon points="326.38 404.3 313.2 403.55 312.8 398.35 327.55 399.36 326.38 404.3" style="fill:#6A2186"></polygon><polygon points="326.38 404.3 313.2 403.55 312.8 398.35 327.55 399.36 326.38 404.3" style="fill:#fff;opacity:0.5"></polygon><path d="M314.22,410.7s-.34-.19-.78-.41-.66-.31-1.06-.46a4.54,4.54,0,0,0-2.52-.43,1,1,0,0,0-.61.45.75.75,0,0,0,0,.85,3.49,3.49,0,0,0,2.41.61l.67,0a15.69,15.69,0,0,0,1.81-.22h0a.22.22,0,0,0,.15-.16A.21.21,0,0,0,314.22,410.7Zm-1.51.19c-1.36.1-2.83,0-3.15-.42-.06-.07-.11-.18,0-.42a.54.54,0,0,1,.38-.28,1.5,1.5,0,0,1,.37,0,8.59,8.59,0,0,1,2.7.85,2.65,2.65,0,0,1,.48.23Z" style="fill:#6A2186"></path><path d="M314.34,410.88a7.65,7.65,0,0,0-.14-.89,4.36,4.36,0,0,0-1.15-2.28,1.39,1.39,0,0,0-1.07-.32c-.55.05-.71.32-.73.55-.09.5.45,1.25,1.13,1.89a6.52,6.52,0,0,0,.76.66,4.59,4.59,0,0,0,.91.56.11.11,0,0,0,.08,0h0a.17.17,0,0,0,.1,0A.19.19,0,0,0,314.34,410.88ZM311.61,408c0-.05,0-.19.39-.23h.1a1,1,0,0,1,.68.25,4.48,4.48,0,0,1,1,2.12,2.5,2.5,0,0,1,.06.38l-.36-.24C312.57,409.59,311.57,408.46,311.61,408Z" style="fill:#6A2186"></path><path d="M315,409.91l8.94-.05a.72.72,0,0,1,.7.56l1.66,7.26a1.19,1.19,0,0,1-.89,1.43l-.25,0c-3.22,0-6.09-.2-10.1-.17-4.73,0-3.53.58-9.09.69-3.35.07-4-3.74-2.56-3.93,6.5-.86,7.16-2.83,9.66-5.17A2.89,2.89,0,0,1,315,409.91Z" style="fill:#263238"></path><path d="M298.74,230.86l-34.62,162,12.76,3.39c9.54-20.88,17.54-42.25,23.5-59,2.83-7.93,4-15.39,6.13-22.38,2.58-8.31,6.05-15.95,7.81-22.93,9.25-36.54,8.51-54.84,8.51-54.84l2-4.82Z" style="fill:#263238"></path><path d="M320,265.63c-1.25,7.37-3.06,16.17-5.65,26.39-.84,3.32-6.47,19.31-7.81,22.93-1.56-23.4,3.79-63,3.79-63Z" style="opacity:0.30000000000000004"></path><path d="M309.37,231.69l2.61,89,2.29,78,12,.83c3.35-19.09,5.81-36.4,7.57-52,1.16-10.19-.8-17.64-.18-26.37.11-1.45.22-2.94.35-4.46a476,476,0,0,0,.43-75.14c-.35-4.77-.59-8-.59-8l-24.51-3.13Z" style="fill:#263238"></path><polygon points="275.19 400.81 262.57 396.92 263.43 391.78 277.51 396.3 275.19 400.81" style="fill:#6A2186"></polygon><polygon points="275.19 400.81 262.57 396.92 263.43 391.78 277.51 396.3 275.19 400.81" style="fill:#fff;opacity:0.5"></polygon><path d="M307.65,175.24a37.78,37.78,0,0,0-5.19,11.39,46.13,46.13,0,0,0-1.26,5.57l-.87,2.39-7.72-3.07-1.22-.48c1.88-8.47,9.16-16.13,14.56-16A5.79,5.79,0,0,1,307.65,175.24Z" style="fill:#6A2186"></path><path d="M307.65,175.24a37.78,37.78,0,0,0-5.19,11.39,46.13,46.13,0,0,0-1.26,5.57l-.87,2.39-7.72-3.07-1.22-.48c1.88-8.47,9.16-16.13,14.56-16A5.79,5.79,0,0,1,307.65,175.24Z" style="fill:#fff;opacity:0.2"></path><path d="M298,230.1c.93-2.08.81-6.13,3.88-6.9,4.08-1,7.44-1.3,23.5.06,7.58.65,9.26,6.7,9,9.81a2.29,2.29,0,0,1-.41,1.15l-.32.46c-.75.29-35.12-3.52-35.46-3.31A1.24,1.24,0,0,1,298,230.1Z" style="fill:#6A2186"></path><path d="M298,230.1c.93-2.08.81-6.13,3.88-6.9,4.08-1,7.44-1.3,23.5.06,7.58.65,9.26,6.7,9,9.81a2.29,2.29,0,0,1-.41,1.15l-.32.46c-.75.29-35.12-3.52-35.46-3.31A1.24,1.24,0,0,1,298,230.1Z" style="fill:#fff;opacity:0.2"></path><g id="freepik--group--inject-16"><path d="M306.36,175.18c-.22.41-7.05,1.12-6.51,31,.07,3.85-.91,12-.91,12v0l-1,2.49a7.52,7.52,0,0,0,.34,6.29l.5.93a0,0,0,0,0,0,0l34.63,3.52h1s2.23-18.08,5.21-30.17c1-3.94,2-8.78,2-8.78a85.63,85.63,0,0,1-1-13.77s0-.05,0-.06a90,90,0,0,0-12.81-2.8,99.44,99.44,0,0,0-13.9-1.13C309.58,174.93,306.37,175.17,306.36,175.18Z" style="fill:#6A2186"></path><path d="M327.77,160.2c-1.24,4.41-2.79,12.54.1,15.78l-2.19,2.29A6.89,6.89,0,0,1,314,174.85h0c5.07-.8,4-5.89,4.92-10.8Z" style="fill:#ffc2bc"></path><path d="M316.23,159c1,3.52,2.48,9.18,1.42,13.09,4.55.4,7.57-3.73,7.76-5.05a32.76,32.76,0,0,1-1.32-4.77Z" style="isolation:isolate;opacity:0.2"></path><path d="M329.11,153.31c-.55,7.5-.61,10.68-4.44,14.48-5.76,5.73-14.85,3.42-16.56-4.08-1.54-6.76-.39-17.87,7-20.78a10.26,10.26,0,0,1,14,10.38Z" style="fill:#ffc2bc"></path><path d="M333.44,149.83a48.83,48.83,0,0,0-1.51,8.66l-2.86,0a1.94,1.94,0,0,0-.47,2,2.7,2.7,0,0,1-1.18-1,3.1,3.1,0,0,1-.3-1.39,40.24,40.24,0,0,0-.59-5.49c-1.47-.6-3.17-.44-4.54-1.24a25.36,25.36,0,0,1-7.87-7,8.88,8.88,0,0,0-4.75,5.53,1.72,1.72,0,0,1-1.76-.73,3.8,3.8,0,0,1-.59-1.91,7.26,7.26,0,0,1,1.28-5,5,5,0,0,1,3.09-1.9,5.63,5.63,0,0,0,1.55-.19c.52-.24,1-.86,1.5-1.18a10.1,10.1,0,0,1,7.69-.86,20.47,20.47,0,0,1,8.35,5.21C331.79,144.63,333.93,148.1,333.44,149.83Z" style="fill:#263238"></path><path d="M331.72,160.52a5.49,5.49,0,0,1-3.34,2.54c-1.86.47-2.75-1.2-2.2-2.94.5-1.57,2.08-3.67,3.92-3.41a2.47,2.47,0,0,1,2,2.86A2.4,2.4,0,0,1,331.72,160.52Z" style="fill:#ffc2bc"></path><path d="M317.5,155.19c0,.66-.37,1.17-.79,1.18s-.77-.54-.77-1.19.37-1.17.79-1.18S317.5,154.54,317.5,155.19Z" style="fill:#263238"></path><path d="M310.08,155.11c0,.66-.37,1.17-.8,1.18s-.77-.54-.76-1.2.36-1.17.79-1.18S310.11,154.44,310.08,155.11Z" style="fill:#263238"></path><path d="M313,156.47a17.82,17.82,0,0,1-2.39,4.17,2.84,2.84,0,0,0,2.33.45Z" style="fill:#ec837e"></path><path d="M315.27,163.31a5.9,5.9,0,0,1-1.15.36.17.17,0,0,1-.2-.13h0a.18.18,0,0,1,.13-.19,5.22,5.22,0,0,0,3.76-2.87.16.16,0,0,1,.19-.12.14.14,0,0,1,.12.16v0A5.26,5.26,0,0,1,315.27,163.31Z" style="fill:#263238"></path><path d="M320.1,151.48a.24.24,0,0,1-.25-.06,2.66,2.66,0,0,0-2.33-.77.3.3,0,0,1-.34-.22.25.25,0,0,1,.14-.34h0a3.2,3.2,0,0,1,2.82.91.32.32,0,0,1,.06.4A.15.15,0,0,1,320.1,151.48Z" style="fill:#263238"></path><path d="M308.12,151.83a.29.29,0,0,1-.31-.06.31.31,0,0,1,0-.44h0a3.72,3.72,0,0,1,3.17-1.37.3.3,0,0,1,.28.33v0a.33.33,0,0,1-.36.28h0a3.08,3.08,0,0,0-2.6,1.16A.42.42,0,0,1,308.12,151.83Z" style="fill:#263238"></path></g><path d="M326.65,173.59l2.77,2.61s-10,7-10.17,6.55A27,27,0,0,0,317,180Z" style="fill:#6A2186"></path><path d="M316.54,173.35l-3.53,1.4s.6,7.56.91,7.2a26.52,26.52,0,0,1,3.1-1.77Z" style="fill:#6A2186"></path><path d="M326.65,173.59l2.77,2.61s-10,7-10.17,6.55A27,27,0,0,0,317,180Z" style="fill:#fff;opacity:0.2"></path><path d="M316.54,173.35l-3.53,1.4s.6,7.56.91,7.2a26.52,26.52,0,0,1,3.1-1.77Z" style="fill:#fff;opacity:0.2"></path><path d="M314.66,204.56c.64.95,5.85,0,5.85,0l4.47.31a1,1,0,0,0,1-.85l1.24-5.65a.51.51,0,0,0-.42-.57l-3.53-.63a5.5,5.5,0,0,0-4.08.86l-3.74,2.54Z" style="fill:#ffc2bc"></path><path d="M315.64,200.29l-.23,4.35s-20.1,7.55-25.86,4.25c-3.78-2.16,0-11.32,3.06-17.39l7.72,2.89L297.78,201Z" style="fill:#ffc2bc"></path><g style="isolation:isolate;opacity:0.1"><path d="M314.66,204.56c.64.95,5.85,0,5.85,0l4.47.31a1,1,0,0,0,1-.85l1.24-5.65a.51.51,0,0,0-.42-.57l-3.53-.63a5.5,5.5,0,0,0-4.08.86l-3.74,2.54Z"></path><path d="M315.64,200.29l-.23,4.35s-20.1,7.55-25.86,4.25c-3.78-2.16,0-11.32,3.06-17.39l7.72,2.89L297.78,201Z"></path></g><path d="M339.43,181.93l-14.82,20.4-21.71-4-1,4.28s21,11.44,26.77,8.09,15.4-23.63,15.4-23.63Z" style="fill:#ffc2bc"></path><path d="M301.92,202.6c-.65.94-5.85-.07-5.85-.07l-4.47.25a1,1,0,0,1-1-.87l-1.17-5.65a.51.51,0,0,1,.42-.57l3.55-.59a5.51,5.51,0,0,1,4.07.92l5.41,2.45Z" style="fill:#ffc2bc"></path><path d="M342.24,180c3.49,4.12,2.47,14.32-2.56,20.8l-12.25-7.2s7.19-12.14,11.15-14.53C340.28,178.07,341,178.51,342.24,180Z" style="fill:#6A2186"></path><path d="M342.24,180c3.49,4.12,2.47,14.32-2.56,20.8l-12.25-7.2s7.19-12.14,11.15-14.53C340.28,178.07,341,178.51,342.24,180Z" style="fill:#fff;opacity:0.2"></path></g><g id="freepik--character-1--inject-16"><polygon points="231.95 411.83 239.72 412.9 247.66 397.4 239.06 395.97 231.95 411.83" style="fill:#ffc2bc"></polygon><polygon points="239.06 395.97 247.66 397.4 243.33 405.83 235.19 404.61 239.06 395.97" style="isolation:isolate;opacity:0.2"></polygon><path d="M242,410l-9.61-.52a.66.66,0,0,0-.7.51l-1.95,7a1.15,1.15,0,0,0,.81,1.42h.27c3.11.12,5.35.05,9.29.26,2.41.13,9.65.78,13,1s3.93-3.09,2.59-3.46c-6-1.66-10.5-3.79-12.37-5.61A1.92,1.92,0,0,0,242,410Z" style="fill:#263238"></path><path d="M242.47,411a.17.17,0,0,1-.13-.17.16.16,0,0,1,.09-.18c.29-.16,2.94-1.59,3.79-1.1a.58.58,0,0,1,.29.55,1.07,1.07,0,0,1-.45,1,2.32,2.32,0,0,1-1.54.31A8.94,8.94,0,0,1,242.47,411Zm3.31-1.12a7.86,7.86,0,0,0-2.75.89,3.74,3.74,0,0,0,2.81,0,.77.77,0,0,0,.29-.66.31.31,0,0,0-.1-.23.52.52,0,0,0-.25,0Z" style="fill:#6A2186"></path><path d="M242.45,411.13a.25.25,0,0,1-.08-.18c0-.12.28-2.38,1.24-3.07a1,1,0,0,1,.82-.2.6.6,0,0,1,.57.52c.11.84-1.56,2.5-2.4,2.9h-.09Zm1.82-3.16a.66.66,0,0,0-.42.15,4.46,4.46,0,0,0-1.08,2.42c.85-.56,1.93-1.83,1.85-2.35,0-.05,0-.19-.25-.21h-.1Z" style="fill:#6A2186"></path><path d="M190.5,366.81l5.69.21a140.85,140.85,0,0,0,28.08-4.17c8.23-2,21.87-8.3,21.87-8.3-4.39,18.78-12.3,47.4-12.3,47.4l12.22,1.41s31.82-60.62,17.78-67.56c-12.55-6.7-61.1-2.3-61.1-2.3l-5-5.25L163.81,331S157.32,366.76,190.5,366.81Z" style="fill:#263238"></path><polygon points="246.84 405.83 232.86 401.59 234.54 395.76 249.69 401.53 246.84 405.83" style="fill:#6A2186"></polygon><polygon points="246.84 405.83 232.86 401.59 234.54 395.76 249.69 401.53 246.84 405.83" style="fill:#fff;opacity:0.5"></polygon><path d="M194.71,353.55c3.41,10,29.32,9,32.93,8.52-21.33,4.11-25.35,4.67-31.45,4.95l-5.69-.21a36.68,36.68,0,0,1-5.31-.39C187.83,349.23,190.59,341.48,194.71,353.55Z" style="opacity:0.4"></path><polygon points="124.86 394.56 123.86 402.42 141.99 405.38 142.99 397.51 124.86 394.56" style="fill:#ffc2bc"></polygon><path d="M125.47,403.51l5.64-7.85a.69.69,0,0,0-.05-.86l-4.81-5.39a1.17,1.17,0,0,0-1.65-.08.71.71,0,0,0-.13.22c-1.78,2.56-2.93,4.48-5.23,7.69-1.4,1.95-5.86,7.72-7.79,10.41s.48,5,1.51,4c4.65-4.18,8.82-6.83,11.39-7.4A1.87,1.87,0,0,0,125.47,403.51Z" style="fill:#263238"></path><path d="M124.26,403.31a.2.2,0,0,1,.21,0,.16.16,0,0,1,.09.18c0,.34-.23,3.34-1.1,3.78a.58.58,0,0,1-.62,0,1.09,1.09,0,0,1-.59-.91,2.33,2.33,0,0,1,.56-1.47A10,10,0,0,1,124.26,403.31Zm-.1.6a3.79,3.79,0,0,0-1.54,2.37.81.81,0,0,0,.4.61c.13.07.23.06.25,0a.39.39,0,0,0,.19-.17A7.91,7.91,0,0,0,124.16,403.91Z" style="fill:#6A2186"></path><path d="M124.27,403.25a.25.25,0,0,1,.19,0c.09.08,1.82,1.57,1.89,2.75a1,1,0,0,1-.27.78.61.61,0,0,1-.75.21c-.78-.36-1.27-2.66-1.15-3.58l0-.08A.14.14,0,0,1,124.27,403.25Zm1.76,2.84a4.51,4.51,0,0,0-1.47-2.21,4.57,4.57,0,0,0,1,2.83.23.23,0,0,0,.32-.11l0-.09A.69.69,0,0,0,126,406.09Z" style="fill:#6A2186"></path><polygon points="142.98 397.5 141.98 405.38 132.63 403.85 133.64 395.98 142.98 397.5" style="isolation:isolate;opacity:0.2"></polygon><path d="M195.43,346.11c2.76,4.37,12.3,57.09-5.51,68.87-13.12,8.65-54.42-7.72-54.42-7.72l1.32-13.09s33.55,6.28,37.7,2.9-9.7-40-10.38-48.57S195.43,346.11,195.43,346.11Z" style="fill:#263238"></path><polygon points="134.58 408.21 135.03 393.6 141.09 393.71 139.47 409.84 134.58 408.21" style="fill:#6A2186"></polygon><polygon points="134.58 408.21 135.03 393.6 141.09 393.71 139.47 409.84 134.58 408.21" style="fill:#fff;opacity:0.5"></polygon><path d="M199.17,329.63c-1.07-2-4.33-5.93-7.47-6.48-4.17-.73-5.06-.89-21.15,1.58-7.59,1.16-8.14,7.12-7.72,10.21a2.29,2.29,0,0,0,.49,1.13l.35.43c.78.24,35-5.77,35.35-5.58A1.24,1.24,0,0,0,199.17,329.63Z" style="fill:#6A2186"></path><path d="M199.17,329.63c-1.07-2-4.33-5.93-7.47-6.48-4.17-.73-5.06-.89-21.15,1.58-7.59,1.16-8.14,7.12-7.72,10.21a2.29,2.29,0,0,0,.49,1.13l.35.43c.78.24,35-5.77,35.35-5.58A1.24,1.24,0,0,0,199.17,329.63Z" style="fill:#fff;opacity:0.2"></path><g id="freepik--group--inject-16"><path d="M236.31,272a14.1,14.1,0,0,0,6.27-2,12.21,12.21,0,0,0,3.29-3.44,2,2,0,0,0,.33-1.38,6.33,6.33,0,0,0-1.3-3.11,1.18,1.18,0,0,0-1.62-.19c-1.16.83-2.48,1.7-3.52,2.51-2.93.55-5.71,3.25-5.95,6.22C234.6,271,235.51,271.58,236.31,272Z" style="fill:#ffc2bc"></path><path d="M237.59,268.07l.8,3.87s-19.25,13.63-22.92,13.83c-2.52.14-5.44.27-8.46.37-3.46.12-7.07.19-10.35.17-5.93-.05-10.78-.44-11.77-1.48-3-3.17.21-8.17,4.9-8.12,6.11.06,16.79,1.51,26.93,1.12C220.19,277.7,237.59,268.07,237.59,268.07Z" style="fill:#ffc2bc"></path><path d="M207,286.14c-3.46.12-7.07.19-10.35.17L193,281.09A72.12,72.12,0,0,1,207,286.14Z" style="opacity:0.2"></path><path d="M195,275.59s-8.49-1.61-9.93,2.49,2.34,11.4,14.14,10.12l1.2-12.48Z" style="fill:#6A2186"></path><path d="M195,275.59s-8.49-1.61-9.93,2.49,2.34,11.4,14.14,10.12l1.2-12.48Z" style="fill:#fff;opacity:0.2"></path><path d="M188.51,275.69c.23.4,6.69,8.89,7.59,15.51.65,4.78,0,10-.09,15.32-.07,3.84,1.29,12,1.29,12v0l1.07,2.46a7.54,7.54,0,0,1-.14,6.3l-.47,1,0,0-34.51,4.62h0l-.21-.11s-3.07-2.57-2.05-5.84v-2.53c1.38-4.51,1-10.32-2.42-22.31-1.09-3.91-2.3-8.71-2.3-8.71.91-8.64-1.9-13-1.93-13s0-.05,0-.06a90.92,90.92,0,0,1,12.71-3.2,97.86,97.86,0,0,1,13.86-1.58C185.29,275.55,188.5,275.68,188.51,275.69Z" style="fill:#6A2186"></path><path d="M185.1,245.28c2.17,2.51,2.64,6,3.56,9.23.75,2.6,2.38,7.88,1.37,10.38-1.15,2.85-6.81.44-8.69,2.86-7.48,9.67-12,5.51-14.87,3.12-1.44-1.18-6.91-2.35-8.32-3.56s-3.82-1.82-2.78-6.52c4.16-18.83,11.07-19.94,20.29-19.43C179.19,241.55,182.72,242.52,185.1,245.28Z" style="fill:#263238"></path><path d="M166.63,261.4c1.39,4.37,3.2,12.44.41,15.78l2.26,2.22a6.89,6.89,0,0,0,11.61-3.8h0c-5.09-.63-4.18-5.75-5.26-10.64Z" style="fill:#ffc2bc"></path><path d="M178.13,259.8c-.94,3.55-2.18,9.26-1,13.13-4.54.55-7.69-3.49-7.91-4.8a32,32,0,0,0,1.15-4.81Z" style="isolation:isolate;opacity:0.2"></path><path d="M165.08,254.55c.78,7.48.95,10.66,4.9,14.34,5.94,5.54,15,2.94,16.42-4.61,1.32-6.8-.18-17.87-7.64-20.55a10.25,10.25,0,0,0-13.68,10.82Z" style="fill:#ffc2bc"></path><path d="M166.88,258.48a6.59,6.59,0,0,1,.9,3.3,1.85,1.85,0,0,0,.57-2.21C168.11,258.78,167.7,258.4,166.88,258.48Z" style="fill:#263238"></path><path d="M162.69,261.84a5.56,5.56,0,0,0,3.42,2.44c1.88.41,2.72-1.29,2.11-3-.54-1.55-2.19-3.6-4-3.29a2.48,2.48,0,0,0-1.91,2.93A2.43,2.43,0,0,0,162.69,261.84Z" style="fill:#ffc2bc"></path><path d="M175.78,256.3c0,.66.4,1.16.82,1.16s.76-.57.73-1.22-.41-1.16-.83-1.15S175.75,255.65,175.78,256.3Z" style="fill:#263238"></path><path d="M183.19,256c0,.65.4,1.16.83,1.15s.76-.56.72-1.22-.39-1.16-.82-1.16S183.13,255.32,183.19,256Z" style="fill:#263238"></path><path d="M183.73,254.81l1.54-.48S184.54,255.52,183.73,254.81Z" style="fill:#263238"></path><path d="M181.28,257.2a17.74,17.74,0,0,0,2.52,4.09,2.84,2.84,0,0,1-2.32.53Z" style="fill:#ec837e"></path><path d="M179.23,264.11a5.69,5.69,0,0,0,1.16.32.16.16,0,0,0,.19-.13h0a.18.18,0,0,0-.13-.19,5.17,5.17,0,0,1-3.85-2.75.18.18,0,0,0-.19-.12.15.15,0,0,0-.12.17v0A5.3,5.3,0,0,0,179.23,264.11Z" style="fill:#263238"></path><path d="M174,251.44a.25.25,0,0,0,.25-.07,2.67,2.67,0,0,1,2.3-.84.31.31,0,0,0,.34-.23.26.26,0,0,0-.16-.34h0a3.19,3.19,0,0,0-2.79,1,.31.31,0,0,0-.05.4A.15.15,0,0,0,174,251.44Z" style="fill:#263238"></path><path d="M186,251.41a.32.32,0,0,0,.31-.07.32.32,0,0,0,0-.45h0a3.72,3.72,0,0,0-3.21-1.27.3.3,0,0,0-.27.34v0a.32.32,0,0,0,.37.26h0a3.16,3.16,0,0,1,2.64,1.08A.28.28,0,0,0,186,251.41Z" style="fill:#263238"></path><path d="M176.32,255.13l1.54-.49S177.12,255.87,176.32,255.13Z" style="fill:#263238"></path><path d="M172.23,247.24c2.21,2.7-5.78,9.76-5.35,11.24-2.17.14-3.78-4.41-3.89-6.77a10,10,0,0,1,2.1-6.61c.93-1.19,2.65-1.41,4.16-1.61a2.33,2.33,0,0,1,1.31.1,1.73,1.73,0,0,1,.9,1.37A6.41,6.41,0,0,0,172.23,247.24Z" style="fill:#263238"></path><path d="M169.25,243.49a9.13,9.13,0,0,1,3.05,9.84,9.42,9.42,0,0,0,2.36-2.87,3.52,3.52,0,0,0-.22-3.69,9.92,9.92,0,0,1,3.93,6.55,3.82,3.82,0,0,0,1.55-2.85,3.78,3.78,0,0,0-1.1-3,6.07,6.07,0,0,1,2,5.49,4,4,0,0,0,1.55-3.36,4.63,4.63,0,0,0-2-3.45,6.85,6.85,0,0,1,3.54,5.84c2.28-2.21,1.51-5.38-1.29-7.12A17.73,17.73,0,0,0,169.25,243.49Z" style="fill:#263238"></path></g><path d="M168.15,274.75l-2.68,2.69s10.22,6.68,10.37,6.23a27,27,0,0,1,2.15-2.86Z" style="fill:#6A2186"></path><path d="M178.25,274.18l3.57,1.3s-.35,7.57-.68,7.22A26.42,26.42,0,0,0,178,281Z" style="fill:#6A2186"></path><path d="M168.15,274.75l-2.68,2.69s10.22,6.68,10.37,6.23a27,27,0,0,1,2.15-2.86Z" style="fill:#fff;opacity:0.2"></path><path d="M178.25,274.18l3.57,1.3s-.35,7.57-.68,7.22A26.42,26.42,0,0,0,178,281Z" style="fill:#fff;opacity:0.2"></path><path d="M113.2,306.29l-8.61.82,3,6.76a40.39,40.39,0,0,0,6.67-3.71Z" style="fill:#ffc2bc"></path><path d="M101.41,312.28l.14.25a2.9,2.9,0,0,0,2.62,1.45l3.43-.11-3-6.76-2.1,1.2A2.9,2.9,0,0,0,101.41,312.28Z" style="fill:#ffc2bc"></path><path d="M115.13,309.91s15.05,1.38,29.14-5.27c0,0,9.47-7.89,14.59-14.52,7.6-9.86.53-12.83-5.08-6.47-4.16,4.72-13.8,13.84-13.8,13.84-12.11,7-27.84,9.18-27.84,9.18C109.09,311.07,115.13,309.91,115.13,309.91Z" style="fill:#ffc2bc"></path><path d="M163.22,279.9c3.58,2.87-1.76,10.37-8.72,19.39l-8.63-11.2S156.82,274.77,163.22,279.9Z" style="fill:#6A2186"></path><path d="M163.22,279.9c3.58,2.87-1.76,10.37-8.72,19.39l-8.63-11.2S156.82,274.77,163.22,279.9Z" style="fill:#fff;opacity:0.2"></path></g></svg>