<svg xmlns="http://www.w3.org/2000/svg" viewBox="0 0 750 500"><g id="freepik--background-complete--inject-19"><polygon points="378.68 241.55 378.71 241.56 378.7 241.53 378.68 241.54 378.68 241.55" style="fill:#f5f5f5"></polygon><polygon points="378.81 241.79 378.82 241.81 378.82 241.81 378.81 241.79" style="fill:#f5f5f5"></polygon><polygon points="378.87 241.66 378.88 241.69 378.9 241.65 378.87 241.66" style="fill:#f5f5f5"></polygon><path d="M425.78,144.6l.21.11L502.28,17.8,460.91,18s-25.16-.19-32.5,0L396.82,135.33l.44.07-18.14,105Z" style="fill:#f5f5f5"></path><path d="M710.27,15.27h-83.4L451.2,161.89l.2.17L379.07,241.3,712.61,18A12.47,12.47,0,0,0,710.27,15.27Z" style="fill:#f5f5f5"></path><path d="M734.66,156.74,380.61,244,379,242.07l.89,2.08-.41.1-.35-.11.2-.12-.31.08h0l.27-.52-.32.35,0,.14h0l-.18-1.69-.18,1.53-.11-.14.06.16-.33-.11-.61-.57.62-1-.79.87-.51-.49,1.27-.77-1.63.44-233.48-220H45L290,183.83h0l86.08,58.59-3.3.89L15.34,181.39v57L239,246s-1.35,3-1.35,3l129.77-4.24L275,269.6c0-.13-.06-.25-.1-.38L15.34,372.89V441.3L304.52,286.71l69.24-42.18,2.43-.07L157.51,484h74.18l145.2-239.6,1.64-.05L349.54,484h54.6L379,244.5l.24.22-.25-.31,1.47,1,40.4,95.18-.21.09L511.79,484h72.88L446.85,324.75a.27.27,0,0,0-.08.07l-63.35-77.39,84.18,57.29a1.27,1.27,0,0,0-.13.19L720.73,486.8h13.93V425.39L481.07,277.1l-.06.17-99.37-32-.88-1.08,353.9-28.73ZM376.64,244l-1.52-.26,1.5-.92.67.46Zm1.91.29-.11,0-1.32-.23.39-.65.56.39-.38-.13.85.58h0Zm.44.14h0l0-.12h.5l-.44.12,1,0-.44-.14.38,0,.23.54Z" style="fill:#f5f5f5"></path><path d="M336.75,142.45h0l41.85,98.64-12.34-106.5h0L351.65,17.8S274,18,278.55,18Z" style="fill:#f5f5f5"></path><polygon points="378.52 241.9 378.39 242.7 378.73 242 378.7 241.71 378.52 241.9" style="fill:#f5f5f5"></polygon><polygon points="378.83 241.66 378.85 241.68 378.85 241.66 378.83 241.66" style="fill:#f5f5f5"></polygon><path d="M578.72,156.94c2.66-2.69,147.17-93.56,147.17-93.56l2.45,19.29Z" style="fill:#ebebeb"></path><polygon points="290.36 104.12 235.14 24.14 215.9 24.14 290.36 104.12" style="fill:#ebebeb"></polygon><polygon points="27.69 76.54 27.69 99.41 126.74 143.78 27.69 76.54" style="fill:#ebebeb"></polygon><path d="M50.14,469.52c3-1.49,77.92-43.94,77.92-43.94L74.72,477.71Z" style="fill:#ebebeb"></path><polygon points="195.61 113.21 187.3 108.72 178.88 113.02 180.59 103.72 173.9 97.05 183.26 95.8 187.54 87.38 191.63 95.9 200.96 97.36 194.12 103.88 195.61 113.21" style="fill:#e0e0e0"></polygon><polygon points="436.06 64.5 427.75 60.01 419.33 64.31 421.04 55.01 414.35 48.34 423.71 47.09 427.99 38.66 432.08 47.18 441.41 48.65 434.57 55.17 436.06 64.5" style="fill:#e0e0e0"></polygon><polygon points="206.84 436.9 198.53 432.4 190.11 436.71 191.82 427.41 185.13 420.74 194.49 419.49 198.77 411.06 202.86 419.58 212.19 421.05 205.35 427.57 206.84 436.9" style="fill:#e0e0e0"></polygon><polygon points="562.5 433.47 554.18 428.97 545.77 433.27 547.47 423.98 540.78 417.31 550.15 416.06 554.43 407.63 558.51 416.15 567.85 417.62 561 424.13 562.5 433.47" style="fill:#e0e0e0"></polygon><polygon points="134.45 119.91 130.14 117.58 125.78 119.81 126.67 114.99 123.2 111.53 128.05 110.88 130.27 106.52 132.39 110.93 137.22 111.69 133.68 115.07 134.45 119.91" style="fill:#e0e0e0"></polygon><polygon points="252.49 457.09 248.18 454.76 243.82 456.99 244.7 452.17 241.23 448.71 246.09 448.06 248.31 443.7 250.42 448.12 255.26 448.87 251.71 452.25 252.49 457.09" style="fill:#e0e0e0"></polygon><polygon points="511.82 382.18 507.51 379.85 503.15 382.07 504.04 377.26 500.57 373.8 505.42 373.15 507.64 368.79 509.76 373.2 514.6 373.96 511.05 377.34 511.82 382.18" style="fill:#e0e0e0"></polygon><polygon points="614.97 117.91 610.66 115.58 606.3 117.81 607.19 113 603.72 109.54 608.57 108.89 610.79 104.52 612.91 108.94 617.75 109.7 614.2 113.08 614.97 117.91" style="fill:#e0e0e0"></polygon></g><g id="freepik--premium-option--inject-19"><rect x="546.39" y="146.49" width="171.63" height="238.56" style="fill:#fff"></rect><rect x="546.39" y="146.49" width="171.63" height="86.35" style="fill:#455a64"></rect><path d="M688.3,254c0,.15-23.6.27-52.7.27s-52.7-.12-52.7-.27,23.59-.26,52.7-.26S688.3,253.83,688.3,254Z" style="fill:#263238"></path><path d="M688.3,277.23c0,.14-23.6.26-52.7.26s-52.7-.12-52.7-.26,23.59-.26,52.7-.26S688.3,277.09,688.3,277.23Z" style="fill:#263238"></path><path d="M688.3,300.49c0,.14-23.6.26-52.7.26s-52.7-.12-52.7-.26,23.59-.27,52.7-.27S688.3,300.34,688.3,300.49Z" style="fill:#263238"></path><rect x="566.41" y="327.3" width="139.81" height="38.63" rx="18.36" style="fill:#455a64"></rect><path d="M597.85,205.51a3.81,3.81,0,0,1,2.38,3.71,4,4,0,0,1-.61,2.23,4.07,4.07,0,0,1-1.77,1.46,6.55,6.55,0,0,1-2.69.52h-2v3h-3.23V205h5.22A6.39,6.39,0,0,1,597.85,205.51Zm-1.38,4.94a1.78,1.78,0,0,0,0-2.47,2.2,2.2,0,0,0-1.5-.44h-1.8v3.34H595A2.26,2.26,0,0,0,596.47,210.45Z" style="fill:#fff"></path><path d="M606.79,213.38H605v3H601.8V205H607a6.39,6.39,0,0,1,2.69.52,4.17,4.17,0,0,1,1.81,5.87,4,4,0,0,1-1.66,1.44l2.46,3.59h-3.46Zm1.54-5.4a2.2,2.2,0,0,0-1.5-.44H605v3.34h1.8a2.26,2.26,0,0,0,1.5-.43,1.78,1.78,0,0,0,0-2.47Z" style="fill:#fff"></path><path d="M623,213.92v2.49h-9.17V205h9v2.5h-5.76v1.92h5.07v2.42h-5.07v2.09Z" style="fill:#fff"></path><path d="M635.14,216.41l0-6-2.94,4.93h-1.43l-2.92-4.77v5.89h-3V205h2.66l4,6.59,3.91-6.59h2.66l0,11.42Z" style="fill:#fff"></path><path d="M640.4,205h3.23v11.42H640.4Z" style="fill:#fff"></path><path d="M647.24,215.25a5.25,5.25,0,0,1-1.41-3.93V205h3.23v6.23c0,1.83.72,2.74,2.17,2.74s2.15-.91,2.15-2.74V205h3.18v6.33a5.25,5.25,0,0,1-1.41,3.93,6.32,6.32,0,0,1-7.91,0Z" style="fill:#fff"></path><path d="M669.06,216.41l0-6-2.93,4.93h-1.44l-2.92-4.77v5.89h-3V205h2.66l4,6.59,3.91-6.59H672l0,11.42Z" style="fill:#fff"></path><path d="M610.13,350.52a5.18,5.18,0,0,1-2.06-2,5.65,5.65,0,0,1,0-5.66,5.23,5.23,0,0,1,2.06-1.95,6.13,6.13,0,0,1,3-.71,6,6,0,0,1,2.49.49,4.92,4.92,0,0,1,1.88,1.39l-1.58,1.46a3.4,3.4,0,0,0-2.67-1.25,3.54,3.54,0,0,0-1.76.44,3.1,3.1,0,0,0-1.21,1.2,3.67,3.67,0,0,0-.43,1.76,3.61,3.61,0,0,0,.43,1.76,3.06,3.06,0,0,0,1.21,1.21,3.53,3.53,0,0,0,1.76.43,3.38,3.38,0,0,0,2.67-1.26l1.58,1.46a5,5,0,0,1-1.88,1.41,6.35,6.35,0,0,1-2.51.48A6.07,6.07,0,0,1,610.13,350.52Z" style="fill:#fff"></path><path d="M626.34,343.67a3.59,3.59,0,0,1,.94,2.7V351h-2.37v-4.31a2.12,2.12,0,0,0-.42-1.44,1.58,1.58,0,0,0-1.23-.48,1.89,1.89,0,0,0-1.43.55,2.32,2.32,0,0,0-.53,1.65v4h-2.37V339.79h2.37v3.94a3.17,3.17,0,0,1,1.14-.72,4,4,0,0,1,1.45-.25A3.33,3.33,0,0,1,626.34,343.67Z" style="fill:#fff"></path><path d="M631.08,350.63a4,4,0,0,1-1.6-1.5,4.35,4.35,0,0,1,0-4.34,4,4,0,0,1,1.6-1.49,5.21,5.21,0,0,1,4.62,0,4,4,0,0,1,1.59,1.49,4.35,4.35,0,0,1,0,4.34,4,4,0,0,1-1.59,1.5,5.3,5.3,0,0,1-4.62,0Zm3.81-2a2.29,2.29,0,0,0,.58-1.65,2.25,2.25,0,0,0-.58-1.64,2.12,2.12,0,0,0-3,0,2.22,2.22,0,0,0-.59,1.64,2.26,2.26,0,0,0,.59,1.65,2.15,2.15,0,0,0,3,0Z" style="fill:#fff"></path><path d="M641,350.63a4.06,4.06,0,0,1-1.6-1.5,4.42,4.42,0,0,1,0-4.34,4,4,0,0,1,1.6-1.49,4.93,4.93,0,0,1,2.32-.54,4.79,4.79,0,0,1,2.3.54,4,4,0,0,1,1.6,1.49,4.42,4.42,0,0,1,0,4.34,4.06,4.06,0,0,1-1.6,1.5,4.91,4.91,0,0,1-2.3.53A5,5,0,0,1,641,350.63Zm3.81-2a2.3,2.3,0,0,0,.59-1.65,2.26,2.26,0,0,0-.59-1.64,2,2,0,0,0-1.49-.62,2,2,0,0,0-1.5.62,2.22,2.22,0,0,0-.6,1.64,2.26,2.26,0,0,0,.6,1.65,2,2,0,0,0,1.5.61A2,2,0,0,0,644.82,348.61Z" style="fill:#fff"></path><path d="M650.14,350.91a4.89,4.89,0,0,1-1.55-.63l.79-1.7a4.57,4.57,0,0,0,1.32.57,5.43,5.43,0,0,0,1.52.22c1,0,1.5-.24,1.5-.74a.53.53,0,0,0-.41-.5,6,6,0,0,0-1.26-.26,11.87,11.87,0,0,1-1.65-.35,2.48,2.48,0,0,1-1.13-.7,2,2,0,0,1-.48-1.42,2.21,2.21,0,0,1,.45-1.37,2.89,2.89,0,0,1,1.3-.94,5.65,5.65,0,0,1,2-.33,7.75,7.75,0,0,1,1.72.19,5.09,5.09,0,0,1,1.42.52l-.79,1.69a4.65,4.65,0,0,0-2.35-.61,2.41,2.41,0,0,0-1.14.21.64.64,0,0,0-.38.55.55.55,0,0,0,.41.53,7.23,7.23,0,0,0,1.3.29,15,15,0,0,1,1.64.35,2.49,2.49,0,0,1,1.11.69,2,2,0,0,1,.47,1.4,2.15,2.15,0,0,1-.45,1.35,3,3,0,0,1-1.33.92,5.85,5.85,0,0,1-2.07.32A7.81,7.81,0,0,1,650.14,350.91Z" style="fill:#fff"></path><path d="M665.38,347.63h-6.17a1.91,1.91,0,0,0,.79,1.2,2.63,2.63,0,0,0,1.55.44,3.3,3.3,0,0,0,1.13-.19,2.77,2.77,0,0,0,.91-.6l1.26,1.36a4.21,4.21,0,0,1-3.36,1.32,5.48,5.48,0,0,1-2.45-.53,4,4,0,0,1-1.64-1.5,4.4,4.4,0,0,1,0-4.33,4,4,0,0,1,1.56-1.5,4.85,4.85,0,0,1,4.39,0,3.82,3.82,0,0,1,1.53,1.48,4.43,4.43,0,0,1,.55,2.24S665.42,347.23,665.38,347.63ZM659.85,345a1.93,1.93,0,0,0-.67,1.25h4a1.93,1.93,0,0,0-.67-1.24,2,2,0,0,0-1.33-.46A2,2,0,0,0,659.85,345Z" style="fill:#fff"></path><path d="M572.18,258.31a1.49,1.49,0,0,1-1-.37l-2.94-2.59a1.5,1.5,0,0,1,2-2.25l1.83,1.61,4.14-4.58a1.5,1.5,0,0,1,2.23,2l-5.14,5.67A1.5,1.5,0,0,1,572.18,258.31Z" style="fill:#455a64"></path><path d="M572.18,281.56a1.49,1.49,0,0,1-1-.37l-2.94-2.58a1.5,1.5,0,0,1,2-2.26l1.83,1.61,4.14-4.57a1.5,1.5,0,1,1,2.23,2l-5.14,5.67A1.47,1.47,0,0,1,572.18,281.56Z" style="fill:#455a64"></path><path d="M572.18,304.82a1.49,1.49,0,0,1-1-.37l-2.94-2.59a1.5,1.5,0,0,1,2-2.25l1.83,1.61,4.14-4.58a1.5,1.5,0,0,1,2.23,2l-5.14,5.67A1.5,1.5,0,0,1,572.18,304.82Z" style="fill:#455a64"></path><polygon points="642.43 169.56 644.9 174.57 650.44 175.38 646.43 179.28 647.38 184.79 642.43 182.19 637.48 184.79 638.42 179.28 634.42 175.38 639.95 174.57 642.43 169.56" style="fill:#fff"></polygon><polygon points="622.98 169.56 625.46 174.57 630.99 175.38 626.99 179.28 627.93 184.79 622.98 182.19 618.03 184.79 618.98 179.28 614.97 175.38 620.51 174.57 622.98 169.56" style="fill:#fff"></polygon><polygon points="638.71 190.22 632.2 186.71 625.63 190.07 626.96 182.81 621.73 177.59 629.05 176.61 632.39 170.02 635.59 176.68 642.89 177.83 637.54 182.93 638.71 190.22" style="fill:#fff"></polygon><path d="M620.44,177.15l8.22-1.09,3.75-7.39,3.58,7.47,8.19,1.29-6,5.71,1.31,8.19-7.29-3.94-7.38,3.77,1.49-8.15Zm21.16,1.08-6.41-1-2.81-5.86-2.94,5.79L623,178l4.59,4.58L626.43,189l5.78-3,5.71,3.09-1-6.41Z" style="fill:#455a64"></path><path d="M718,385.05c0-2.1-.1-97.55-.24-238.56l.24.24-171.61,0h0l.26-.26c0,89.26,0,171.85,0,238.56l-.21-.21,171.63.21-171.63.21h-.22v-.21c0-66.71,0-149.3,0-238.56v-.26h.28l171.61,0h.23v.23C718.11,287.5,718,383,718,385.05Z" style="fill:#263238"></path></g><g id="freepik--standard-option--inject-19"><path d="M579.31,116.14a8.28,8.28,0,0,0-3.49-11.31A10.61,10.61,0,0,0,567,93.14c-2.58-.31-5.19.37-7.78.17s-4.83-1.2-7.29-1.65-5.29-.19-7,1.65c-1.87,2-1.59,5.39-.1,7.74s3.89,3.91,6.22,5.41a2.88,2.88,0,0,0-2.86,2.5,5.79,5.79,0,0,0,1.08,4,12.63,12.63,0,0,0,11.9,5.66l6.53-.19A8.28,8.28,0,0,0,579.31,116.14Z" style="fill:#263238"></path><path d="M558.68,122.59a2.73,2.73,0,0,1-2.92-2.19,3.69,3.69,0,0,1,1.47-3.54,5.83,5.83,0,0,1,3.81-1,14.06,14.06,0,0,1,3.92.91,25.83,25.83,0,0,1,5.63,2.64,5,5,0,0,1,1.6,1.49,2.06,2.06,0,0,1,.12,2.1c-.54.88-1.75,1-2.78,1A63.62,63.62,0,0,1,558,123" style="fill:#6A2186"></path><path d="M556.53,120.39c-.77-7.32-11.1-13.89-15.56-12.72a9.33,9.33,0,0,0-12.24-4l-12.16-5.39c-2.08-.92-4.26-1.87-6.52-1.67s-4.56,2-4.48,4.25c-4.39-1.75-9.88,2.68-9.08,7.35a4.92,4.92,0,0,0-3.63,6.18,49.25,49.25,0,0,0-15.32,6.72c-2,1.29-3.93,2.88-4.57,5.13s.79,5.19,3.13,5.21a5.75,5.75,0,0,0-3.9,4.86c-1.81-1.26-4.35,1.09-4.07,3.28s2.15,3.77,3.95,5,3.79,2.57,4.51,4.65a2,2,0,0,1-1.41.71c-4.86.24-8.85,3.87-8.91,8.73,0,.45,0,.87,0,1.24,0,2.22,1.52,5.42,2.5,7.4,2.47,5,5.15,6.39,9.15,10.32-3.34,2-.76,13.72,12.17,13.54,13.32,16.64,24.05,27.12,41.2,39.77,2.45,1.81,5.64,3.64,8.34,2.24,1.6,2,4.42,2.64,6.95,2.28a22.57,22.57,0,0,0,7.09-2.77,13.25,13.25,0,0,0,14.75-4,16.37,16.37,0,0,0,11.88-5.73c5.05,1.77,11.25-1.92,12.11-7.2a57.85,57.85,0,0,0,5.52-18.21c3.26,1.45,7.1-1.56,7.88-5.05s-.54-7-1.84-10.37c1.7,2.1,5.47.8,6.52-1.68s.22-5.34-.83-7.83a48.82,48.82,0,0,0-5.85-10.28c1.71-4.43.07-12.12-2.19-16.3-9.12-16.87-17.69-25.73-45.07-25.75" style="fill:#263238"></path><path d="M527.06,132.91a7,7,0,0,1,9.17-2.51L572.6,143c10.68,5.5,9.25,22.15,3.3,32.59-6.61,11.6-15.13,25.5-21.9,32.94-13.62,15-29.88,7.06-29.88,7.06l-8,12.06-9.25,14.11c-4.22-3.92-29.8-31.44-29.8-31.44Z" style="fill:#ffbf9d"></path><path d="M542.49,188.88c.07-.14,1.67.55,4.19,1.78.63.33,1.26.58,1.62.24a3.62,3.62,0,0,0,.76-2q.57-2.68,1.2-5.63c1.77-8,3.46-14.37,3.78-14.3s-.85,6.6-2.62,14.57c-.45,2-.88,3.82-1.3,5.61a4.06,4.06,0,0,1-1.21,2.51,1.76,1.76,0,0,1-1.53.22,4.83,4.83,0,0,1-1.09-.51C543.87,190,542.41,189,542.49,188.88Z" style="fill:#263238"></path><path d="M524.12,215.58s-9.66-5-16.41-19c0,0-5.47,14.21,12.58,24.77Z" style="fill:#ff9a6c"></path><path d="M551,157.1c-.64.48-2.75-1.33-5.67-2.78s-5.59-2.15-5.58-2.94c0-.38.78-.72,2.06-.75a11,11,0,0,1,8.57,4.36C551.06,156.05,551.24,156.87,551,157.1Z" style="fill:#263238"></path><path d="M572.69,172.26c-.75.26-2-1.33-3.88-2.61s-3.75-2-3.77-2.75c0-.37.61-.73,1.65-.76a6.41,6.41,0,0,1,3.73,1.22,6.5,6.5,0,0,1,2.43,3.1C573.17,171.44,573,172.12,572.69,172.26Z" style="fill:#263238"></path><path d="M577.56,188.62a13.78,13.78,0,0,0,2.35-8.92c-.22-1.7-.87-3.34-.91-5.06-.09-3.71,2.56-6.85,3.89-10.31a15.09,15.09,0,0,0-1.63-13.7c-2.26-3.28-5.81-5.62-7.56-9.19-1.3-2.64-1.51-5.74-3-8.29-2.83-5-9.29-6.36-15-6.86-3.08,2.6-3,6.79-3,10.82a14,14,0,0,0,5,10.55c2.42,2,5.78,3.54,6.26,6.63.5,3.25-2.64,6.07-2.68,9.35-.05,4.7,5.81,7.13,7.71,11.43,1.46,3.31.34,7.12-.3,10.69s-.42,7.94,2.62,9.92A41.4,41.4,0,0,0,577.56,188.62Z" style="fill:#263238"></path><path d="M557.89,136.62a70.76,70.76,0,0,0-24.52-11.75c-2.63-.68-5.48-1.2-8-.17-2.21.9-3.81,2.84-5.19,4.8-4.3,6.11-7.22,15.3-9,22.58l4.3,10c6.83,2.83,11.42-9.17,14.79-14.42a14.7,14.7,0,0,0,14.56-5.5A16.28,16.28,0,0,0,557.89,136.62Z" style="fill:#263238"></path><path d="M517,159.83c2.28-3.64-1.5-7.39-5.77-7.75-2.34-.2-5,.85-7.43,4.69-6.52,10.22,5.09,14.67,5.3,14.38S514.33,164.08,517,159.83Z" style="fill:#ffbf9d"></path><path d="M508.44,165.29c0-.07-.26,0-.65,0a2.1,2.1,0,0,1-1.35-.82c-.83-1.09-.64-3.38.48-5.26a7,7,0,0,1,2.13-2.23,2.44,2.44,0,0,1,2.21-.51,1.07,1.07,0,0,1,.74,1.16c0,.37-.24.53-.19.59s.32,0,.51-.51a1.37,1.37,0,0,0,0-.9,1.61,1.61,0,0,0-.82-.89,3,3,0,0,0-2.87.4,7.09,7.09,0,0,0-2.44,2.46c-1.25,2.1-1.43,4.7-.22,6.07a2.27,2.27,0,0,0,1.8.77C508.26,165.52,508.46,165.33,508.44,165.29Z" style="fill:#ff9a6c"></path><path d="M504.36,168.63s0,0-.12.11a1.69,1.69,0,0,1-.4.27,2.74,2.74,0,0,1-1.88.2,7.41,7.41,0,0,1-2.79-1.24,10.46,10.46,0,0,1-1.5-1.25,7,7,0,0,1-1.35-1.76l.16,0a6,6,0,0,1-10-2.51l.19.09a2.53,2.53,0,0,1-1.91-.07,3.48,3.48,0,0,1-1.49-1.28,3.22,3.22,0,0,1-.53-2,4.18,4.18,0,0,1,.67-2,6.21,6.21,0,0,1,3.43-2.51,18.5,18.5,0,0,1,4.41-.65l-.14.24a4.24,4.24,0,0,1,.12-3.45,6.24,6.24,0,0,1,2.37-2.7,9.67,9.67,0,0,1,3.49-1.21,29,29,0,0,1,3.74-.29l-.17.21a4.53,4.53,0,0,1,1.08-3.54,6.59,6.59,0,0,1,3.22-2.12c2.42-.7,4.9-.27,7.2.11l-.2.12a8,8,0,0,1,12.9-2.94l-.27.06a6.92,6.92,0,0,1,4.77-3.82,6.83,6.83,0,0,1,5.62,1l-.21,0a6.82,6.82,0,0,1,5.32-2.68,6.71,6.71,0,0,1,4.93,1.83l-.19,0a6.72,6.72,0,0,1,2.62-1.95,8.47,8.47,0,0,1,2.79-.72,6.91,6.91,0,0,1,4.41,1l.38.24c.12.09.23.19.33.28a7.53,7.53,0,0,1,.57.52,8,8,0,0,1,.75.94c.16.27.28.48.38.63l.12.22a1.18,1.18,0,0,1-.15-.2l-.41-.61a8.28,8.28,0,0,0-.76-.91,5.81,5.81,0,0,0-.57-.5l-.33-.27-.38-.23a6.89,6.89,0,0,0-4.32-.9,8.58,8.58,0,0,0-2.72.74,6.33,6.33,0,0,0-2.51,1.89l-.09.11-.09-.1a6.4,6.4,0,0,0-4.75-1.72A6.51,6.51,0,0,0,535,136l-.09.13-.12-.09a6.51,6.51,0,0,0-5.37-.89,6.6,6.6,0,0,0-4.54,3.64l-.1.22-.17-.16a7.69,7.69,0,0,0-12.33,2.82l0,.14-.15,0c-2.3-.38-4.72-.79-7-.12a6.21,6.21,0,0,0-3,2,4.15,4.15,0,0,0-1,3.26l0,.2h-.21c-2.48.07-5,.2-7.05,1.44a5.82,5.82,0,0,0-2.24,2.53,3.91,3.91,0,0,0-.13,3.17l.1.23h-.25a18,18,0,0,0-4.33.63,5.84,5.84,0,0,0-3.26,2.36,3.24,3.24,0,0,0-.16,3.6,2.65,2.65,0,0,0,3.05,1.25l.14-.05.05.15a5.88,5.88,0,0,0,4.61,4,5.94,5.94,0,0,0,5-1.59l.1-.1.06.12a7.16,7.16,0,0,0,1.29,1.73,10.19,10.19,0,0,0,1.47,1.24,7.53,7.53,0,0,0,2.72,1.27,2.83,2.83,0,0,0,1.84-.14C504.19,168.77,504.35,168.61,504.36,168.63Z" style="fill:#455a64"></path><path d="M474.55,131.09a3.71,3.71,0,0,1,.06-.86,6.19,6.19,0,0,1,.88-2.32,6.07,6.07,0,0,1,3-2.5,6.44,6.44,0,0,1,5.19.31l-.16,0a8.29,8.29,0,0,1,4.39-4.2,8.14,8.14,0,0,1,3.39-.66,19.52,19.52,0,0,1,3.6.68,6.31,6.31,0,0,0,1.84.16,4,4,0,0,0,1.77-.56c1.12-.62,2.06-1.63,3.34-2.25A7.37,7.37,0,0,1,510,120.3l-.29,0a9.69,9.69,0,0,1,15.15-2.62l-.28,0A8.52,8.52,0,0,1,540,119.07l-.17-.1a11.62,11.62,0,0,1,4.95.38,17.51,17.51,0,0,1,4.1,1.74,20.21,20.21,0,0,1,5.54,4.6,14.2,14.2,0,0,1,2.42,3.93,7.89,7.89,0,0,1,.38,1.16,3,3,0,0,1,.1.4s-.16-.54-.56-1.52a15.11,15.11,0,0,0-2.47-3.86,20.24,20.24,0,0,0-5.53-4.49,16.89,16.89,0,0,0-4.06-1.69,11.54,11.54,0,0,0-4.82-.35l-.12,0,0-.12a8.19,8.19,0,0,0-14.8-1.23l-.11.2-.17-.15A9.34,9.34,0,0,0,510,120.51l-.12.22-.17-.18a7,7,0,0,0-7.72-1.3c-1.21.57-2.15,1.57-3.33,2.24a4.44,4.44,0,0,1-1.91.59,6.77,6.77,0,0,1-1.92-.18,19.76,19.76,0,0,0-3.55-.68,7.75,7.75,0,0,0-3.27.61,8.05,8.05,0,0,0-4.28,4l-.06.12-.11-.06a6.22,6.22,0,0,0-5-.34,6,6,0,0,0-3,2.39,6.45,6.45,0,0,0-.92,2.26C474.57,130.79,474.57,131.09,474.55,131.09Z" style="fill:#455a64"></path><path d="M566.52,201.63a1.22,1.22,0,0,1,.55-.84,2.47,2.47,0,0,1,1.16-.4,4.25,4.25,0,0,1,1.65.27,7.43,7.43,0,0,0,2,.47,3.74,3.74,0,0,0,2.24-.78,7.1,7.1,0,0,0,1.87-2.07c.55-.83,1-1.78,1.71-2.7,1.33-1.88,3.48-3.2,5.44-4.9a10,10,0,0,0,2.47-3.13,4.86,4.86,0,0,0,.22-4.05,18.62,18.62,0,0,0-2.6-3.66,7.23,7.23,0,0,1-1.17-2.09,5,5,0,0,1-.12-2.45,23.42,23.42,0,0,1,1.76-4.61,8.19,8.19,0,0,0,.67-2.35,3.72,3.72,0,0,0-.53-2.32,13.93,13.93,0,0,0-2.45-2.33,5.4,5.4,0,0,1-1.13-1.34,3.3,3.3,0,0,1-.42-1.7,11.72,11.72,0,0,1,.78-3.25,7.36,7.36,0,0,0,.37-3.11,7.26,7.26,0,0,0-2.79-5.13,7.5,7.5,0,0,0-5.26-1.51l-.22,0,0-.22a11.52,11.52,0,0,0-2.2-9.24,10.56,10.56,0,0,0-3.07-2.66,9.83,9.83,0,0,0-3.24-1.2,8.58,8.58,0,0,0-4.78.56,8,8,0,0,0-1.15.58l-.29.15-.11,0,.09-.07.28-.18a7.06,7.06,0,0,1,1.15-.61,8.41,8.41,0,0,1,4.84-.66,9.67,9.67,0,0,1,3.32,1.19,10.84,10.84,0,0,1,3.17,2.69,11.79,11.79,0,0,1,2.3,9.47l-.18-.19a7.77,7.77,0,0,1,5.5,1.55,7.63,7.63,0,0,1,3,5.37,7.79,7.79,0,0,1-.38,3.24,11.89,11.89,0,0,0-.77,3.15,3.6,3.6,0,0,0,1.43,2.77,13.24,13.24,0,0,1,2.52,2.4,4.12,4.12,0,0,1,.58,2.55,8.18,8.18,0,0,1-.69,2.46,23.25,23.25,0,0,0-1.74,4.54,4.47,4.47,0,0,0,.1,2.27,7,7,0,0,0,1.11,2,18.29,18.29,0,0,1,2.63,3.74,4.58,4.58,0,0,1,.35,2.22,6,6,0,0,1-.59,2.1,10.17,10.17,0,0,1-2.55,3.22c-2,1.72-4.14,3-5.44,4.82-.65.9-1.16,1.84-1.72,2.68a7.63,7.63,0,0,1-2,2.11,3.89,3.89,0,0,1-2.37.78,6.86,6.86,0,0,1-2-.5,4.15,4.15,0,0,0-1.6-.3,2.39,2.39,0,0,0-1.13.35A1.46,1.46,0,0,0,566.52,201.63Z" style="fill:#455a64"></path><path d="M596.57,200.2a.84.84,0,0,1,0-.26l.13-.75c.12-.67.3-1.63.53-2.86s.55-2.75.75-4.53a10.73,10.73,0,0,0-.74-5.9c-.48-1-1.19-2-1.82-3a7.26,7.26,0,0,1-.77-1.75,4.13,4.13,0,0,1-.08-2c.27-1.35,1.09-2.52,1.48-3.84a3.4,3.4,0,0,0,0-2,6.62,6.62,0,0,0-1.05-1.88,12.48,12.48,0,0,1-1.26-1.92,3.94,3.94,0,0,1-.34-2.35,17.89,17.89,0,0,1,1.92-4.42,5.75,5.75,0,0,0,.65-2.27,3,3,0,0,0-.82-2.15c-1.1-1.21-2.81-1.76-4.08-3a4.34,4.34,0,0,1-1.17-2.37,11,11,0,0,1,0-2.57c.07-.84.16-1.67.15-2.48a4.73,4.73,0,0,0-.55-2.27c-.78-1.39-2.32-2.06-3.74-2.65a10.74,10.74,0,0,1-4-2.38,12,12,0,0,1-2.17-3.82A21.63,21.63,0,0,0,578,133a12.46,12.46,0,0,0-5.7-4.4,13.35,13.35,0,0,0-5.92-.89,14.79,14.79,0,0,0-4.42,1.09,16.67,16.67,0,0,0-2.54,1.38l-.64.4-.23.13.21-.16.62-.44a15.66,15.66,0,0,1,2.53-1.44,14.7,14.7,0,0,1,4.46-1.17,13.4,13.4,0,0,1,6,.86,12.69,12.69,0,0,1,5.85,4.47,21.1,21.1,0,0,1,1.78,3.74,11.86,11.86,0,0,0,2.12,3.71,10.45,10.45,0,0,0,3.85,2.28,15.79,15.79,0,0,1,2.15,1.05,4.62,4.62,0,0,1,2.36,4.19,23.36,23.36,0,0,1-.14,2.52,10.29,10.29,0,0,0,0,2.48,3.88,3.88,0,0,0,1.06,2.17c1.18,1.19,2.89,1.74,4.09,3a3.38,3.38,0,0,1,.91,2.41,6,6,0,0,1-.69,2.41c-.69,1.48-1.64,2.82-1.89,4.32a3.56,3.56,0,0,0,.31,2.16,12.43,12.43,0,0,0,1.21,1.87,6.57,6.57,0,0,1,1.1,2,3.7,3.7,0,0,1,0,2.21c-.42,1.39-1.23,2.54-1.49,3.81a4.94,4.94,0,0,0,.8,3.56c.6,1.06,1.32,2,1.81,3.06a11,11,0,0,1,.71,6c-.22,1.79-.58,3.3-.82,4.54s-.46,2.17-.6,2.85c-.07.31-.12.55-.16.74A1.23,1.23,0,0,1,596.57,200.2Z" style="fill:#455a64"></path><path d="M593.55,182.37l.2.1a1.35,1.35,0,0,1,.44.49,2.64,2.64,0,0,1-.28,2.45,6.77,6.77,0,0,1-1.27,1.31,7.69,7.69,0,0,0-1.49,1.52,4.64,4.64,0,0,0-.61,2.31c0,.87,0,1.8-.1,2.79A3.49,3.49,0,0,1,588.9,196c-.92.61-2,.87-2.95,1.5a4.52,4.52,0,0,0-1.68,2.9c-.27,1.17-.35,2.44-.7,3.71a5.44,5.44,0,0,1-.83,1.82,5,5,0,0,1-1.55,1.35,22.16,22.16,0,0,1-3.89,1.45,5.58,5.58,0,0,0-3.28,2.36,18.19,18.19,0,0,0-1.21,4.17,6.36,6.36,0,0,1-.94,2.07,5,5,0,0,1-1.74,1.44A18.68,18.68,0,0,1,566,220a10.06,10.06,0,0,0-3.73,1.54,28,28,0,0,1-3.23,2.32,4.18,4.18,0,0,1-1.89.52,5.49,5.49,0,0,1-1.87-.33,15.48,15.48,0,0,0-1.71-.5,6.47,6.47,0,0,0-1.7-.05,12.7,12.7,0,0,0-3.12.94c-1,.41-1.92.82-2.86,1.13a8.31,8.31,0,0,1-5.24,0,8.89,8.89,0,0,1-3.43-2,8,8,0,0,1-1.54-2,5.27,5.27,0,0,1-.36-.8,9.22,9.22,0,0,0,2,2.68,8.86,8.86,0,0,0,3.39,1.92,8.19,8.19,0,0,0,5.1-.1c.92-.31,1.84-.72,2.83-1.14a12.72,12.72,0,0,1,3.2-1,6.26,6.26,0,0,1,1.78,0,14.63,14.63,0,0,1,1.75.5,5.16,5.16,0,0,0,1.77.31,4,4,0,0,0,1.75-.49,29.31,29.31,0,0,0,3.18-2.31,10.38,10.38,0,0,1,3.84-1.6,18.13,18.13,0,0,0,4-1.22,4.51,4.51,0,0,0,1.61-1.33,5.71,5.71,0,0,0,.88-1.94,18.4,18.4,0,0,1,1.25-4.26,4.57,4.57,0,0,1,1.52-1.6,9,9,0,0,1,2-.92A24.18,24.18,0,0,0,581,207a4.85,4.85,0,0,0,1.44-1.26,5.33,5.33,0,0,0,.79-1.71c.34-1.22.42-2.48.7-3.68a4.83,4.83,0,0,1,1.83-3.08c1-.67,2.1-.92,3-1.49a3.22,3.22,0,0,0,1.44-2.45c.12-.94.06-1.88.12-2.76a4.81,4.81,0,0,1,.68-2.41,7.48,7.48,0,0,1,1.54-1.54,6.32,6.32,0,0,0,1.27-1.26,2.55,2.55,0,0,0,.33-2.34A1.55,1.55,0,0,0,593.55,182.37Z" style="fill:#455a64"></path><path d="M533.06,187.07a1.65,1.65,0,0,1,2.22.5c1.5,2.23,3,4.46,4.51,6.7l.51.74a18.2,18.2,0,0,1-4,2.62,4.75,4.75,0,0,1-4,0,5.29,5.29,0,0,1-2.12-2.52c-.69-1.69-1.25-3.42-.48-5.07C530.26,188.83,532,187.75,533.06,187.07Z" style="fill:#ff9a6c"></path><path d="M499.72,162.82a6.38,6.38,0,0,0-2.08-.21,8.17,8.17,0,0,0-5.22,2.2,8.7,8.7,0,0,0-2.25,3.28,9.82,9.82,0,0,0-.54,4.53,10,10,0,0,0,1.79,4.71,9.11,9.11,0,0,0,4.31,3.26,9.79,9.79,0,0,0,5.39.42,8.85,8.85,0,0,0,4.44-2.38,9.41,9.41,0,0,0,2.74-7.85,8.26,8.26,0,0,0-1.19-3.06,8.94,8.94,0,0,0-1.57-1.91,5.37,5.37,0,0,0-1.3-.87,1.3,1.3,0,0,0-.52-.16,6,6,0,0,1,1.69,1.17,9,9,0,0,1,2.57,4.87,9.14,9.14,0,0,1-2.72,7.51,8.47,8.47,0,0,1-4.23,2.24,9.47,9.47,0,0,1-5.14-.42,8.72,8.72,0,0,1-4.1-3.08,9.65,9.65,0,0,1-1.74-4.5,9.48,9.48,0,0,1,.48-4.35,8.44,8.44,0,0,1,2.11-3.17,8.28,8.28,0,0,1,5-2.26C499,162.7,499.71,162.88,499.72,162.82Z" style="fill:#e0e0e0"></path><path d="M540.21,170.69a2.62,2.62,0,0,1-3.58.82,2.52,2.52,0,0,1-1-3.47,2.63,2.63,0,0,1,3.58-.82A2.5,2.5,0,0,1,540.21,170.69Z" style="fill:#263238"></path><path d="M561.11,185.28a2.64,2.64,0,0,1-3.58.82,2.53,2.53,0,0,1-1-3.48,2.64,2.64,0,0,1,3.58-.82A2.53,2.53,0,0,1,561.11,185.28Z" style="fill:#263238"></path><path d="M567.09,179.52c-.43.18-1.26-2.11-3.52-3.39s-4.65-.89-4.71-1.36c0-.21.54-.64,1.6-.84a5.87,5.87,0,0,1,6.58,3.79C567.39,178.74,567.3,179.45,567.09,179.52Z" style="fill:#263238"></path><path d="M545.86,166.79c-.53.12-1.31-2.57-3.85-4.37s-5.34-1.75-5.38-2.28c0-.25.68-.63,1.94-.69a7.55,7.55,0,0,1,4.6,1.42,7.33,7.33,0,0,1,2.76,3.89C546.26,166,546.1,166.74,545.86,166.79Z" style="fill:#263238"></path><path d="M534.26,197.83s-.36.14-1,0a4.67,4.67,0,0,1-2.42-1.47,7.33,7.33,0,0,1-1.85-3.77,4.59,4.59,0,0,1,.28-2.56,6.09,6.09,0,0,1,1.67-2.17,11.33,11.33,0,0,1,2.23-1.45,1.81,1.81,0,0,1,1.5-.19,2.24,2.24,0,0,1,1,1l2.16,3.44A17.17,17.17,0,0,1,539.6,194a16.84,16.84,0,0,1-2.3-3c-.72-1-1.49-2.15-2.31-3.34-.44-.72-.76-.89-1.48-.5a11.42,11.42,0,0,0-2.07,1.37,4.34,4.34,0,0,0-1.74,4,7.34,7.34,0,0,0,1.54,3.49,4.94,4.94,0,0,0,2.08,1.54C533.9,197.75,534.27,197.76,534.26,197.83Z" style="fill:#263238"></path><path d="M624.85,158.93a16,16,0,0,0-1.56-3.49,11.84,11.84,0,0,0-3.08-3.18,10.83,10.83,0,0,0-5.43-1.95l-.31,0,0-.32a10,10,0,0,0-2.31-7.16,10.11,10.11,0,0,0-7.69-3.9h-.39v-.39a16.35,16.35,0,0,0-4.71-11.16,15.68,15.68,0,0,0-8.48-4.38,16.3,16.3,0,0,0-8.73.88l-.18.07-.17-.11a24.37,24.37,0,0,0-9.34-3.76,25.31,25.31,0,0,0-7.88-.21,34.17,34.17,0,0,0-6.76,1.75s.13-.1.41-.24.7-.36,1.26-.58a23.64,23.64,0,0,1,5-1.37,25.24,25.24,0,0,1,8.05,0,24.82,24.82,0,0,1,9.65,3.76l-.35,0a16.83,16.83,0,0,1,9.14-1,16.28,16.28,0,0,1,8.93,4.58,17,17,0,0,1,4.92,11.73l-.39-.39a10.87,10.87,0,0,1,8.25,4.24A10.61,10.61,0,0,1,615.1,150l-.28-.33a11,11,0,0,1,5.67,2.17,11.44,11.44,0,0,1,3.08,3.39,10.21,10.21,0,0,1,1.12,2.67A4.57,4.57,0,0,1,624.85,158.93Z" style="fill:#263238"></path><path d="M560.79,107.4a7.1,7.1,0,0,1-2.88-1.18,10.91,10.91,0,0,1-4.78-7,10.07,10.07,0,0,1,.67-6,11.29,11.29,0,0,1,4.59-5.21A10.31,10.31,0,0,1,566,87a11,11,0,0,1,6.8,4.83l-.45-.19a7.85,7.85,0,0,1,5.22.57A8.2,8.2,0,0,1,581,95.1a7.27,7.27,0,0,1,1.12,4.17,8.08,8.08,0,0,1-4.05,6.79l-.15-.72a6.64,6.64,0,0,1,5.13,3.55,6.85,6.85,0,0,1,.44,5.67,8.81,8.81,0,0,1-7.06,5.65,10.92,10.92,0,0,1-6-.89,9.4,9.4,0,0,1-1.42-.76c-.3-.21-.45-.32-.44-.34s.66.38,1.95.87a11.07,11.07,0,0,0,5.79.65,8.3,8.3,0,0,0,6.52-5.39,6.17,6.17,0,0,0-.46-5.11,5.92,5.92,0,0,0-4.56-3.14l-1.29-.1,1.13-.62a7.31,7.31,0,0,0,3.62-6.13,6.56,6.56,0,0,0-1-3.71,7.4,7.4,0,0,0-3-2.59,7.06,7.06,0,0,0-4.67-.52l-.29.08-.16-.26a10.23,10.23,0,0,0-6.28-4.49,9.54,9.54,0,0,0-7.08.93,10.68,10.68,0,0,0-4.37,4.84,9.55,9.55,0,0,0-.72,5.61,10.79,10.79,0,0,0,4.41,6.83A15.23,15.23,0,0,0,560.79,107.4Z" style="fill:#263238"></path><path d="M495.66,99.17a1.83,1.83,0,0,1,.08-.51,8.94,8.94,0,0,1,.45-1.41,12.83,12.83,0,0,1,3.16-4.59,12.69,12.69,0,0,1,7.72-3.46,13.5,13.5,0,0,1,10.1,3.47l-.45-.06a16.1,16.1,0,0,1,11.11-1.46,15.61,15.61,0,0,1,7.47,4.18,16,16,0,0,1,4,6.74l-.31-.26a17.75,17.75,0,0,1,8.19,3.38,18.48,18.48,0,0,1,4.67,5.07,16.26,16.26,0,0,1,1.82,4.08,7.18,7.18,0,0,1,.31,1.55,24.42,24.42,0,0,0-2.51-5.39,18.28,18.28,0,0,0-4.65-4.81,17.38,17.38,0,0,0-7.92-3.15l-.24,0-.07-.23a15.41,15.41,0,0,0-3.86-6.38,14.81,14.81,0,0,0-7.08-4,15.43,15.43,0,0,0-10.56,1.35l-.25.13-.2-.19a12.91,12.91,0,0,0-9.52-3.37A12.39,12.39,0,0,0,499.68,93a13.44,13.44,0,0,0-3.25,4.33C495.89,98.51,495.72,99.19,495.66,99.17Z" style="fill:#263238"></path><path d="M434.35,174.28s1.08-1.92,9.41-.83,41.33,23.94,41.33,23.94-6,23.61,12.15,28.11c13.22,3.28,20.23-.41,20.23-.41s22.13,27.52,23.94,38.74c0,0-106.65,74.62-89.34,66.51l-17.72.2Z" style="fill:#6A2186"></path><path d="M539.68,258.78c.29.79,4.42,5.71.33,27.63-3.72,19.91-20,40-20,40L487.55,297.2Z" style="fill:#6A2186"></path><path d="M522.75,274.39a3.31,3.31,0,0,1-.5.49l-1.49,1.3c-1.32,1.11-3.24,2.7-5.65,4.62-4.81,3.84-11.53,9.05-19,14.73S481.81,306.3,476.86,310l-5.88,4.3-1.62,1.15a2.82,2.82,0,0,1-.58.37,3.83,3.83,0,0,1,.52-.45l1.56-1.23,5.78-4.43,19.15-14.55c7.48-5.68,14.23-10.84,19.09-14.61l5.75-4.49,1.55-1.22A4.06,4.06,0,0,1,522.75,274.39Z" style="fill:#263238"></path><rect x="232.57" y="85.84" width="236.21" height="328.31" style="fill:#fff"></rect><rect x="232.57" y="85.84" width="236.21" height="118.83" style="fill:#6A2186"></rect><rect x="390.91" y="95.36" width="64.54" height="23.73" rx="11.28" style="fill:#263238"></rect><path d="M427.88,233.77c0,.14-32.48.26-72.52.26s-72.54-.12-72.54-.26,32.47-.26,72.54-.26S427.88,233.62,427.88,233.77Z" style="fill:#263238"></path><path d="M427.88,265.77c0,.14-32.48.26-72.52.26s-72.54-.12-72.54-.26,32.47-.26,72.54-.26S427.88,265.63,427.88,265.77Z" style="fill:#263238"></path><path d="M427.88,297.78c0,.14-32.48.26-72.52.26s-72.54-.12-72.54-.26,32.47-.26,72.54-.26S427.88,297.63,427.88,297.78Z" style="fill:#263238"></path><rect x="260.13" y="334.67" width="192.41" height="53.17" rx="25.26" style="fill:#6A2186"></rect><path d="M294.33,186.29a8.89,8.89,0,0,1-2.92-1.26l1.46-3.27a9.36,9.36,0,0,0,2.45,1.12,9.48,9.48,0,0,0,2.74.43c1.7,0,2.56-.43,2.56-1.28a1.06,1.06,0,0,0-.73-1,13.21,13.21,0,0,0-2.35-.69,20.51,20.51,0,0,1-3-.82,5,5,0,0,1-2.05-1.4,3.82,3.82,0,0,1-.85-2.6,4.48,4.48,0,0,1,.79-2.6,5.23,5.23,0,0,1,2.34-1.83,9.66,9.66,0,0,1,3.83-.67,13.59,13.59,0,0,1,3.05.35,9.15,9.15,0,0,1,2.65,1l-1.37,3.3a9.11,9.11,0,0,0-4.35-1.21,3.64,3.64,0,0,0-1.93.39,1.16,1.16,0,0,0-.61,1,1,1,0,0,0,.72.94,13.34,13.34,0,0,0,2.31.66,21.59,21.59,0,0,1,3,.81,5.26,5.26,0,0,1,2,1.4,3.68,3.68,0,0,1,.86,2.59,4.44,4.44,0,0,1-.78,2.56,5.44,5.44,0,0,1-2.36,1.83,9.67,9.67,0,0,1-3.82.68A14.27,14.27,0,0,1,294.33,186.29Z" style="fill:#fff"></path><path d="M310.16,174.26h-4.83v-3.53h14.08v3.53H314.6v12.19h-4.44Z" style="fill:#fff"></path><path d="M330.81,183.4h-6.64l-1.24,3H318.4l6.93-15.72h4.38l7,15.72h-4.62Zm-1.3-3.28-2-5-2,5Z" style="fill:#fff"></path><path d="M352.88,170.73v15.72h-3.66l-6.94-8.37v8.37h-4.35V170.73h3.66l6.93,8.38v-8.38Z" style="fill:#fff"></path><path d="M356,170.73h7.43a10.45,10.45,0,0,1,4.58,1,7.26,7.26,0,0,1,3.1,2.74,8.38,8.38,0,0,1,0,8.3,7.2,7.2,0,0,1-3.1,2.74,10.31,10.31,0,0,1-4.58,1H356Zm7.25,12.17a4.59,4.59,0,0,0,3.25-1.14,4.72,4.72,0,0,0,0-6.33,4.55,4.55,0,0,0-3.25-1.15h-2.8v8.62Z" style="fill:#fff"></path><path d="M384.87,183.4h-6.64l-1.24,3h-4.53l6.93-15.72h4.38l7,15.72H386.1Zm-1.3-3.28-2-5-2,5Z" style="fill:#fff"></path><path d="M398.86,182.27h-2.43v4.18H392V170.73h7.18a9,9,0,0,1,3.7.71,5.31,5.31,0,0,1,3.28,5.11,5.22,5.22,0,0,1-3.07,5l3.39,4.94h-4.76Zm2.11-7.43a3.12,3.12,0,0,0-2.07-.6h-2.47v4.6h2.47a3.12,3.12,0,0,0,2.07-.6,2.1,2.1,0,0,0,.69-1.69A2.17,2.17,0,0,0,401,174.84Z" style="fill:#fff"></path><path d="M408.6,170.73H416a10.45,10.45,0,0,1,4.58,1,7.32,7.32,0,0,1,3.1,2.74,8.38,8.38,0,0,1,0,8.3,7.26,7.26,0,0,1-3.1,2.74,10.31,10.31,0,0,1-4.58,1H408.6Zm7.25,12.17a4.54,4.54,0,0,0,3.24-1.14,4.69,4.69,0,0,0,0-6.33,4.51,4.51,0,0,0-3.24-1.15H413v8.62Z" style="fill:#fff"></path><path d="M411,104.42a2.3,2.3,0,0,1,1,3.25,2.15,2.15,0,0,1-1,.79,3.46,3.46,0,0,1-1.46.28h-1.28v1.75h-1.47v-6.35h2.75A3.62,3.62,0,0,1,411,104.42Zm-.54,2.84a1,1,0,0,0,.35-.81,1,1,0,0,0-.35-.83,1.54,1.54,0,0,0-1-.28h-1.19v2.2h1.19A1.54,1.54,0,0,0,410.43,107.26Z" style="fill:#fff"></path><path d="M414.14,110.24a2.36,2.36,0,0,1-1-.89,2.59,2.59,0,0,1,0-2.6,2.43,2.43,0,0,1,1-.89,3.14,3.14,0,0,1,2.76,0,2.52,2.52,0,0,1,1,3.49,2.4,2.4,0,0,1-1,.89,3.14,3.14,0,0,1-2.76,0Zm2.27-1.21a1.55,1.55,0,0,0,0-2,1.16,1.16,0,0,0-.89-.37,1.19,1.19,0,0,0-.9.37,1.55,1.55,0,0,0,0,2,1.19,1.19,0,0,0,.9.37A1.16,1.16,0,0,0,416.41,109Z" style="fill:#fff"></path><path d="M423.26,105.85a2.19,2.19,0,0,1,.88.88,2.88,2.88,0,0,1,0,2.64,2.19,2.19,0,0,1-.88.88,2.44,2.44,0,0,1-1.23.31,1.84,1.84,0,0,1-1.47-.59v2.28h-1.42v-6.64h1.35v.56a1.89,1.89,0,0,1,1.54-.63A2.44,2.44,0,0,1,423.26,105.85Zm-.59,3.18a1.55,1.55,0,0,0,0-2,1.26,1.26,0,0,0-1.78,0,1.55,1.55,0,0,0,0,2,1.26,1.26,0,0,0,1.78,0Z" style="fill:#fff"></path><path d="M430.32,105.61v4.88H429v-.58a1.94,1.94,0,0,1-.67.49,2.13,2.13,0,0,1-.84.16,2.1,2.1,0,0,1-1.53-.55,2.23,2.23,0,0,1-.56-1.64v-2.76h1.42v2.55c0,.79.33,1.18,1,1.18a1.06,1.06,0,0,0,.81-.33,1.38,1.38,0,0,0,.31-1v-2.41Z" style="fill:#fff"></path><path d="M431.63,103.76h1.42v6.73h-1.42Z" style="fill:#fff"></path><path d="M438.07,106.08a2,2,0,0,1,.61,1.63v2.78h-1.32v-.61a1.58,1.58,0,0,1-1.49.68,2.29,2.29,0,0,1-1-.19,1.48,1.48,0,0,1-.63-.52,1.44,1.44,0,0,1-.22-.77,1.29,1.29,0,0,1,.52-1.07,2.61,2.61,0,0,1,1.58-.39h1.12a.91.91,0,0,0-.28-.71,1.26,1.26,0,0,0-.84-.25,2.27,2.27,0,0,0-.77.13,2,2,0,0,0-.64.33l-.5-1a3.09,3.09,0,0,1,.95-.44,4.43,4.43,0,0,1,1.15-.15A2.52,2.52,0,0,1,438.07,106.08Zm-1.2,3.36a.87.87,0,0,0,.39-.49v-.5h-1q-.87,0-.87.57a.49.49,0,0,0,.22.43.91.91,0,0,0,.58.16A1.19,1.19,0,0,0,436.87,109.44Z" style="fill:#fff"></path><path d="M442,105.72a2.59,2.59,0,0,1,1-.18v1.3h-.32a1.29,1.29,0,0,0-.95.34,1.35,1.35,0,0,0-.35,1v2.3H440v-4.88h1.35v.64A1.63,1.63,0,0,1,442,105.72Z" style="fill:#fff"></path><path d="M320.29,366.64a7.21,7.21,0,0,1-2.83-2.7,7.81,7.81,0,0,1,0-7.79,7.26,7.26,0,0,1,2.83-2.69,9.06,9.06,0,0,1,7.5-.3,6.83,6.83,0,0,1,2.58,1.92l-2.17,2a4.69,4.69,0,0,0-3.68-1.71,4.85,4.85,0,0,0-2.42.6,4.21,4.21,0,0,0-1.66,1.66,5.26,5.26,0,0,0,0,4.84,4.27,4.27,0,0,0,1.66,1.66,4.85,4.85,0,0,0,2.42.59A4.64,4.64,0,0,0,328.2,363l2.17,2a6.84,6.84,0,0,1-2.59,1.94,8.7,8.7,0,0,1-3.45.67A8.49,8.49,0,0,1,320.29,366.64Z" style="fill:#fff"></path><path d="M342.61,357.21a4.94,4.94,0,0,1,1.29,3.72v6.43h-3.26v-5.93a3,3,0,0,0-.58-2,2.16,2.16,0,0,0-1.7-.66,2.59,2.59,0,0,0-2,.77,3.14,3.14,0,0,0-.73,2.26v5.56h-3.26v-15.5h3.26v5.43a4.29,4.29,0,0,1,1.57-1,5.64,5.64,0,0,1,2-.34A4.59,4.59,0,0,1,342.61,357.21Z" style="fill:#fff"></path><path d="M349.13,366.78a5.49,5.49,0,0,1-2.21-2.06,5.63,5.63,0,0,1-.79-3,5.69,5.69,0,0,1,.79-3,5.54,5.54,0,0,1,2.21-2.05,6.66,6.66,0,0,1,3.18-.74,6.59,6.59,0,0,1,3.17.74,5.51,5.51,0,0,1,2.2,2.05,5.69,5.69,0,0,1,.79,3,5.63,5.63,0,0,1-.79,3,5.47,5.47,0,0,1-2.2,2.06,6.59,6.59,0,0,1-3.17.74A6.66,6.66,0,0,1,349.13,366.78Zm5.24-2.77a3.62,3.62,0,0,0,0-4.54,2.73,2.73,0,0,0-2.06-.84,2.78,2.78,0,0,0-2.07.84,3.59,3.59,0,0,0,0,4.54,2.78,2.78,0,0,0,2.07.84A2.73,2.73,0,0,0,354.37,364Z" style="fill:#fff"></path><path d="M362.8,366.78a5.47,5.47,0,0,1-2.2-2.06,5.63,5.63,0,0,1-.79-3,5.69,5.69,0,0,1,.79-3,5.51,5.51,0,0,1,2.2-2.05A6.67,6.67,0,0,1,366,356a6.59,6.59,0,0,1,3.17.74,5.55,5.55,0,0,1,2.19,2.05,5.69,5.69,0,0,1,.79,3,5.63,5.63,0,0,1-.79,3,5.5,5.5,0,0,1-2.19,2.06,6.59,6.59,0,0,1-3.17.74A6.67,6.67,0,0,1,362.8,366.78ZM368,364a3.59,3.59,0,0,0,0-4.54,2.71,2.71,0,0,0-2.05-.84,2.75,2.75,0,0,0-2.07.84,3.55,3.55,0,0,0,0,4.54,2.75,2.75,0,0,0,2.07.84A2.71,2.71,0,0,0,368,364Z" style="fill:#fff"></path><path d="M375.36,367.18a7.12,7.12,0,0,1-2.13-.87l1.09-2.34a6.72,6.72,0,0,0,1.81.79,7.7,7.7,0,0,0,2.09.3q2.07,0,2.07-1a.73.73,0,0,0-.57-.69A8.27,8.27,0,0,0,378,363a17.08,17.08,0,0,1-2.28-.48,3.55,3.55,0,0,1-1.55-1,2.72,2.72,0,0,1-.66-2,3.08,3.08,0,0,1,.62-1.89,3.92,3.92,0,0,1,1.79-1.28,7.62,7.62,0,0,1,2.79-.46,10.62,10.62,0,0,1,2.37.26,6.31,6.31,0,0,1,1.95.72l-1.08,2.32a6.47,6.47,0,0,0-3.24-.84,3.37,3.37,0,0,0-1.57.29.88.88,0,0,0-.52.75.74.74,0,0,0,.57.73,9.25,9.25,0,0,0,1.79.4,19.73,19.73,0,0,1,2.26.49,3.44,3.44,0,0,1,1.52.95,2.7,2.7,0,0,1,.65,1.92,3,3,0,0,1-.63,1.86,4,4,0,0,1-1.83,1.26,8.1,8.1,0,0,1-2.84.45A10.88,10.88,0,0,1,375.36,367.18Z" style="fill:#fff"></path><path d="M396.34,362.66h-8.49a2.66,2.66,0,0,0,1.08,1.65,3.62,3.62,0,0,0,2.13.6,4.22,4.22,0,0,0,1.56-.26,3.79,3.79,0,0,0,1.26-.82l1.73,1.88a5.82,5.82,0,0,1-4.63,1.81,7.3,7.3,0,0,1-3.37-.74,5.41,5.41,0,0,1-2.25-2.06,5.63,5.63,0,0,1-.79-3,5.79,5.79,0,0,1,.78-3,5.46,5.46,0,0,1,2.15-2.06,6.24,6.24,0,0,1,3.06-.74,6.16,6.16,0,0,1,3,.71,5.13,5.13,0,0,1,2.1,2,6.06,6.06,0,0,1,.76,3.08S396.38,362.12,396.34,362.66Zm-7.62-3.61a2.63,2.63,0,0,0-.92,1.71h5.54a2.68,2.68,0,0,0-2.76-2.34A2.79,2.79,0,0,0,388.72,359.05Z" style="fill:#fff"></path><path d="M268.07,239.17a1.48,1.48,0,0,1-1-.38l-4-3.55a1.49,1.49,0,0,1-.14-2.12A1.51,1.51,0,0,1,265,233l2.93,2.58,6.07-6.7a1.5,1.5,0,0,1,2.23,2l-7.07,7.8A1.49,1.49,0,0,1,268.07,239.17Z" style="fill:#6A2186"></path><path d="M268.07,271.17a1.47,1.47,0,0,1-1-.37l-4-3.56a1.5,1.5,0,1,1,2-2.25l2.93,2.58,6.07-6.71a1.5,1.5,0,0,1,2.23,2l-7.07,7.8A1.48,1.48,0,0,1,268.07,271.17Z" style="fill:#6A2186"></path><path d="M268.07,303.18a1.48,1.48,0,0,1-1-.38l-4-3.55a1.5,1.5,0,1,1,2-2.25l2.93,2.57,6.07-6.7a1.5,1.5,0,0,1,2.23,2l-7.07,7.8A1.49,1.49,0,0,1,268.07,303.18Z" style="fill:#6A2186"></path><polygon points="366.58 121.53 370.59 129.65 379.55 130.95 373.07 137.27 374.6 146.19 366.58 141.98 358.57 146.19 360.1 137.27 353.62 130.95 362.58 129.65 366.58 121.53" style="fill:#fff"></polygon><polygon points="351.01 121.53 356.31 132.26 368.15 133.98 359.58 142.33 361.6 154.12 351.01 148.55 340.43 154.12 342.45 142.33 333.88 133.98 345.72 132.26 351.01 121.53" style="fill:#fff"></polygon><path d="M362.89,155.89,351,149.65l-11.88,6.24,2.27-13.22-9.61-9.37,13.28-1.93,5.94-12,5.93,12,13.28,1.93-9.61,9.36ZM336,134.65l7.52,7.34-1.78,10.36,9.31-4.9,9.3,4.9L358.54,142l7.52-7.34-10.4-1.51L351,123.72l-4.66,9.42Z" style="fill:#6A2186"></path><path d="M468.78,414.16c0-2.1-.1-134.21-.24-328.32l.24.24-236.18,0h0l.26-.26c0,122.85,0,236.51-.05,328.32l-.21-.21,236.21.21-236.21.21h-.21v-.21c0-91.81,0-205.47-.05-328.32v-.26h.29l236.18,0H469v.23C468.87,280,468.78,412.06,468.78,414.16Z" style="fill:#263238"></path><path d="M353.19,283.35s-3.5-5.26,3.51-5.55,41.47,5.55,53.15,11.39l10.22,6.42L409,317.51H383.56c-2.92,0-11.09-5-3.5-8.46,0,0-7.59-5.26-.58-9.64,0,0-5.55-4.09.29-9.64Z" style="fill:#ffbf9d"></path><path d="M411.9,291.36l58,30.38,21.76-20.82,25.93,23.36S491.89,354.46,477,357.09s-72.88-44-72.88-44Z" style="fill:#ffbf9d"></path><path d="M472.75,198l-.54.31a10.2,10.2,0,0,1-2.67.93,9.45,9.45,0,0,0-1.31.24,5.11,5.11,0,0,0-.73.48c-1.59.93-3.61,1-5.39,1.23-2,.21-4.15.52-5.71,1.81s-2.26,3.86-.89,5.35a2.65,2.65,0,0,0-2.59,2.36,3.8,3.8,0,0,0,1.56,3.35,7.17,7.17,0,0,0,3.6,1.3,2.92,2.92,0,0,0-2.41,3.27,4.47,4.47,0,0,0,2.75,3.36,10.33,10.33,0,0,0,4.45.68,52,52,0,0,1,5.86.12s0,1.93,0,2.8c0,1.18,0,.26,0,.26a12.76,12.76,0,0,0,3.38,1.37c2.63.86,4.33,1.56,6.7,2.17,1.77.46,3.51.68,4.46-.51,2.29-2.86-3.73-7-3.73-7,1.77-1,1.29-6.67-1.34-7.44,1.3-.64,2.12-.57,2.89-1.81a4.63,4.63,0,0,0,.46-4.16,3.32,3.32,0,0,0-3.49-2,5.56,5.56,0,0,0,1.61-6.08,5.51,5.51,0,0,0-2.65-2.91,5.61,5.61,0,0,0-1.92-.57,2.16,2.16,0,0,0-.76,0,1,1,0,0,0-.31.16C473.59,197.3,473.21,197.69,472.75,198Z" style="fill:#ffbf9d"></path><path d="M475.56,191.48a4.37,4.37,0,0,0-1.61-3.26c-1.22-.83-3.42-.73-4.87-.41-.09,1.76,0,2.65-.12,4.41,0,.37.11.66-.06,1-.45.87-2.36,1-3.24,1.45a3.33,3.33,0,0,0-1.21,4.41,4.46,4.46,0,0,0,4.31,2.13,6.89,6.89,0,0,0,4.38-2.37A9.7,9.7,0,0,0,475.56,191.48Z" style="fill:#ffbf9d"></path><path d="M478.55,206.37c0,.14-5.13.7-11.49,1.24s-11.53.87-11.54.72,5.13-.7,11.49-1.24S478.54,206.22,478.55,206.37Z" style="fill:#ff9a6c"></path><path d="M478.55,214.4a15.36,15.36,0,0,1-3,.6,73.4,73.4,0,0,1-7.38.72c-2.9.15-5.52.12-7.42,0a15,15,0,0,1-3.06-.3,20.24,20.24,0,0,1,3.07-.07c1.89,0,4.5,0,7.38-.18s5.48-.37,7.36-.56A21.93,21.93,0,0,1,478.55,214.4Z" style="fill:#ff9a6c"></path><path d="M478.55,222.25a10.76,10.76,0,0,1-2.51.4c-1.56.16-3.72.28-6.11.31s-4.55,0-6.11,0a12.59,12.59,0,0,1-2.54-.14,12.07,12.07,0,0,1,2.53-.23c1.57-.07,3.73-.1,6.11-.14s4.54-.09,6.1-.16A15.14,15.14,0,0,1,478.55,222.25Z" style="fill:#ff9a6c"></path><path d="M475.09,194.06a2.81,2.81,0,0,1-.16,2,6.57,6.57,0,0,1-3.2,3.45,13.51,13.51,0,0,1-2.4,1,9.81,9.81,0,0,1-2.08.49,2.23,2.23,0,0,1-1.44-.33c-.29-.2-.37-.39-.35-.41a2.51,2.51,0,0,0,1.75.38,12.53,12.53,0,0,0,2-.59,16,16,0,0,0,2.31-1,6.76,6.76,0,0,0,3.11-3.14A11.13,11.13,0,0,0,475.09,194.06Z" style="fill:#ff9a6c"></path></g><g id="freepik--basic-option--inject-19"><rect x="31.98" y="146.49" width="171.63" height="238.56" style="fill:#fff"></rect><rect x="31.98" y="146.49" width="171.63" height="86.35" style="fill:#455a64"></rect><path d="M173.9,254c0,.15-23.6.27-52.7.27s-52.7-.12-52.7-.27,23.59-.26,52.7-.26S173.9,253.83,173.9,254Z" style="fill:#263238"></path><path d="M173.9,277.23c0,.14-23.6.26-52.7.26s-52.7-.12-52.7-.26,23.59-.26,52.7-.26S173.9,277.09,173.9,277.23Z" style="fill:#263238"></path><path d="M173.9,300.49c0,.14-23.6.26-52.7.26s-52.7-.12-52.7-.26,23.59-.27,52.7-.27S173.9,300.34,173.9,300.49Z" style="fill:#263238"></path><rect x="52.01" y="327.3" width="139.81" height="38.63" rx="18.36" style="fill:#455a64"></rect><path d="M101.86,211.53a2.79,2.79,0,0,1,.55,1.75,2.64,2.64,0,0,1-1.21,2.32,6.25,6.25,0,0,1-3.49.81H91.55V205h5.84a5.71,5.71,0,0,1,3.32.81,2.56,2.56,0,0,1,1.15,2.18,2.78,2.78,0,0,1-.4,1.46,2.83,2.83,0,0,1-1.14,1A3.21,3.21,0,0,1,101.86,211.53Zm-7.12-4.2v2.2H97c1.09,0,1.63-.37,1.63-1.11s-.54-1.09-1.63-1.09Zm4.41,5.59c0-.77-.57-1.16-1.7-1.16H94.74v2.32h2.71C98.58,214.08,99.15,213.69,99.15,212.92Z" style="fill:#fff"></path><path d="M111.74,214.19h-4.83l-.89,2.22h-3.3l5-11.42h3.18L116,216.41h-3.36Zm-.95-2.38-1.46-3.65-1.47,3.65Z" style="fill:#fff"></path><path d="M118.23,216.3a6.51,6.51,0,0,1-2.12-.92l1.06-2.38a7,7,0,0,0,1.78.82,6.65,6.65,0,0,0,2,.31q1.86,0,1.86-.93a.78.78,0,0,0-.53-.73,11,11,0,0,0-1.7-.5,16.16,16.16,0,0,1-2.16-.59,3.59,3.59,0,0,1-1.48-1,2.73,2.73,0,0,1-.62-1.89,3.29,3.29,0,0,1,.57-1.89,3.86,3.86,0,0,1,1.7-1.33,7.17,7.17,0,0,1,2.78-.48,9.69,9.69,0,0,1,2.22.25,6.8,6.8,0,0,1,1.93.74l-1,2.4a6.58,6.58,0,0,0-3.16-.88,2.65,2.65,0,0,0-1.4.28.84.84,0,0,0-.44.74.73.73,0,0,0,.52.69,9.52,9.52,0,0,0,1.68.47,16.69,16.69,0,0,1,2.16.6,3.73,3.73,0,0,1,1.48,1A2.69,2.69,0,0,1,126,213a3.2,3.2,0,0,1-.57,1.86,3.84,3.84,0,0,1-1.71,1.33,7,7,0,0,1-2.78.5A10.5,10.5,0,0,1,118.23,216.3Z" style="fill:#fff"></path><path d="M127.47,205h3.23v11.42h-3.23Z" style="fill:#fff"></path><path d="M135.47,215.88a5.65,5.65,0,0,1-2.25-2.11,6.2,6.2,0,0,1,0-6.13,5.67,5.67,0,0,1,2.25-2.12,6.8,6.8,0,0,1,3.22-.75,6.92,6.92,0,0,1,2.82.55,5.42,5.42,0,0,1,2.09,1.6l-2.06,1.86a3.38,3.38,0,0,0-2.69-1.34,3.31,3.31,0,0,0-1.65.41,2.78,2.78,0,0,0-1.13,1.15,3.47,3.47,0,0,0-.4,1.7,3.54,3.54,0,0,0,.4,1.71,2.84,2.84,0,0,0,1.13,1.15,3.31,3.31,0,0,0,1.65.41,3.38,3.38,0,0,0,2.69-1.34l2.06,1.86a5.52,5.52,0,0,1-2.09,1.6,6.92,6.92,0,0,1-2.82.55A6.69,6.69,0,0,1,135.47,215.88Z" style="fill:#fff"></path><path d="M95.72,350.52a5.25,5.25,0,0,1-2.06-2,5.71,5.71,0,0,1,0-5.66A5.3,5.3,0,0,1,95.72,341a6.55,6.55,0,0,1,5.45-.22,5,5,0,0,1,1.87,1.39l-1.58,1.46a3.36,3.36,0,0,0-2.66-1.24,3.5,3.5,0,0,0-1.76.43,3.1,3.1,0,0,0-1.21,1.2,3.56,3.56,0,0,0-.43,1.76,3.5,3.5,0,0,0,.43,1.76A3.06,3.06,0,0,0,97,348.7a3.5,3.5,0,0,0,1.76.43,3.35,3.35,0,0,0,2.66-1.26l1.58,1.46a4.79,4.79,0,0,1-1.88,1.41,6.3,6.3,0,0,1-2.5.48A6.14,6.14,0,0,1,95.72,350.52Z" style="fill:#fff"></path><path d="M111.94,343.67a3.63,3.63,0,0,1,.93,2.7V351h-2.36v-4.31a2.12,2.12,0,0,0-.43-1.44,1.55,1.55,0,0,0-1.23-.48,1.87,1.87,0,0,0-1.42.55,2.27,2.27,0,0,0-.53,1.65v4h-2.37V339.79h2.37v3.94A3.22,3.22,0,0,1,108,343a4.07,4.07,0,0,1,1.46-.25A3.34,3.34,0,0,1,111.94,343.67Z" style="fill:#fff"></path><path d="M116.67,350.63a4.06,4.06,0,0,1-1.6-1.5,4.42,4.42,0,0,1,0-4.34,4.11,4.11,0,0,1,1.6-1.49,4.93,4.93,0,0,1,2.32-.54,4.82,4.82,0,0,1,2.3.54,4,4,0,0,1,1.59,1.49,4.35,4.35,0,0,1,0,4.34,4,4,0,0,1-1.59,1.5,4.82,4.82,0,0,1-2.3.53A4.92,4.92,0,0,1,116.67,350.63Zm3.81-2a2.29,2.29,0,0,0,.58-1.65,2.27,2.27,0,0,0-.58-1.64,2,2,0,0,0-1.49-.62,2,2,0,0,0-1.51.62,2.27,2.27,0,0,0-.59,1.64,2.3,2.3,0,0,0,.59,1.65,2,2,0,0,0,1.51.61A2,2,0,0,0,120.48,348.61Z" style="fill:#fff"></path><path d="M126.61,350.63a4,4,0,0,1-1.6-1.5,4.13,4.13,0,0,1,1.6-5.83,5.21,5.21,0,0,1,4.62,0,4,4,0,0,1,1.59,1.49,4.35,4.35,0,0,1,0,4.34,4,4,0,0,1-1.59,1.5,5.3,5.3,0,0,1-4.62,0Zm3.81-2A2.29,2.29,0,0,0,131,347a2.27,2.27,0,0,0-.58-1.64,2,2,0,0,0-1.5-.62,2,2,0,0,0-1.5.62,2.27,2.27,0,0,0-.59,1.64,2.3,2.3,0,0,0,.59,1.65,2,2,0,0,0,1.5.61A2,2,0,0,0,130.42,348.61Z" style="fill:#fff"></path><path d="M135.73,350.91a4.83,4.83,0,0,1-1.54-.63l.79-1.69a4.73,4.73,0,0,0,1.32.56,5.36,5.36,0,0,0,1.51.22c1,0,1.5-.24,1.5-.74a.52.52,0,0,0-.41-.5,6,6,0,0,0-1.25-.26,11,11,0,0,1-1.66-.35,2.61,2.61,0,0,1-1.13-.69,2,2,0,0,1-.48-1.43,2.21,2.21,0,0,1,.45-1.37,2.92,2.92,0,0,1,1.31-.94,5.59,5.59,0,0,1,2-.33,7.68,7.68,0,0,1,1.72.19,5,5,0,0,1,1.42.52l-.79,1.69a4.65,4.65,0,0,0-2.35-.61,2.46,2.46,0,0,0-1.14.21.64.64,0,0,0-.38.55.55.55,0,0,0,.41.53,7.39,7.39,0,0,0,1.31.29,15.5,15.5,0,0,1,1.64.35,2.44,2.44,0,0,1,1.1.7,1.9,1.9,0,0,1,.47,1.39,2.15,2.15,0,0,1-.45,1.35,3,3,0,0,1-1.33.92,5.85,5.85,0,0,1-2.07.32A7.81,7.81,0,0,1,135.73,350.91Z" style="fill:#fff"></path><path d="M151,347.63h-6.17a1.91,1.91,0,0,0,.78,1.2,2.65,2.65,0,0,0,1.55.44,3,3,0,0,0,1.13-.19,2.81,2.81,0,0,0,.92-.6l1.26,1.37a4.26,4.26,0,0,1-3.37,1.31,5.31,5.31,0,0,1-2.44-.53,3.91,3.91,0,0,1-1.64-1.5,4.36,4.36,0,0,1,0-4.33,4,4,0,0,1,1.57-1.5,4.56,4.56,0,0,1,2.22-.54,4.49,4.49,0,0,1,2.17.52,3.73,3.73,0,0,1,1.52,1.48A4.37,4.37,0,0,1,151,347S151,347.24,151,347.63ZM145.44,345a1.92,1.92,0,0,0-.66,1.24h4a2,2,0,0,0-.67-1.24,2,2,0,0,0-1.34-.46A2,2,0,0,0,145.44,345Z" style="fill:#fff"></path><path d="M57.77,258.31a1.51,1.51,0,0,1-1-.37l-2.93-2.59a1.5,1.5,0,1,1,2-2.25l1.83,1.61,4.14-4.58a1.5,1.5,0,0,1,2.22,2l-5.13,5.67A1.54,1.54,0,0,1,57.77,258.31Z" style="fill:#455a64"></path><path d="M57.77,281.56a1.51,1.51,0,0,1-1-.37l-2.93-2.58a1.5,1.5,0,1,1,2-2.26L57.66,278l4.14-4.57a1.5,1.5,0,1,1,2.22,2l-5.13,5.67A1.5,1.5,0,0,1,57.77,281.56Z" style="fill:#455a64"></path><path d="M57.77,304.82a1.51,1.51,0,0,1-1-.37l-2.93-2.59a1.5,1.5,0,1,1,2-2.25l1.83,1.61,4.14-4.58a1.5,1.5,0,1,1,2.22,2l-5.13,5.67A1.54,1.54,0,0,1,57.77,304.82Z" style="fill:#455a64"></path><polygon points="124.3 190.22 117.8 186.71 111.22 190.07 112.55 182.81 107.32 177.59 114.64 176.61 117.99 170.02 121.19 176.68 128.49 177.83 123.14 182.93 124.3 190.22" style="fill:#fff"></polygon><path d="M203.61,385.05c0-2.1-.09-97.55-.23-238.56l.23.24L32,146.75h0l.26-.26c0,89.26,0,171.85-.05,238.56l-.21-.21,171.63.21L32,385.26h-.21v-.21c0-66.71,0-149.3-.05-238.56v-.26H32l171.61,0h.24v.23C203.71,287.5,203.62,383,203.61,385.05Z" style="fill:#263238"></path></g></svg>